<svg width="202" height="201" xmlns="http://www.w3.org/2000/svg"><g fill="none" fill-rule="evenodd"><path d="M100.721.5c35.73 0 68.74 19.06 86.6 50a100.016 100.016 0 010 100 99.988 99.988 0 01-86.6 50 99.988 99.988 0 01-86.6-50 100.016 100.016 0 010-100 99.988 99.988 0 0186.6-50v30a69.986 69.986 0 00-60.62 35 70.02 70.02 0 000 70c12.5 21.66 35.61 35 60.62 35 25.01 0 48.12-13.34 60.62-35a70.02 70.02 0 000-70 69.986 69.986 0 00-60.62-35V.5z" fill-opacity=".002" fill="#455A64"/><path d="M101.079.858a99.576 99.576 0 0149.464 13.349 99.562 99.562 0 0136.468 36.472 99.83 99.83 0 018.369 18.692h0l-27.86 9.049a70.374 70.374 0 00-66.441-48.277h0z" stroke="#EFF0F0" stroke-width=".715" fill="#EF0000"/><path d="M195.6 70.05a99.555 99.555 0 012.588 51.165 99.581 99.581 0 01-23.422 45.956A100.253 100.253 0 01159.58 180.9h0l-17.22-23.692a70.383 70.383 0 0028.337-64.065A70.352 70.352 0 00167.74 79.1h0z" stroke="#EFF0F0" stroke-width=".715" fill="#940000"/><path d="M141.782 157.629l17.22 23.691a99.548 99.548 0 01-47.858 18.273 99.602 99.602 0 01-50.948-8.07 99.424 99.424 0 01-17.755-10.202h0l17.22-23.692a70.348 70.348 0 0069.675 7.148 70.122 70.122 0 0012.446-7.148h0z" stroke="#EFF0F0" stroke-width=".715" fill="#C6E5FA"/><path d="M5.841 70.05l27.86 9.05c-7.606 23.81-2.001 49.883 14.734 68.479a70.057 70.057 0 0010.647 9.63h0L41.862 180.9c-28.61-20.946-43.94-55.528-40.235-90.813A99.63 99.63 0 015.84 70.051h0z" stroke="#EFF0F0" stroke-width=".715" fill="#FFF200"/><path d="M100.364.858v29.285a70.31 70.31 0 00-33.056 8.438h0L51.202 32.78l2.153 15.692a70.262 70.262 0 00-13.563 16.85 70.148 70.148 0 00-5.87 13.099h0l-27.86-9.05C17.141 35.683 45.297 10.419 80.005 3.04A99.87 99.87 0 01100.364.858h0z" stroke="#EFF0F0" stroke-width=".715" fill="#F8AB00"/><path d="M69.073 108.304l2.28-8.164h.048l2.273 8.164h1.727l2.703-11.375h-1.867l-1.797 8.32-.008.079-.008-.055-2.297-8.344h-1.515l-2.274 8.32-.008.04v-.016l-1.82-8.344h-1.867l2.695 11.375h1.735zm11.023 0l.906-2.656h4.453l.899 2.656h1.93L84.15 96.93h-1.797l-4.18 11.375h1.922zm4.82-4.242H81.55l1.672-4.86h.047l1.648 4.86zm6.586 4.242v-4.719h2.532c.583 0 1.041.172 1.375.516.333.344.5.807.5 1.39v.915c0 .354.03.716.09 1.086.06.37.193.64.402.812h1.953v-.18c-.198-.166-.339-.408-.422-.726a3.833 3.833 0 01-.125-.977v-.945c0-.672-.14-1.238-.422-1.7-.281-.46-.742-.792-1.383-.995.584-.255 1.028-.595 1.332-1.02.305-.424.457-.93.457-1.52 0-1.062-.346-1.88-1.039-2.452-.692-.573-1.674-.86-2.945-.86h-4.203v11.375h1.898zm2.203-6.242h-2.203v-3.61h2.305c.703 0 1.227.163 1.57.489.344.325.516.775.516 1.348 0 .599-.175 1.044-.523 1.336-.35.291-.904.437-1.665.437zm8.391 6.242v-8.289l.047-.015 5.047 8.304h1.89V96.93h-1.89v8.281l-.047.016-5.047-8.297h-1.898v11.375h1.898zm11.484 0V96.93h-1.898v11.375h1.898zm4.493 0v-8.289l.047-.015 5.046 8.304h1.891V96.93h-1.89v8.281l-.047.016-5.047-8.297h-1.899v11.375h1.899zm13.804.164c1.084 0 1.97-.176 2.66-.527.69-.352 1.187-.744 1.489-1.176v-4.242h-4.156v1.422h2.257v2.312c-.166.188-.435.35-.804.489-.37.138-.852.207-1.446.207-.833 0-1.511-.296-2.035-.887-.523-.591-.785-1.345-.785-2.262v-2.39c0-.907.24-1.654.723-2.243.481-.588 1.116-.882 1.902-.882.766 0 1.35.191 1.754.574.404.383.626.887.668 1.512h1.797l.015-.047c-.015-1.058-.394-1.916-1.136-2.575-.743-.658-1.783-.988-3.121-.988-1.323 0-2.403.434-3.239 1.3-.836.868-1.254 1.99-1.254 3.364v2.375c0 1.375.443 2.496 1.329 3.363.885.868 2.013 1.301 3.382 1.301z" fill="#212121" fill-rule="nonzero"/></g></svg>