<svg width="202" height="201" xmlns="http://www.w3.org/2000/svg"><g fill="none" fill-rule="evenodd"><path d="M100.86.5c35.73 0 68.74 19.06 86.6 50a100.016 100.016 0 010 100 99.988 99.988 0 01-86.6 50 99.988 99.988 0 01-86.6-50 100.016 100.016 0 010-100 99.988 99.988 0 0186.6-50v30a69.986 69.986 0 00-60.62 35 70.02 70.02 0 000 70c12.5 21.66 35.61 35 60.62 35 25.01 0 48.12-13.34 60.62-35a70.02 70.02 0 000-70 69.986 69.986 0 00-60.62-35V.5z" fill-opacity=".002" fill="#455A64"/><path d="M101.218.858a99.576 99.576 0 0149.464 13.349 99.562 99.562 0 0136.469 36.472 99.83 99.83 0 018.368 18.692h0l-27.86 9.049a70.374 70.374 0 00-66.441-48.277h0z" stroke="#EFF0F0" stroke-width=".715" fill="#EF0000"/><path d="M195.74 70.05a99.555 99.555 0 012.587 51.165 99.581 99.581 0 01-23.422 45.956 100.253 100.253 0 01-15.186 13.729h0l-17.22-23.692a70.342 70.342 0 0022.457-27.702h0l18.159-4.255-12.628-14.623c.833-5.72.968-11.59.35-17.485A70.352 70.352 0 00167.88 79.1h0z" stroke="#EFF0F0" stroke-width=".715" fill="#940000"/><path d="M141.921 157.629l17.22 23.691a99.548 99.548 0 01-47.858 18.273 99.602 99.602 0 01-50.947-8.07 99.424 99.424 0 01-17.756-10.202h0l17.22-23.692a70.348 70.348 0 0069.676 7.148 70.122 70.122 0 0012.445-7.148h0z" stroke="#EFF0F0" stroke-width=".715" fill="#C6E5FA"/><path d="M5.98 70.05l27.86 9.05c-7.606 23.81-2 49.883 14.735 68.479a70.057 70.057 0 0010.647 9.63h0L42.002 180.9C13.39 159.954-1.938 125.372 1.766 90.087a99.63 99.63 0 014.215-20.036h0z" stroke="#EFF0F0" stroke-width=".715" fill="#FFF200"/><path d="M100.503.858v29.285a70.316 70.316 0 00-34.824 9.426A70.282 70.282 0 0039.93 65.32a70.148 70.148 0 00-5.87 13.099h0l-27.86-9.05c11.08-33.688 39.235-58.952 73.944-66.33A99.87 99.87 0 01100.503.858h0z" stroke="#EFF0F0" stroke-width=".715" fill="#F8AB00"/><path d="M79.02 97.906l.907-2.656h4.453l.899 2.656h1.93L83.074 86.53H81.28l-4.18 11.375h1.922zm4.821-4.242h-3.367l1.672-4.86h.047l1.648 4.86zm11.813 4.242V96.39h-5.227v-9.86h-1.898v11.376h7.125zm9.203 0V96.39h-5.774V92.79h4.977v-1.524h-4.977v-3.21h5.719V86.53h-7.617v11.375h7.672zm3.5 0v-4.719h2.53c.584 0 1.043.172 1.376.516.333.344.5.807.5 1.39v.915c0 .354.03.716.09 1.085.06.37.194.641.402.813h1.953v-.18c-.198-.166-.338-.409-.422-.726a3.833 3.833 0 01-.125-.977v-.945c0-.672-.14-1.238-.422-1.7-.28-.46-.742-.792-1.382-.995.583-.256 1.027-.596 1.332-1.02.304-.425.457-.931.457-1.52 0-1.062-.347-1.88-1.04-2.453-.692-.573-1.674-.86-2.945-.86h-4.203v11.376h1.899zm2.203-6.242h-2.203v-3.61h2.304c.703 0 1.227.163 1.57.489.344.325.516.774.516 1.347 0 .6-.174 1.045-.523 1.336-.35.292-.904.438-1.664.438zm10.508 6.242v-9.852h3.437v-1.523h-8.773v1.523h3.437v9.852h1.899zm-41.387 20v-1.516h-5.227v-9.86h-1.898v11.376h7.125zm9.203 0v-1.516h-5.773v-3.601h4.976v-1.524h-4.976v-3.21h5.718v-1.524h-7.617v11.375h7.672zm6.336 0l4.062-11.375H97.26l-2.719 8.414-.195.773h-.047l-.203-.789-2.711-8.398h-2.023l4.054 11.375h1.805zm13.094 0v-1.516h-5.774v-3.601h4.977v-1.524h-4.977v-3.21h5.719v-1.524h-7.617v11.375h7.672zm8.726 0v-1.516h-5.226v-9.86h-1.899v11.376h7.125zm12.68 0v-1.516h-5.125l-.024-.047 2.532-2.671c.77-.85 1.34-1.57 1.707-2.164.367-.594.55-1.217.55-1.868 0-.974-.317-1.763-.953-2.367-.635-.604-1.5-.906-2.593-.906-1.198 0-2.141.345-2.828 1.035-.688.69-1.019 1.54-.993 2.55l.016.048h1.836c0-.657.161-1.172.484-1.547.323-.375.818-.563 1.485-.563.505 0 .906.172 1.203.516.297.344.445.77.445 1.281 0 .406-.114.822-.344 1.246-.229.425-.645.968-1.25 1.63l-3.703 4.038v1.305h7.555z" fill="#212121" fill-rule="nonzero"/></g></svg>