<svg xmlns="http://www.w3.org/2000/svg" viewBox="0 0 1651.61 1217.31"><defs><style>.cls-1{fill:#c7dcf6;opacity:0.5;}.cls-2{fill:#93b0cc;fill-opacity:0.5;}.cls-3{font-size:22px;font-family:ArialMT, Arial;letter-spacing:0.01em;}.cls-4{letter-spacing:-0.01em;}.cls-5{letter-spacing:-0.1em;}.cls-6{letter-spacing:-0.01em;}.cls-12,.cls-16,.cls-18,.cls-19,.cls-21,.cls-24,.cls-7,.cls-9{fill:none;}.cls-7{stroke:#000;}.cls-12,.cls-13,.cls-15,.cls-16,.cls-17,.cls-18,.cls-19,.cls-20,.cls-21,.cls-22,.cls-24,.cls-7,.cls-9{stroke-miterlimit:10;}.cls-8{letter-spacing:-0.1em;}.cls-9{stroke:#ffdb2c;stroke-width:8px;}.cls-24,.cls-9{stroke-linecap:round;}.cls-10,.cls-13{fill:#168dbd;}.cls-11{fill:#ffdb2c;}.cls-12,.cls-13,.cls-15,.cls-16,.cls-17,.cls-18,.cls-19,.cls-20,.cls-21,.cls-22{stroke:#168dbd;}.cls-12{stroke-width:2.75px;}.cls-14{fill:gray;}.cls-15,.cls-17,.cls-20,.cls-22{fill:#fff;}.cls-15,.cls-20{fill-opacity:0.6;}.cls-15,.cls-16{stroke-width:2px;}.cls-17{stroke-width:1.02px;}.cls-19{stroke-width:6px;}.cls-20,.cls-21{stroke-width:3px;}.cls-22{stroke-width:4px;}.cls-23{fill:#dae7ef;}.cls-24{stroke:gray;}.cls-25{fill:#e7ebf1;}</style></defs><g id="Layer_2" data-name="Layer 2"><g id="Layer_2-2" data-name="Layer 2"><path class="cls-1" d="M1614.27,117.43c-27.13,0-27.13,10.08-54.26,10.08s-27.12-10.08-54.25-10.08-27.13,10.08-54.26,10.08-27.13-10.08-54.26-10.08-27.13,10.08-54.26,10.08-27.12-10.08-54.25-10.08-27.13,10.08-54.26,10.08-27.13-10.08-54.26-10.08-27.13,10.08-54.26,10.08-27.13-10.08-54.26-10.08-27.12,10.08-54.25,10.08-27.13-10.08-54.26-10.08-27.13,10.08-54.26,10.08-27.13-10.08-54.26-10.08-27.13,10.08-54.26,10.08-27.12-10.08-54.25-10.08S719,127.51,691.89,127.51s-27.13-10.08-54.25-10.08-27.13,10.08-54.26,10.08-27.13-10.08-54.26-10.08S502,127.51,474.86,127.51s-27.13-10.08-54.26-10.08-27.13,10.08-54.26,10.08-27.13-10.08-54.26-10.08S285,127.51,257.82,127.51s-27.13-10.08-54.26-10.08-27.14,10.08-54.27,10.08S122.16,117.43,95,117.43,67.9,127.51,40.76,127.51c-21.78,0-25.95-5.68-40.76-8.57V1126.6a90.72,90.72,0,0,0,90.72,90.71H1560.89a90.72,90.72,0,0,0,90.72-90.71V126.23C1639.57,123.46,1634.06,117.43,1614.27,117.43Z"/><path class="cls-2" d="M90.72,1217.31H1560.89a90.72,90.72,0,0,0,90.72-90.71v-67.19c-1.25.09-2.64.17-4.25.17-11.14,0-11.14-.42-22.28-.42s-11.14.7-22.27.7-11.14-2.49-22.28-2.49-11.13-4.72-22.27-4.72-11.14,7.63-22.27,7.63-11.14,9.59-22.27,9.59-11.14-8-22.28-8-11.13,9.17-22.27,9.17-11.14-6.72-22.27-6.72-11.14-5-22.27-5-11.14-6.9-22.27-6.9-11.14,2.44-22.28,2.44-11.13,14.64-22.27,14.64-11.13-17.5-22.27-17.5-11.13,2.14-22.27,2.14-11.13,12.07-22.27,12.07-11.13,4.84-22.27,4.84-11.13-11.28-22.27-11.28-11.13,12-22.27,12-11.13-9.52-22.27-9.52-11.13-1.54-22.27-1.54h-89.08c-11.14,0-11.14-1.68-22.27-1.68s-11.14,8.81-22.27,8.81-11.14-5.09-22.27-5.09-11.14,4.61-22.28,4.61-11.13-14.83-22.27-14.83-11.13,16.77-22.27,16.77S945.81,1058,934.67,1058s-11.13,4.49-22.27,4.49-11.13-2.64-22.27-2.64-11.13,10.94-22.27,10.94-11.13-2.45-22.27-2.45-11.13,4.24-22.27,4.24-11.13-10.12-22.27-10.12-11.13,3.93-22.27,3.93-11.13-11-22.27-11a18.75,18.75,0,0,0-2,.11c-2.15-3.71-3.71-6.44-3.07-8.63,1.42-4.85-5.21-18.33-15.69-27.19-5.51-4.67-18.15-.95-26.46-4.18-.12-7,0-13,.9-13,2.1,0,13.93-8.59,16.55-10.75s8.68-5.83,6.58-8-7.62,5.22-9.73,3.68,2.11-10.74,11.83-12.28c0,0,12.09-11.05,8.93-14.73s-6,2.15-6.83,3.37-1.32,5.23-2.1,2.46,1.57-6.45,2.36-9.21,3.68-6.65,1-7.16-2.63.09-3.42,2.86-2.89,7.06-3.68,9.21-8.4,13.82-8.93,12.59,2.63-8,1.84-9.83-4.27-3.25-6.83,16l-1,7.06L710.67,994s-4.2,5.81.27-19.05c0,0,25.49-37.15,28.64-36.84,0,0,15-11.67,11.82-17.19,0,0-1-4.3-6.57,5.22,0,0-5.51,5.52-2.63-2.76,0,0,5.52-12,3.16-13.51,0,0-4.48-3.37-7.63,16.28,0,0-2.1,8.9-4.46,9.82,0,0-4.21,9.21,0-8,0,0,2.63-8,0-8.29,0,0-1.57-6.72-7.57,21.84.17-.78.49-2.4-1.92,7.84-3.07,2.83-12.32,12.86-12.32,13.9,0,1.23-3.94-7.06-.26-18.42,0,0,5.25-16,7.61-22.1,0,0,6.31-4.61,16.56-17.81,0,0,12.61-17.19,12.88-19.95,0,0,4.21-8,.53-6.45,0,0-6.31,9.52-7.89,10.44,0,0-4.73,6.14-2.1-2.15,0,0,4.2-11.67,3.15-12.89,0,0-2.89-4-5.25,5.52,0,0-3.63,10.8-3.42,19.34,0,0-7.88,14.13-9.72,13.51,0,0-3.68.18,2.1-39.21,0,0,8.63-9,4.71-11.76,0,0-1.55-2.76-4.45,2.15,0,0-1.31,4.91-2.36-6.75,0,0-3.94-7.37-3.68,11.36,0,0,.26,24.86-1.84,27,0,0-.79,6.14-3.15-6.14,0,0,1.84-14.12-1-13.81,0,0-2.63.61-2.63,4,0,0,0,4-.79,3.37,0,0-8.93-13.81-9.72-12.89,0,0-4.73,2.15,0,9.21a84.91,84.91,0,0,1,13.4,20s3.42,5.83,2.89,11.36c0,0-8.68,26.71-9.73,28.55,0,0,1.32,9.21-5.52-3.07,0,0-3.67-1.84-3.15-8,0,0-2.89-3.07,6.31-16,0,0,4.21-3.07-1-3.07,0,0-4.46,6.45-3.15-3.68,0,0,.72-7.37-2.53-2.15,0,0-2.72,11-3,15,0,0-.78,11.36-2.36,1.84,0,0-6.57-10.44-6-18.42,0,0-1.84-5.22-3.94-5.83,0,0-2.36,2.15-1.31,9.21,0,0,7.62,21.18,9.72,23.33a115.81,115.81,0,0,0,11.3,18.78s4.21,3.63,2.89,24.81c0,0,1.31,11.67-3.68,4.91,0,0-8.41-10.43-9.19-19.34,0,0,1.57-10-1.58-10.39,0,0-1.84-3.33-1.84,3.23a27.75,27.75,0,0,0,2.36,19.44s11,20.25,11.3,22.71c0,0-.18,10-.06,18.48-5-5.71-8.59-13.92-14.63-18-8.05-5.39-24.26,3.17-31-1.37-12.29-8.33-12.89-28.47-12.89-30.77,0-2.62-7.62-21.75-.16-37.08,4.34-9,16.52-15.27,21.5-25.41s5.12-22.59,9.35-31.62c6.91-14.77,19.35-20.75,19.35-24.49,0-3.28-8.39-4.89-17.88-14.58-3.24-3.3-2.49-11.8-2.76-19.51.71.26,1.2.06,1.67-.68.84-1.32,0-3.13-2.16-5a15.44,15.44,0,0,0-1.82-5.55,2.1,2.1,0,0,0,.7-.72c.82-1.31-1.9-4.59-1.46-4.7s1.24,1.56,1.79,2.35,3.17,5.89,3.85,7.23,4,.8,3.76-1c-.41-2.83-.78-5.63,1.46-4.4a25.82,25.82,0,0,1,6.94,5.19c1.79,2.12,3.46,7.94,4,9.29s1.23,4.78,3.13,4.7c1.72-.08,2.8-1.13,2.46-2.58s-2.13-6.82-1.34-6,2.17,3.15,3.28,3.32c4,.6,4.77-4.1,3.09-5-1.34-.72-5.14-3.46-4.59-4.14a1.61,1.61,0,0,0,.9-2.8s3.35-1.56,1.45-4.14-4.58.23-6.48.34-8.28-3-6.94-3.7,4.36-.67,4.48-2.24-.57-3.13-4.37-2.57-8.17-.22-7.72-1.79,3.58-4.48,4.58-5.26a8.76,8.76,0,0,1,4.14-2.24c1.46.93,3.92-.19,3.47-1.9a83.72,83.72,0,0,0,10.41-5.37,1.71,1.71,0,0,0-1.61-2.91c-2.13.45-5.33,2.24-6.9,2.8s-6.27,1.56-8,2.46-3.72,3.28-3.95,2-2.57-1.46-3.58-.89c-4.56,1.71-.42,4.55-3.1,5.89s-6.72,1-8-.22-1.68-2.35-1-3,4.59-4.48,5.82-4.37,4.67.73,6,.3a2.76,2.76,0,0,0,2.2-3.1s5-3.35,6.38-3.46,4.26-.34,5.6-1,3.35-2.68,4.13-3.24,3.81-1.12,5.82-.9,9.18,1,10.18.23.79-2.69-.45-2.92-5.48-.45-5-.78,6.87-1.54,7.95-1.79a2,2,0,0,0,1.26-3.32c-1.08-1.4-2.41,0-2.83-.59a2.27,2.27,0,0,0-3.81-.68c-2.24,3-3.13,1.79-3.58,1.46s-1.57-.56-3.25.56-2.52.33-2.4-.22.5-2.8,4.42-6.6,5.87-7.61,4.81-8.73a2,2,0,0,0-3.25.45c-.64,1.09-1.68,3.92-3,5.14s-2.35,1.68-3.13,1.68-1.48-.18-2,.9c-.45.89.56,1.17-.23,2.63s-1.56,2.07-3.58,4.87-5.12,5.3-5.82,4.92c-1-.56-1.12-2.13-.22-3.41,2.21-3.18,2.33-4.31,2.35-5.43,0-1.87-3.24-3.66-4.44-.22-.59,1.71,0,6.32-.76,6.55s-1.9-1.07-2.63-.28c-.51.54-.56,1.45.22,2.8s1,1.67.22,2.12-4.81,3.81-4.92,1.68.89-4.92.78-5.93a2.13,2.13,0,0,0-2.91-1.46c-1.23.67-1,2.39-1.28,4.14a10,10,0,0,1-4.09,6.38s-2-2-3.58.84c0,0-2.69-.28-2.47-1s4-3.08,2.75-5.26a2.46,2.46,0,0,0-2.3-1s.06-3-2.52-2.46-2.4-.33-1.84-.78a49.62,49.62,0,0,1,6.6-4.59c2.91-1.57,7.55-4.31,12.08-5.15,1.92-.36,6.63-2.07,7.33-3.08.39-.56.5-1.85-2.07-2.18,0,0,5.37-6.94,6.83-7.39,1.79,1.27,3.92-.85,2.24-2.74.22-.56,3-2.35,2.41-3.58a2.2,2.2,0,0,0-3.7-.62c-1.43,1.56-7.11,7.5-7.89,7.16a2.87,2.87,0,0,0-2.68-.11c-1.24.45-1.57,1.46-2.46,4s-1.57,3.81-3.14,3.92-.39-1.35-1.9-1.9c-1.91-.71-3.63,1.51-3.24,3.41-1.9,2.57-4.54,3.71-5.48,2.63s-.34-1.56,1.34-5.14c2.07-4.42,5.26-9.24,1.79-9.18-3,.05-5.14,8.34-5.14,8.34s-1.85-.9-3,.5.05,2.91.39,3.47-2.35,3.69-2.35,2.68,1.13-4.81-.11-5.48-3.35-.57-3.3,2.52c0,2.55.72,4.19-.95,6l-1.68,1.79s1.25-7.37,1.12-8.17a1.84,1.84,0,0,0-3.24-1c-1.57,1.34,0,10.12-5.15,8.73a3,3,0,0,1-2-2.35,3.72,3.72,0,0,0-2.07-2.52c-1.12-.68-4.53-6.44-4-8.12s2.35-3.8,4.59-3.35,3,.68,3.58.11,1-2.35-.56-2.91-2.68-.68-2.24-2.46,3-5.83,2.91-7.73c0-1.68-2.52-2.91-3.58-1-1.2,2.15-2.24,7.27-3.59,8.73a28,28,0,0,1-4.59,3.91c-.67.34-2.35-.67-2.35-.67s-2.68-1.23-1.56-3.81,0-3.59.33-4.75c.84-2.86,2.13-1.63,2.68-2.64s.11-3.35-1.79-3.13a3.42,3.42,0,0,0-3.35,3.42c-.18,1.76.11,3.41-1.12,3.74s-2.58-.61-2.24-3.13c.21-1.57-.34-2.8-.34-4s-.11-3.24-1.67-3.35-2.13.72-1.9,1.78c.18.89.78,2.92-.11,2.8s-2.46-2.8-3.7-3a3.5,3.5,0,0,0-.78,6.94c1.45.33,2.57.22,2.24.9s-1.9.78-3.25,1-2.46,1.68-1.67,2.68,2.46,1.35,4.81,1.35,3.21-.56,4.19.89,2.63,4.48,2,4.81-4.25-1.34-5.48-.45-1.57,4.93,3.69,5.15c1.91.08,6.27-.67,8.84,2.24s4.26,4.92,5.15,5.7,1.45,1.9.67,1.9-5.48-3.69-7.39-4a2.11,2.11,0,0,0-2.74,1.68c-.56,1.79,2.29,3.59,2.85,4.14s-.4,1.38.78,2.46,5.17,0,5.94,1.35,1.28,3.13.17,3.69a7.85,7.85,0,0,1-4.42.67c-2.32-.6-5.82-4.59-5.82-7.61a16.51,16.51,0,0,0-1.34-6c-.34-1.13,2.68-2.46.56-4.14-1.42-1.12-1.79.33-3.47.78s-3.23-.81-3.91.79,1.24,2.94,2.29,4.41c1.23,1.74.84,3.09-.17,3s-4.26-1.9-5.6-1.12-1.34,2.8-.11,3.24,4.7.33,5.94,1.79a11.13,11.13,0,0,1,1.84,3.3c.56,1.12-.28,4.31-.28,5.54s-.67.57-1.45-.56-3.86-1.17-3.64.9c.2,1.9.84,2.8.05,3.24s-2.38,2-2.24.78c.28-2.4-.28-4.64-2.41-4.87,0,0-.39-3.08-3.08-2.4s-3.24-1.24-3.58-1.9-.11-1.46-1-2.69c-.52-.73-1.67-.11-2.35-1s-.56-2.57-1.9-3-3-.12-2.91,1.34c.07,1.9,4.81,10.41,6.94,13.43.37.52.71,1,1.05,1.44a34,34,0,0,1-3.69,1c-1.73,0-13.84-19.14-29-16.46-8.13,1.44-18.65-3.24-28.67-1.41-7.33,1.33-13.56,11.37-20.77,15.79-3.34-4.69-7.57-14.78,7.4-24.79,0,0,3.69-2.62,14.76-6.15a16.68,16.68,0,0,1,4-.93c14.3-2.3,19.22,2.61,21.52.46,1.23-1.07-2-6-15.37-6.91-2.15-.16-4.15.76-6-.31-.93-.61-.16-2,1.69-4.46a41.6,41.6,0,0,1,7.69-6c4.15-2.3,3.23-1.38,7.07-4,5.08-3.54-1.69-10.15-8.61-2.46-4.92,5.38-12.6,8.92-16.45,11.53-1.84,1.23-4,.92-4.61-1.23-.46-1.85,1.23-3.54,3.69-6.76,3.84-5.38,6.3-8,6.45-11.38.16-1.84-5.84-1.84-10.76,6.61-.77,1.24-3.53,5.54-6.3,10.46a96.13,96.13,0,0,1-9.07,13.37c-2.46,2.92-11.53,4-7.69-5.07,2.31-5.69,4.15-7.38,7.38-9.53a17.44,17.44,0,0,0,5.23-5.38c1.84-3.08,3.69-7.23,3.07-10.61-1.23-6-9.38,5.69-9.38,5.69s-4.3,8.76-8.76,2.61,9.69-21.21,9.69-21.21,24.13-21.38,22-34.6c-1.69-10.92-12.76,10.3-16.45,17.84a8.31,8.31,0,0,1-5.53,4.61c-2.62.77-5.38.15-5.08-5.84.46-11.07-1.38-15.68-1.38-15.68s-5.38-5.38-6.45,6.61,6,20.91-4.62,30.9S491,678.89,491,678.89A27.4,27.4,0,0,1,500,662.75c8.14-7.23.76-9.07-2.92-6.15-3.23,2.46-8.15,12-9.53,14.6a11.3,11.3,0,0,1-1.54,2.15c-1.54,1.7-4.61,3.54-6.31-3.23-2.61-9.68-10.76-20.75-13.68-20s-.61,4.77,2.31,10.92c3.69,8.29,15.84,25.52,15.84,25.52s17.37,25,16.14,33.66c-.61,4.46-4.15,6.61-7.23,7.69a5.24,5.24,0,0,1-6.76-3.54,186.42,186.42,0,0,1-4.77-20.75c-1.38-8.46-3.53-11.38-5.22-12.15a1.75,1.75,0,0,0-2.46,2c1.23,5.23,4.92,21.06,3.23,26.75-2,6.76-12-5.22-12-5.22s-13.07-14-20.76-16c-5.53-1.54-2.61,2.92-.61,5.69a19.42,19.42,0,0,0,3.08,3.07c4.45,3.08,17.06,12.46,19.05,19.38,2.15,7.07-7.22,2-10,.46a4,4,0,0,0-2.3-.62c-1.54,0-3.54.62-.47,5.39,4.46,7.07,26.6,6.14,26.6,6.14s20.9-2.31,24.75,6.75c2.45,5.69-2.35,12.93-6.15,17.44a21.74,21.74,0,0,0-8.58-.48c-10,1.86-17.91,12.65-26,14.17-16.44,3.08-18.07,25.88-31.36,21.32C420,793.48,418.34,790,407,783.13s-2.84-22.34-14.18-29.17-6-16.57-17.34-23.4l-.2-.1a28.23,28.23,0,0,1,1.55-7.29c1.64-4.11,5.33-6.21,8.92-7.45s7.38-2.16,10.43-4.63a14.59,14.59,0,0,0,3.18-3.61c8.79,5.24,15-2.29,19-3.18s4.1-5.51.88-7.39-3.82,7-9.95,6.43c-3-.12-4.9-1.24-5.71-2.22,1.43-2.41,2.83-4.52,4.26-6.93,8.16-2.92,17.3-2.54,14.47-5.81-1.8-2.27-6.75-1.21-10.79,0,1.4-2.12,2.54-4,3.94-6.11,7.39-4.19,13.2-4.84,12.67-8.09-.38-2.66-3.68-2-6.75-1.22h0l3.41-5.6a21.32,21.32,0,0,0,3.36-7.05,8.47,8.47,0,0,0-1.16-7.66c-1.41-1.64-3.71-1.67-5.84-1.09-4.34,1.71-7.27,7.09-8.81,12.37-1.77,5.24-2.44,10.93-4.66,16.11-3.2,7.65-8.87,12.94-14.52,17.94-1.3,1.27-2.82,2.51-4.66,2.54-.82-4.73,0-9.53,1.45-14.24,2.38,1.19,4.74.65,8.82-.81,5-1.63,4.74-5.13-1.05-2.75-3.37,1.27-5.37.71-6.66,0,.72-2.21,1.7-4.67,2.65-6.86,3.49-.39,6.79-1.09,6.35-3.17-.28-1.48-2.35-1.48-4.68-1.22.95-2.18,1.93-4.64,2.87-6.82,3.91,0,9-.79,8.68-3.44-.45-2.08-3.74-1.38-7.08-.39.66-1.64,1.31-3.28,1.93-4.64,3.24-2.16,10.5-7.23,9-9.75-1-1.58-3.78.92-6.15,3.49,1-2.75,2-5.22,2.78-8,3.94-6.1,10.38-10.13,7.58-11.67-1.93-1.13-4.86,2.22-6.81,5.13a29.71,29.71,0,0,0-.74-7.32,1,1,0,0,0-.16-.59c2.72-1.65,7.23-4.79,6.7-8-.57-3-3.85,1.49-7.94,5a10.36,10.36,0,0,0-3.93-3.72c2.37-2.56,5.81-6.42,4.76-9.16-1-3-3.86,3.51-8.11,8.42l-.23,0a2.78,2.78,0,0,0-1.42.38,5.51,5.51,0,0,0-2.4,2.84,1.22,1.22,0,0,0-.33.83c-.23,0-.26.25-.48.22-.71-3.86-2.17-9-4.08-8.36-2.17.86.87,8.21,2.92,12.24a57.35,57.35,0,0,0-2.82,8.28c-.88-4.17-2.57-9.3-4.29-8.38-2.43,1.11,1.22,9.11,3.27,13.15a133.9,133.9,0,0,0-1.95,16.49c-.7,11.74-1,23.84-4.39,35.21-.79,2.78-2.55,6-5,5.66-.18-2.34,1.18-4.17,1.9-6.38a27.18,27.18,0,0,0,.87-7.39c0-5.78-.2-11.87-.44-17.68,2.54-4,6.06-10.43,4.12-11.56-1.51-.78-3.27,2.44-4.61,6-.31-3.21-.87-6.18-1.44-9.14,2.31-4,5.24-9.39,3.27-10.24-1.28-.75-3,2.19-4.35,5.76a57,57,0,0,0-1.85-5.74c.83-5.09,1.48-12.51-.59-12.51-1.39.1-1.76,3.23-1.9,6.39a37.38,37.38,0,0,0-3.27-5.36c-1.42-7.41.1-16.44-2.43-14.48-2.2,1.13-1.48,6.72-.75,10.28a9.38,9.38,0,0,0-1.87-1.7c-1-1-3.06-1.28-3.46.11a3,3,0,0,0,.45,2.08c2.59,5.26,5.7,10,8.52,15.31,2.6,5.26,4.9,11.07,4.61,17.39a69.45,69.45,0,0,1-2.09,11.84,170.37,170.37,0,0,0-4.92,32c-.69-3.85-.42-8.15-1.86-11.52-.51-1.51-1.47-3.09-1.27-4.79.07-.57.36-1.11.43-1.68a8.59,8.59,0,0,0,.17-3.43c2.67-3.1,7.17-14,4.56-13.25-1.2.42-3,2.19-4.42,4.31a24.94,24.94,0,0,0-1-7.35c2.57-2.25,7.95-14.8,5.07-13.75-1.91.61-4.41,4.3-6.14,7.25A19.48,19.48,0,0,1,363,654a28.52,28.52,0,0,0,1.18-4.17,26.08,26.08,0,0,0,.07-8.37c-1.1-.44-1.95.89-2.34,2.28a55.1,55.1,0,0,0-2.17,8.66c-2.32-1.76-5.51-3.93-7.38-3.61-2.59.51,3.45,7.69,6.87,9.89a19.25,19.25,0,0,0,.43,4.1,36.77,36.77,0,0,1,1.31,4.51c.76,3.28-.06,6.34-.92,9.7a9.64,9.64,0,0,0-2.24-4.35c-1.48-1.07-.19,7.48,1.06,8.52a17.41,17.41,0,0,0-.79,4.8c-.36,6.88,3.11,12.55,6.19,17.59-8.49-9.82-14.88-10.12-17.14-26,10-2.68,7-18.1,4.05-11a12,12,0,0,1-4.84,6A34.63,34.63,0,0,0,345,668c-.93-1.86,5.43-7.06,3.95-8.13a19.3,19.3,0,0,1-3.54-3.08c4.34-3.74,8.5-15.59,10-18.28,1.76-3.22,1.48-6.73-1.78-6.3-3.46.1-3.48,6.16-4.19,12.13-.47,4-4.35,5.76-6.71,6.3-.31-3.22,1.45-6.44,2.85-10.58a4.3,4.3,0,0,0,.2-1.71c3.16-5.34,7-10.59,8.55-12.11,2.57-2.25,2.33-8.06.37-10.93s-1.23.7-3.58,7a80.87,80.87,0,0,1-6,11.89,7.55,7.55,0,0,1-1.2-5.36c.63-3.38-.68-7.89-3.62-8.29a2.35,2.35,0,0,0-2.39.83,11.79,11.79,0,0,0-.56,2.8c-.94,21.53,3.69,56.25,5,60.47,1.21,3.34,3.69,5.71,5.16,8.8s1.68,7.16,7.82,13.49c4.12,4,8.4,14.43,7.43,22.67-.16,1.28-.44,2.62-.7,4-7,5.33-14.13,13.47-21.54,10.44-11.29-4.62-9.56-1.8-21.41-4.46a11.61,11.61,0,0,1-1.89-.59,1.29,1.29,0,0,0-.75-1.3,3.1,3.1,0,0,0-1.76-.11c-5.55-4.17-6-12.82-11.47-17.1a2.46,2.46,0,0,0,1.38-.9c.79-1.33-.19-3.1-1.48-2.89-1.11.18-3.44,1.5-5.21,1.47q-.82-.21-1.56-.45a14.39,14.39,0,0,1-2.51-1.69c-1-.71-1.84-3.9-2.44-5s.31-.82,1.54-.22,3.95-.84,2.75-2.54-2.1-2-1.62-2.82,1.1-2.91,1.57-1.77c.93,2.24,2.5,3.92,4.47,3.09,0,0,1.84,2.5,3.87.61s3.43-.5,4.05-.08.81,1.22,2.19,1.86c.81.38,1.52-.72,2.54-.26s1.74,2,3.13,1.71,2.64-1.34,1.89-2.58c-1-1.63-9.26-6.76-12.59-8.37s-5.66-2.36-6.22-3.59-.27-1.64,1.22-3.11,1.09-4.23,1.93-5c4.47-4.28,12.7,5.24,13.88,1.25.5-1.68-2.52-2.7-4.82-3.85s-6.3-2.78-6-4.19c.28-1.57.87-1.89.87-1.89a2.08,2.08,0,0,0,2.07-3s1.61-3.33,3.83-3,3.23.64,3.53-.55c.19-.78-.76-1.37-.38-2.41s2.45-1.94,1.58-3.5-2-.29-3.28.67a2.57,2.57,0,0,1-2.65.19,1.53,1.53,0,0,0-1.6-1.28c-1.35.11-2.56,3.91-3.22,4.79s-3,2.89-3.92,3.78-2,4.19-4,3.48-4.07-2.73-5.28-2.82a1.8,1.8,0,0,0-1.87,2.38c.55,1.23,2.31.71,2.47,2.15s-.39,3.43.37,4.8a5.29,5.29,0,0,0,1.69,2h0a10.09,10.09,0,0,1-2.82,1.83c-1.28.7-3.87,2.27-4.16,3.59,0,0-1.36-.39-2.16-3.67s-.65-6.94-1.1-8.09a1.89,1.89,0,0,0-3.27-.36c-1.05,1.35.09,8,.51,9.44s1.19,4.34.7,4.61-1.11,1-2.2-2.11-2.87-8.39-4.12-9.49.2-1.26.79-1.58,4.17-1.94,5.15-3.63.79-3.33-.72-3.83c-.94-.31-2.62,2.75-3.92,3.52-1.69,1-4.12.3-3.63-2.27.37-2,1.78-5.21.88-6.25-1.55-1.8-3.27-.93-4.36,2.87s-.62,6.94-2.51,7.22-4.06,2.38-3.53,4,1.68,1.88,3.06,1.37,1.37,1.54-.41,2.27-3.8,1.22-3.49,2.71.81,4.68,1.86,4.73l1.05.05-.55,1.08a1.83,1.83,0,0,1-1.9-1.12c-.46-1.28-1.65-5-3.34-5.31-.74-.12-2.78.52-1.45,3.37s2.6,5.85,2.48,8.6-1.38,5.37-2.38,4,.9-2.59-1-4.34c-1.39-1.28-2.74-.1-2.89-1.3s.68-5,1.52-7.63.12-3-1-3.32c-1.6-.45-2.79,1.21-3.3-.17s-1.47-3.58.31-6.36,4.8-6.63,4.78-8a2,2,0,0,0-2.89-1.51c-1.27.71-2.75,3.57-3.22,3.2s-2.23-7.13-2.4-8c-.32-1.57-2.77-1.83-3.92-.68s1,8.14,1.55,9.55a3.8,3.8,0,0,1-.63,4.1s-2.25-1.9-2.86.91c-.44,1.53,1.39,10.11.61,10.55s-2,.12-2,2c.22,2.1,1.87,1.53,2,2.37s-.44,3-1.36,3.32c-1.3.42-4.16,1.29-7.1-4.25s-2.24-6-2.48-8.39c-.22-2.26-2.87-1.7-4-.54s-1.74-1.08-2.73-1.69a2.1,2.1,0,0,0-2.83,2.34c.24,2,3.32,4.9,3.42,6.55s-.62,2-2.43,1.7-2.5,0-2.58,1.34c-.09,1.56,1.56,2.72,4.34,3.35s6.48,2.67,6.34,3.13-2.2-.43-2.32,1.8c-.09,1.55,3.89,3.09,3.55,3.41s-1.84-.77-2.7-1.19-5.64-3.61-6.88-4.45-3.9,1.25-2.82,2.67c1.74,2.28,3.42,4.54.87,4.55a25.59,25.59,0,0,1-8.59-1.16c-2.59-1-6.89-5.26-8-6.16s-3.4-3.59-5-2.59c-1.46.9-1.9,2.34-.9,3.44s5.17,4.94,4.11,4.63-3.43-1.7-4.49-1.31c-3.81,1.44-2.18,5.9-.27,5.88,1.52,0,6.18.53,6,1.39a1.61,1.61,0,0,0,.58,2.88s-2.18,3,.73,4.32,3.91-2.42,5.51-3.44,8.71-1.37,7.86-.14-3.49,2.71-2.82,4.13,2,2.47,5.06.13,7.25-3.77,7.62-2.18-1,5.65-1.45,6.82a8.71,8.71,0,0,1-2.53,4c-1.73-.11-3.34,2.07-2.11,3.34a61.5,61.5,0,0,0-3.67,5.15c-10.57,5.81-8.18,13.86-20.51,19.37-13.12,5.86-17.37-6.36-31.23-2.85s-12.35,9.34-28.15,6.89c-9.09-1.42-17.29-16-26.58-17.51-12.28-2.06-22.34-5.13-27.55-6.46-4.08-1-16.88,9.43-28.61,17.34-7,4.74-11.89,15.16-20,21.4-7.42,5.74-14.68-17.82-21.94-11.85-4.8,4-10.62,3.25-15.9,5.74v356A90.72,90.72,0,0,0,90.72,1217.31ZM646.64,781.69c.11.85-.42,1.31-.86,1.87l-.4-.31c-.43-.36-.87-.72-1.31-1.06C645.28,781,646.49,780.51,646.64,781.69Zm-252.44-157,.22,0-.26.25ZM248,732.55s2.73.78,2.72-2.48c0,0,2.48-1.05,2.61-.36s-2,4.65.16,5.93a2.44,2.44,0,0,0,2.49-.23,3.23,3.23,0,0,0,1.63,1.45,12.39,12.39,0,0,1-3.33,2.21,16.25,16.25,0,0,1-6.56,1.52c-.07-.16-.14-.32-.2-.48A10,10,0,0,1,248,732.55Zm-6.68,6.82c.57-.79,1.17-1.19,1.64-.44a8.22,8.22,0,0,1,.56,1.11C242.74,739.85,242,739.62,241.29,739.37Zm-10.44-6.26c1-1.6,1.66-4.68,2.46-3.71s3,0,3.57-1c3.14-3.71-1.85-4.18-.16-6.66s5.39-4.14,7.15-3.71,2.61,1.24,2.35,2.15-1.84,6.14-3,6.64-4.44,1.63-5.36,2.64a2.75,2.75,0,0,0-.42,3.77s-1.06,2.06-2.14,3.81a17.22,17.22,0,0,0-7.06-1.1A21.7,21.7,0,0,0,230.85,733.11Z"/><text class="cls-3" transform="translate(1199.12 18.88)">Surface Float</text><text class="cls-3" transform="translate(417.26 18.88)">Spotter Buoy</text><text class="cls-3" transform="translate(1234.5 313.52)">Surface<tspan class="cls-4" x="77.36" y="0"> </tspan><tspan class="cls-5" x="83.29" y="0">T</tspan><tspan x="94.51" y="0">emp. Sensor</tspan></text><path d="M855.63,559.63l2-.17a4.32,4.32,0,0,0,.65,1.94,3.58,3.58,0,0,0,1.58,1.22,6.07,6.07,0,0,0,2.42.47,5.72,5.72,0,0,0,2.11-.36,2.9,2.9,0,0,0,1.36-1,2.29,2.29,0,0,0,.44-1.35,2,2,0,0,0-.43-1.29,3.13,3.13,0,0,0-1.42-.93,26.22,26.22,0,0,0-2.8-.77,14.33,14.33,0,0,1-3-1,4.29,4.29,0,0,1-1.68-1.47,3.56,3.56,0,0,1-.55-2,4,4,0,0,1,.67-2.23,4.19,4.19,0,0,1,2-1.57,7.48,7.48,0,0,1,2.89-.54,7.81,7.81,0,0,1,3.09.57,4.41,4.41,0,0,1,2,1.66,4.78,4.78,0,0,1,.78,2.48l-2,.15a3.24,3.24,0,0,0-1.09-2.26,4.25,4.25,0,0,0-2.75-.76,4.41,4.41,0,0,0-2.75.69,2.07,2.07,0,0,0-.87,1.67,1.8,1.8,0,0,0,.62,1.4,8.35,8.35,0,0,0,3.14,1.12,20,20,0,0,1,3.48,1,4.76,4.76,0,0,1,2,1.6,4,4,0,0,1,.65,2.24,4.28,4.28,0,0,1-.72,2.37,4.74,4.74,0,0,1-2.07,1.73,7.23,7.23,0,0,1-3,.62,8.93,8.93,0,0,1-3.58-.63,5,5,0,0,1-2.27-1.87A5.33,5.33,0,0,1,855.63,559.63Z"/><path d="M871,564.69V553.28h1.73v1.6a4,4,0,0,1,3.46-1.86,3.78,3.78,0,0,1,2.08.53A2.8,2.8,0,0,1,879.4,555a4.11,4.11,0,0,1,3.53-2,3.5,3.5,0,0,1,2.61.94,4.06,4.06,0,0,1,.91,2.9v7.83h-1.92V557.5a5.45,5.45,0,0,0-.19-1.67,1.69,1.69,0,0,0-.68-.82,2.12,2.12,0,0,0-1.16-.31,2.67,2.67,0,0,0-2,.8,3.52,3.52,0,0,0-.8,2.56v6.63h-1.93v-7.41a3.32,3.32,0,0,0-.47-1.94,1.79,1.79,0,0,0-1.55-.64,2.76,2.76,0,0,0-1.51.43,2.37,2.37,0,0,0-1,1.25,7,7,0,0,0-.32,2.39v5.92Z"/><path d="M897,563.28a7.25,7.25,0,0,1-2.07,1.29,6,6,0,0,1-2.13.38,4.16,4.16,0,0,1-2.89-.92,3,3,0,0,1-1-2.35,3.15,3.15,0,0,1,.38-1.53,3.25,3.25,0,0,1,1-1.11,4.91,4.91,0,0,1,1.39-.64,15.23,15.23,0,0,1,1.72-.29,17.22,17.22,0,0,0,3.45-.66c0-.27,0-.44,0-.51a2.11,2.11,0,0,0-.55-1.66,3.21,3.21,0,0,0-2.2-.66,3.38,3.38,0,0,0-2,.48,2.9,2.9,0,0,0-1,1.69l-1.89-.25a4.79,4.79,0,0,1,.85-2,3.79,3.79,0,0,1,1.71-1.16,7.87,7.87,0,0,1,2.59-.4,6.81,6.81,0,0,1,2.37.35,3.15,3.15,0,0,1,1.35.86,3.22,3.22,0,0,1,.6,1.32,11.63,11.63,0,0,1,.09,1.78v2.58a27.34,27.34,0,0,0,.13,3.41,4.18,4.18,0,0,0,.49,1.37h-2A4.16,4.16,0,0,1,897,563.28Zm-.16-4.32a14,14,0,0,1-3.16.73,7.6,7.6,0,0,0-1.68.39,1.66,1.66,0,0,0-.77.63,1.63,1.63,0,0,0-.27.92,1.67,1.67,0,0,0,.59,1.29,2.53,2.53,0,0,0,1.71.51,3.94,3.94,0,0,0,2-.49,3,3,0,0,0,1.28-1.33,4.69,4.69,0,0,0,.31-1.94Z"/><path d="M902,564.69V553.28h1.74V555a4.63,4.63,0,0,1,1.23-1.6,2.14,2.14,0,0,1,1.24-.39,3.75,3.75,0,0,1,2,.63l-.67,1.79a2.74,2.74,0,0,0-1.42-.42,1.83,1.83,0,0,0-1.13.38,2.06,2.06,0,0,0-.72,1.06,7.39,7.39,0,0,0-.33,2.26v6Z"/><path d="M913.76,563l.28,1.71a7.53,7.53,0,0,1-1.46.17,3.38,3.38,0,0,1-1.64-.33,2,2,0,0,1-.81-.88,6.8,6.8,0,0,1-.24-2.28v-6.57h-1.42v-1.5h1.42v-2.82l1.92-1.17v4h2v1.5h-2v6.68a3.22,3.22,0,0,0,.11,1.06.74.74,0,0,0,.33.37,1.2,1.2,0,0,0,.66.14A6.11,6.11,0,0,0,913.76,563Z"/><path d="M922.39,564.69V548.94h3.13l3.73,11.15c.34,1,.59,1.82.75,2.33q.27-.85.84-2.52l3.77-11h2.8v15.75h-2V551.51l-4.57,13.18H929l-4.56-13.41v13.41Z"/><path d="M940,559a5.89,5.89,0,0,1,1.76-4.69,5.34,5.34,0,0,1,3.59-1.27,5.12,5.12,0,0,1,3.84,1.54,5.86,5.86,0,0,1,1.5,4.26,7.57,7.57,0,0,1-.66,3.47,4.67,4.67,0,0,1-1.93,2,5.65,5.65,0,0,1-2.75.7,5.13,5.13,0,0,1-3.87-1.54A6.11,6.11,0,0,1,940,559Zm2,0a4.86,4.86,0,0,0,1,3.29,3.09,3.09,0,0,0,2.41,1.09,3,3,0,0,0,2.39-1.1,5,5,0,0,0,1-3.34,4.73,4.73,0,0,0-1-3.21,3.19,3.19,0,0,0-4.8,0A4.8,4.8,0,0,0,942,559Z"/><path d="M952.48,559a5.86,5.86,0,0,1,1.77-4.69,5.31,5.31,0,0,1,3.58-1.27,5.16,5.16,0,0,1,3.85,1.54,5.89,5.89,0,0,1,1.49,4.26,7.57,7.57,0,0,1-.66,3.47,4.71,4.71,0,0,1-1.92,2,5.66,5.66,0,0,1-2.76.7,5.16,5.16,0,0,1-3.87-1.54A6.16,6.16,0,0,1,952.48,559Zm2,0a4.86,4.86,0,0,0,1,3.29,3.18,3.18,0,0,0,4.8,0,5,5,0,0,0,1-3.34,4.74,4.74,0,0,0-1-3.21,3.18,3.18,0,0,0-4.79,0A4.8,4.8,0,0,0,954.47,559Z"/><path d="M965.64,564.69V553.28h1.74V555a4.63,4.63,0,0,1,1.23-1.6,2.12,2.12,0,0,1,1.24-.39,3.77,3.77,0,0,1,2,.63l-.67,1.79a2.74,2.74,0,0,0-1.42-.42,1.88,1.88,0,0,0-1.14.38,2.19,2.19,0,0,0-.72,1.06,7.71,7.71,0,0,0-.32,2.26v6Z"/><path d="M973.22,551.16v-2.22h1.93v2.22Zm0,13.53V553.28h1.93v11.41Z"/><path d="M978.31,564.69V553.28h1.74v1.62a4.11,4.11,0,0,1,3.63-1.88,4.91,4.91,0,0,1,1.9.37,2.88,2.88,0,0,1,1.29,1,3.73,3.73,0,0,1,.61,1.42,11.54,11.54,0,0,1,.1,1.88v7h-1.93v-6.94a5.21,5.21,0,0,0-.23-1.77,1.81,1.81,0,0,0-.8-.93,2.46,2.46,0,0,0-1.34-.35,3.15,3.15,0,0,0-2.14.78,3.91,3.91,0,0,0-.89,3v6.23Z"/><path d="M990.41,565.63l1.88.28a1.79,1.79,0,0,0,.66,1.27,3.2,3.2,0,0,0,2,.54,3.44,3.44,0,0,0,2.07-.54,2.63,2.63,0,0,0,1-1.5,13,13,0,0,0,.14-2.48,4,4,0,0,1-3.16,1.49,4.31,4.31,0,0,1-3.64-1.7,6.53,6.53,0,0,1-1.29-4.07,7.45,7.45,0,0,1,.59-3,4.75,4.75,0,0,1,1.71-2.14A4.65,4.65,0,0,1,995,553a4.1,4.1,0,0,1,3.33,1.64v-1.38h1.78v9.86a9.4,9.4,0,0,1-.54,3.78,4,4,0,0,1-1.72,1.75,5.94,5.94,0,0,1-2.89.65,5.47,5.47,0,0,1-3.3-.92A3.12,3.12,0,0,1,990.41,565.63Zm1.61-6.85a4.93,4.93,0,0,0,.89,3.28,2.94,2.94,0,0,0,4.47,0,4.78,4.78,0,0,0,.9-3.22,4.66,4.66,0,0,0-.93-3.15,2.88,2.88,0,0,0-2.24-1.07,2.78,2.78,0,0,0-2.19,1A4.67,4.67,0,0,0,992,558.78Z"/><path d="M1021,559.17l2.08.52a7,7,0,0,1-2.35,3.92,6.52,6.52,0,0,1-4.17,1.35,7.52,7.52,0,0,1-4.14-1,6.52,6.52,0,0,1-2.43-3,10.8,10.8,0,0,1-.83-4.22,9.35,9.35,0,0,1,.94-4.29,6.45,6.45,0,0,1,2.68-2.79,7.84,7.84,0,0,1,3.82-1,6.4,6.4,0,0,1,4,1.21,6.21,6.21,0,0,1,2.24,3.38l-2.05.48a4.81,4.81,0,0,0-1.59-2.5,4.23,4.23,0,0,0-2.62-.78,5.07,5.07,0,0,0-3,.87,4.54,4.54,0,0,0-1.72,2.33,9.71,9.71,0,0,0-.49,3,9.61,9.61,0,0,0,.59,3.5,4.31,4.31,0,0,0,1.82,2.24,5,5,0,0,0,2.67.74,4.46,4.46,0,0,0,3-1A5.16,5.16,0,0,0,1021,559.17Z"/><path d="M1033.11,563.28a7.25,7.25,0,0,1-2.07,1.29,6,6,0,0,1-2.13.38A4.14,4.14,0,0,1,1026,564a3,3,0,0,1-1-2.35,3.17,3.17,0,0,1,1.38-2.64,4.79,4.79,0,0,1,1.39-.64,15.23,15.23,0,0,1,1.72-.29,17.22,17.22,0,0,0,3.45-.66c0-.27,0-.44,0-.51a2.15,2.15,0,0,0-.55-1.66,3.21,3.21,0,0,0-2.2-.66,3.44,3.44,0,0,0-2,.48,3,3,0,0,0-1,1.69l-1.89-.25a4.66,4.66,0,0,1,.85-2,3.69,3.69,0,0,1,1.71-1.16,7.83,7.83,0,0,1,2.59-.4,6.81,6.81,0,0,1,2.37.35,3,3,0,0,1,1.34.86,3.1,3.1,0,0,1,.61,1.32,11.63,11.63,0,0,1,.09,1.78v2.58a25.4,25.4,0,0,0,.13,3.41,4.39,4.39,0,0,0,.48,1.37h-2A4.16,4.16,0,0,1,1033.11,563.28ZM1033,559a14.15,14.15,0,0,1-3.16.73,7.73,7.73,0,0,0-1.69.39,1.66,1.66,0,0,0-1,1.55,1.67,1.67,0,0,0,.59,1.29,2.53,2.53,0,0,0,1.71.51,4,4,0,0,0,2-.49,3,3,0,0,0,1.28-1.33,4.86,4.86,0,0,0,.31-1.94Z"/><path d="M1039.9,564.69h-1.79V548.94H1040v5.62a3.82,3.82,0,0,1,3.13-1.54,4.69,4.69,0,0,1,2,.43,4.08,4.08,0,0,1,1.55,1.19,5.87,5.87,0,0,1,1,1.85,7.66,7.66,0,0,1,.34,2.32,6.52,6.52,0,0,1-1.45,4.54,4.54,4.54,0,0,1-3.48,1.6,3.66,3.66,0,0,1-3.17-1.69Zm0-5.79a5.92,5.92,0,0,0,.56,3,2.75,2.75,0,0,0,4.66.39A5,5,0,0,0,1046,559a5.05,5.05,0,0,0-.89-3.29,2.71,2.71,0,0,0-2.14-1.07,2.77,2.77,0,0,0-2.19,1.1A4.84,4.84,0,0,0,1039.88,558.9Z"/><path d="M1050.53,564.69V548.94h1.94v15.75Z"/><path d="M1063.49,561l2,.25a4.93,4.93,0,0,1-1.75,2.72,5.93,5.93,0,0,1-7.24-.57,6.07,6.07,0,0,1-1.46-4.33,6.3,6.3,0,0,1,1.48-4.47,5,5,0,0,1,3.85-1.59,4.85,4.85,0,0,1,3.73,1.56,6.18,6.18,0,0,1,1.45,4.38c0,.12,0,.29,0,.52H1057a4.38,4.38,0,0,0,1.06,2.88,3.19,3.19,0,0,0,2.38,1,3,3,0,0,0,1.82-.56A3.68,3.68,0,0,0,1063.49,561Zm-6.35-3.12h6.37a3.83,3.83,0,0,0-.73-2.16,2.93,2.93,0,0,0-2.39-1.12,3.08,3.08,0,0,0-2.24.89A3.55,3.55,0,0,0,1057.14,557.89Z"/><path d="M926.29,595.72a19.31,19.31,0,0,1-2.71-4.73,14.8,14.8,0,0,1-1.1-5.61,14.59,14.59,0,0,1,.82-4.89,20.6,20.6,0,0,1,3-5.42h1.39a36.08,36.08,0,0,0-1.72,3.19,17.08,17.08,0,0,0-1,3.1,17.75,17.75,0,0,0-.47,4,19.34,19.34,0,0,0,3.22,10.33Z"/><path d="M937.54,591.09v-1.44a3.54,3.54,0,0,1-3.19,1.7,4.51,4.51,0,0,1-2.51-.76,5,5,0,0,1-1.77-2.1,7.24,7.24,0,0,1-.63-3.1,8.15,8.15,0,0,1,.57-3.1,4.55,4.55,0,0,1,1.71-2.13,4.61,4.61,0,0,1,2.55-.74,3.78,3.78,0,0,1,1.83.44,3.7,3.7,0,0,1,1.31,1.13v-5.65h1.93v15.75Zm-6.11-5.7a5,5,0,0,0,.92,3.28,2.82,2.82,0,0,0,2.18,1.09,2.75,2.75,0,0,0,2.16-1,4.79,4.79,0,0,0,.88-3.16,5.37,5.37,0,0,0-.9-3.44,2.77,2.77,0,0,0-2.22-1.1,2.65,2.65,0,0,0-2.15,1.06A5.14,5.14,0,0,0,931.43,585.39Z"/><path d="M950,589.68A7.12,7.12,0,0,1,948,591a6,6,0,0,1-2.13.38,4.16,4.16,0,0,1-2.89-.92,3.06,3.06,0,0,1-1-2.35,3.15,3.15,0,0,1,.38-1.53,3.25,3.25,0,0,1,1-1.11,4.91,4.91,0,0,1,1.39-.64,15.23,15.23,0,0,1,1.72-.29,17.22,17.22,0,0,0,3.45-.66c0-.27,0-.44,0-.51a2.1,2.1,0,0,0-.55-1.66,3.21,3.21,0,0,0-2.2-.66,3.38,3.38,0,0,0-2,.48,2.9,2.9,0,0,0-1,1.69l-1.89-.26a4.85,4.85,0,0,1,.85-2,3.86,3.86,0,0,1,1.71-1.15,7.87,7.87,0,0,1,2.59-.4,6.77,6.77,0,0,1,2.37.35,3.15,3.15,0,0,1,1.35.86,3.22,3.22,0,0,1,.6,1.32,11.63,11.63,0,0,1,.09,1.78v2.58a27.34,27.34,0,0,0,.13,3.41,4.18,4.18,0,0,0,.49,1.37h-2A4.16,4.16,0,0,1,950,589.68Zm-.16-4.32a14,14,0,0,1-3.16.73,7.88,7.88,0,0,0-1.69.39,1.68,1.68,0,0,0-.76.63,1.63,1.63,0,0,0-.27.92,1.67,1.67,0,0,0,.59,1.29,2.53,2.53,0,0,0,1.71.51,3.94,3.94,0,0,0,2-.49,3,3,0,0,0,1.28-1.34,4.6,4.6,0,0,0,.31-1.93Z"/><path d="M959.27,589.36l.28,1.71a7.45,7.45,0,0,1-1.46.17,3.33,3.33,0,0,1-1.63-.33,1.92,1.92,0,0,1-.82-.88,6.88,6.88,0,0,1-.23-2.28v-6.57H954v-1.5h1.42v-2.83l1.92-1.16v4h1.94v1.5h-1.94v6.67a3.35,3.35,0,0,0,.1,1.07.79.79,0,0,0,.33.37,1.26,1.26,0,0,0,.67.14A6.11,6.11,0,0,0,959.27,589.36Z"/><path d="M968.83,589.68a7.25,7.25,0,0,1-2.07,1.29,6,6,0,0,1-2.13.38,4.14,4.14,0,0,1-2.89-.92,3,3,0,0,1-1-2.35,3.17,3.17,0,0,1,1.38-2.64,4.79,4.79,0,0,1,1.39-.64,15.23,15.23,0,0,1,1.72-.29,17.22,17.22,0,0,0,3.45-.66c0-.27,0-.44,0-.51a2.1,2.1,0,0,0-.55-1.66,3.21,3.21,0,0,0-2.2-.66,3.44,3.44,0,0,0-2,.48,3,3,0,0,0-1,1.69l-1.89-.26a4.72,4.72,0,0,1,.85-2,3.75,3.75,0,0,1,1.71-1.15,7.83,7.83,0,0,1,2.59-.4,6.81,6.81,0,0,1,2.37.35,3,3,0,0,1,1.34.86,3.1,3.1,0,0,1,.61,1.32,11.63,11.63,0,0,1,.09,1.78v2.58a25.4,25.4,0,0,0,.13,3.41,4.39,4.39,0,0,0,.48,1.37h-2A4,4,0,0,1,968.83,589.68Zm-.16-4.32a14,14,0,0,1-3.16.73,7.73,7.73,0,0,0-1.69.39,1.66,1.66,0,0,0-1,1.55,1.67,1.67,0,0,0,.59,1.29,2.53,2.53,0,0,0,1.71.51,4,4,0,0,0,2-.49,3,3,0,0,0,1.28-1.34,4.77,4.77,0,0,0,.31-1.93Z"/><path d="M984.23,588.54v-4.32H980v-1.8h4.28v-4.29h1.83v4.29h4.28v1.8h-4.28v4.32Z"/><path d="M999.57,595.46V579.68h1.76v1.48a4.41,4.41,0,0,1,1.41-1.3,3.87,3.87,0,0,1,1.9-.44,4.5,4.5,0,0,1,2.58.75,4.66,4.66,0,0,1,1.69,2.12,7.8,7.8,0,0,1,.57,3,7.61,7.61,0,0,1-.63,3.15,4.78,4.78,0,0,1-1.83,2.15,4.68,4.68,0,0,1-2.52.75,3.65,3.65,0,0,1-1.73-.41,3.9,3.9,0,0,1-1.26-1v5.55Zm1.75-10a5,5,0,0,0,.89,3.25,2.73,2.73,0,0,0,2.16,1.06,2.82,2.82,0,0,0,2.21-1.09,5.21,5.21,0,0,0,.92-3.38,5,5,0,0,0-.9-3.27,2.7,2.7,0,0,0-2.14-1.08,2.8,2.8,0,0,0-2.19,1.15A5.19,5.19,0,0,0,1001.32,585.45Z"/><path d="M1011.31,585.38a5.86,5.86,0,0,1,1.76-4.69,5.29,5.29,0,0,1,3.59-1.27,5.12,5.12,0,0,1,3.84,1.54,5.86,5.86,0,0,1,1.5,4.26,7.57,7.57,0,0,1-.66,3.47,4.73,4.73,0,0,1-1.93,2,5.65,5.65,0,0,1-2.75.7,5.17,5.17,0,0,1-3.88-1.54A6.15,6.15,0,0,1,1011.31,585.38Zm2,0a4.88,4.88,0,0,0,1,3.29,3.09,3.09,0,0,0,2.41,1.09,3,3,0,0,0,2.39-1.1,5,5,0,0,0,1-3.34,4.73,4.73,0,0,0-1-3.21,3.19,3.19,0,0,0-4.8,0A4.8,4.8,0,0,0,1013.29,585.38Z"/><path d="M1026.59,591.09l-3.49-11.41h2l1.81,6.58.68,2.45c0-.12.22-.9.59-2.35l1.81-6.68h2l1.71,6.62.57,2.18.65-2.2,2-6.6h1.88l-3.57,11.41h-2l-1.81-6.83-.44-2-2.31,8.78Z"/><path d="M1048.4,587.41l2,.25a4.93,4.93,0,0,1-1.75,2.72,5.31,5.31,0,0,1-3.27,1,5.22,5.22,0,0,1-4-1.55,6,6,0,0,1-1.46-4.32,6.3,6.3,0,0,1,1.48-4.47,5,5,0,0,1,3.84-1.59A4.86,4.86,0,0,1,1049,581a6.18,6.18,0,0,1,1.45,4.38c0,.12,0,.29,0,.52h-8.51a4.44,4.44,0,0,0,1.07,2.88,3.17,3.17,0,0,0,2.38,1,3,3,0,0,0,1.82-.56A3.68,3.68,0,0,0,1048.4,587.41Zm-6.35-3.12h6.37a3.83,3.83,0,0,0-.73-2.16,3,3,0,0,0-2.39-1.12,3.08,3.08,0,0,0-2.24.89A3.55,3.55,0,0,0,1042.05,584.29Z"/><path d="M1053,591.09V579.68h1.74v1.73a4.89,4.89,0,0,1,1.23-1.6,2.14,2.14,0,0,1,1.24-.39,3.79,3.79,0,0,1,2,.62l-.66,1.8a2.8,2.8,0,0,0-1.42-.42,1.88,1.88,0,0,0-1.14.38,2.06,2.06,0,0,0-.72,1.06,7.39,7.39,0,0,0-.32,2.26v6Z"/><path d="M1061.86,595.72h-1.39a19.42,19.42,0,0,0,3.22-10.33,17.49,17.49,0,0,0-.47-4,16.32,16.32,0,0,0-1-3.1,36.39,36.39,0,0,0-1.73-3.22h1.39a20.6,20.6,0,0,1,3,5.42,14.85,14.85,0,0,1-.29,10.5A19.62,19.62,0,0,1,1061.86,595.72Z"/><text class="cls-3" transform="translate(898.93 916.33)">Mooring <tspan class="cls-6" x="87.35" y="0">W</tspan><tspan x="107.94" y="0">eight </tspan><tspan x="17.93" y="26.4">(not provided)</tspan></text><line class="cls-7" x1="349.86" y1="81.59" x2="404.79" y2="26.65"/><line class="cls-7" x1="1133.39" y1="81.59" x2="1188.33" y2="26.65"/><line class="cls-7" x1="1171.65" y1="379.03" x2="1226.59" y2="324.09"/><text class="cls-3" transform="translate(1248.59 847.64)">Bottom<tspan class="cls-6" x="71.02" y="0"> </tspan><tspan class="cls-8" x="76.95" y="0">T</tspan><tspan x="88.17" y="0">emp. Sensor</tspan></text><line class="cls-7" x1="1185.73" y1="913.15" x2="1240.67" y2="858.22"/><line class="cls-7" x1="1116.86" y1="1007.71" x2="1061.92" y2="952.77"/><line class="cls-7" x1="1130.86" y1="649.16" x2="1075.92" y2="594.22"/><path class="cls-9" d="M261.36,149.06s25,11,25,73,13,94,50,127,80,52,139,52,214-1,296,5,100,4,120,4,48,2,88-23,96.22-76.21,119-79c28.5-3.5,51,14,52,43s2,60,1,99-12,243-12,243-6,75,1,114,26,112,29,125,7,30,7,44"/><path class="cls-10" d="M1145.43,343.22c-11.57-18.69-29.64-24.49-52.57-21.66-10.19,1.25-23.07,6.58-39.35,18.56-2.22,1.64-7.84-6.08-5.92-8.06,16.29-16.86,29.67-31.07,40.14-36.54.13,0,6.13-25,6.13-25h12s7,26,7.13,25.39c8.1,3,15.22,9.27,22.38,14.95,9.76,7.76,17.23,17.42,19.86,30.33C1155.78,343.94,1146.71,345.28,1145.43,343.22Z"/><path class="cls-10" d="M369.08,376.56a1.86,1.86,0,0,1-2.42.62c-12.8-5.62-23.71-13.08-34.8-22.62a119.92,119.92,0,0,1-27.46-34.93,1.83,1.83,0,0,1,.55-2.44l4.65-2.92a1.84,1.84,0,0,1,2.41.54c6.17,7.5,10.3,12.65,16.84,19.75,2.84,3.06,18,1,24,6,9.25,7.7.74,16.5,7,21,4.38,3.14,6.89,5.16,11.4,7.88a1.75,1.75,0,0,1,.61,2.39Z"/><circle class="cls-11" cx="349.86" cy="348.56" r="3"/><rect class="cls-12" x="333.26" y="320.06" width="12" height="18" rx="5.2" transform="translate(-130.12 273.76) rotate(-37.41)"/><rect class="cls-13" x="345.39" y="329.88" width="3.53" height="19" rx="1.77" transform="translate(-134.77 280.69) rotate(-37.41)"/><rect class="cls-12" x="316.36" y="300.35" width="12" height="18" rx="5.2" transform="translate(-123.95 288.81) rotate(-41.19)"/><rect class="cls-13" x="329.15" y="309.63" width="3.53" height="19" rx="1.77" transform="translate(-128.27 296.87) rotate(-41.19)"/><rect class="cls-12" x="300.88" y="279.51" width="12" height="18" rx="5.2" transform="translate(-110.98 235.52) rotate(-36.01)"/><rect class="cls-13" x="312.75" y="289.53" width="3.53" height="19" rx="1.77" transform="translate(-115.7 242.02) rotate(-36.01)"/><rect class="cls-12" x="293.98" y="254.43" width="12" height="18" rx="5.2" transform="translate(-46.28 64.71) rotate(-11.44)"/><rect class="cls-13" x="300.79" y="266.67" width="3.53" height="19" rx="1.77" transform="translate(-48.75 65.47) rotate(-11.44)"/><rect class="cls-12" x="293.36" y="228.41" width="12" height="18" rx="5.2"/><rect class="cls-13" x="297.59" y="240.91" width="3.53" height="19" rx="1.77"/><rect class="cls-12" x="293.36" y="202.44" width="12" height="18" rx="5.2"/><rect class="cls-13" x="297.59" y="214.94" width="3.53" height="19" rx="1.77"/><rect class="cls-12" x="293.36" y="176.46" width="12" height="18" rx="5.2"/><rect class="cls-13" x="297.59" y="188.96" width="3.53" height="19" rx="1.77"/><path class="cls-12" d="M300.15,168.49h-1.59a5.2,5.2,0,0,1-5.2-5.2V157.7h12v5.59A5.2,5.2,0,0,1,300.15,168.49Z"/><rect class="cls-13" x="297.59" y="162.99" width="3.53" height="19" rx="1.77"/><path class="cls-14" d="M266.21,158.39c-3.63-4.3-6.49-5.68-6.52-5.7a4,4,0,0,1-2-5.26,4,4,0,0,1,5.3-2c.44.2,4.5,2.09,9.35,7.83A72.41,72.41,0,0,1,266.21,158.39Z"/><polygon class="cls-10" points="326.15 76.33 309.86 76.33 309.86 79.33 289.86 79.33 289.86 76.33 272.56 76.33 268.36 82.83 330.36 82.83 326.15 76.33"/><path class="cls-15" d="M254.11,120.33h91a0,0,0,0,1,0,0v0a37,37,0,0,1-37,37h-17a37,37,0,0,1-37-37v0a0,0,0,0,1,0,0Z"/><rect class="cls-16" x="240.36" y="112.83" width="119" height="7"/><polygon class="cls-16" points="321.36 70.83 277.36 70.83 244.36 112.83 354.36 112.83 321.36 70.83"/><polygon class="cls-17" points="342.36 112.33 315.36 112.33 315.36 79.33 342.36 112.33"/><polygon class="cls-10" points="333.53 107.17 320.03 107.17 320.03 90.67 333.53 107.17"/><polygon class="cls-17" points="258.36 112.33 284.36 112.33 284.36 79.33 258.36 112.33"/><polygon class="cls-10" points="266.86 107.69 279.86 107.69 279.86 91.19 266.86 107.69"/><path class="cls-18" d="M309.63,67.83h6.45a1.27,1.27,0,0,1,1.27,1.27v1.73a0,0,0,0,1,0,0h-9a0,0,0,0,1,0,0V69.1A1.27,1.27,0,0,1,309.63,67.83Z"/><line class="cls-19" x1="1099.86" y1="270.56" x2="1099.86" y2="171.56"/><circle class="cls-20" cx="1099.36" cy="125.06" r="41.5"/><path class="cls-21" d="M1088.86,165.56v4.31a1.69,1.69,0,0,0,1.68,1.69h17.63a1.69,1.69,0,0,0,1.69-1.69v-4.31"/><rect class="cls-10" x="1141.86" y="377.56" width="19" height="31" rx="9.5"/><rect class="cls-10" x="1158.09" y="911.88" width="19" height="31" rx="9.5" transform="translate(-188.16 306.7) rotate(-13.86)"/><path class="cls-22" d="M1215.51,978.56H1138.2a5.44,5.44,0,0,0-5.3,4.23l-15.55,69.14a5.43,5.43,0,0,0,5.29,6.63h108.43a5.44,5.44,0,0,0,5.3-6.63l-15.56-69.14A5.44,5.44,0,0,0,1215.51,978.56Z"/><path class="cls-23" d="M1158.33,420.3s-.39,3.14-3.33,3.74-2.55-2.54-5.49-2-4.15,4-4.15,4v9s1.21-3.37,4.15-4,2.56,2.55,5.49,2,3.33-3.74,3.33-3.74Z"/><path class="cls-24" d="M1145.36,426.06s1.21-3.37,4.15-4,2.56,2.55,5.49,2,3.33-3.74,3.33-3.74"/><path class="cls-24" d="M1145.36,435.06s1.21-3.37,4.15-4,2.56,2.55,5.49,2,3.33-3.74,3.33-3.74"/><path class="cls-25" d="M1149,819.3s.16,3.16-2.64,4.25-2.95-2.07-5.75-1-3.42,4.61-3.42,4.61l1.53,8.87s.63-3.52,3.42-4.61,3,2.07,5.75,1,2.64-4.25,2.64-4.25Z"/><path class="cls-24" d="M1137.17,827.18s.63-3.52,3.42-4.61,3,2.07,5.75,1,2.64-4.25,2.64-4.25"/><path class="cls-24" d="M1138.7,836.05s.63-3.52,3.42-4.61,3,2.07,5.75,1,2.64-4.25,2.64-4.25"/></g></g></svg>