<svg xmlns="http://www.w3.org/2000/svg" xmlns:xlink="http://www.w3.org/1999/xlink" viewBox="0 0 1175.46 657.19"><defs><style>.cls-1,.cls-11,.cls-12,.cls-13,.cls-14,.cls-18,.cls-20,.cls-21,.cls-22,.cls-23,.cls-24,.cls-25,.cls-28,.cls-29,.cls-30,.cls-33{fill:none;}.cls-2,.cls-5,.cls-8{font-size:18px;font-family:ArialMT, Arial;}.cls-2{letter-spacing:-0.1em;}.cls-3{letter-spacing:0.01em;}.cls-4,.cls-5,.cls-8{letter-spacing:0.01em;}.cls-6{letter-spacing:-0.01em;}.cls-7{letter-spacing:-0.05em;}.cls-16,.cls-34,.cls-8{fill:#168dbd;}.cls-9{clip-path:url(#clip-path);}.cls-10{opacity:0.45;}.cls-11,.cls-17,.cls-18,.cls-19,.cls-20,.cls-21,.cls-22,.cls-25,.cls-33{stroke:#168dbd;}.cls-11,.cls-12,.cls-13,.cls-14,.cls-17,.cls-18,.cls-19,.cls-20,.cls-21,.cls-22,.cls-23,.cls-24,.cls-25,.cls-28,.cls-29,.cls-30,.cls-33{stroke-miterlimit:10;}.cls-11,.cls-13,.cls-14{stroke-width:1.8px;}.cls-12{stroke:#fff;stroke-width:10.81px;}.cls-13,.cls-14,.cls-23,.cls-24,.cls-28,.cls-29,.cls-30{stroke:#149ec5;}.cls-14{stroke-dasharray:5.33 5.33;}.cls-15{fill:#149ec5;}.cls-17,.cls-19,.cls-31{fill:#fff;}.cls-17{fill-opacity:0.6;}.cls-17,.cls-18,.cls-25{stroke-width:1.61px;}.cls-19{stroke-width:0.82px;}.cls-20{stroke-width:0.81px;}.cls-21{stroke-width:1.6px;}.cls-22,.cls-23,.cls-24{stroke-width:2px;}.cls-24{stroke-dasharray:6.12 6.12;}.cls-25{opacity:0.2;}.cls-26,.cls-27{fill:#ccc;}.cls-26{fill-rule:evenodd;}.cls-28,.cls-29{stroke-width:2.66px;}.cls-29{stroke-dasharray:7.98 7.98;}.cls-30{stroke-width:2.19px;}.cls-32{clip-path:url(#clip-path-2);}.cls-33{stroke-width:1.66px;}.cls-34{opacity:0.5;}</style><clipPath id="clip-path"><path class="cls-1" d="M399.9,159.67,348.15,79.78s-166.68,177.5-167.9,178.81Z"/></clipPath><clipPath id="clip-path-2"><path class="cls-1" d="M642.09,270.62,700.59,205,500.32,99.17Z"/></clipPath></defs><g id="Layer_2" data-name="Layer 2"><g id="Layer_1-2" data-name="Layer 1"><text class="cls-2" transform="translate(9.11 569.88)">T<tspan class="cls-3" x="9.18" y="0">emperature </tspan><tspan class="cls-4"><tspan x="22.46" y="21.6">Sensor</tspan></tspan></text><text class="cls-5" transform="translate(1036.49 153.18)">User uploads <tspan x="0" y="21.6">images/video </tspan><tspan x="-16.63" y="43.2">through </tspan><tspan class="cls-6" x="50.86" y="43.2">W</tspan><tspan class="cls-3" x="67.71" y="43.2">eb</tspan><tspan class="cls-7" x="88.09" y="43.2"> </tspan><tspan class="cls-3" x="92.28" y="43.2">App</tspan></text><text class="cls-5" transform="translate(467.6 507.24)">User surveys <tspan x="3.39" y="21.6">reef location</tspan></text><text class="cls-5" transform="translate(41.01 236.3)">Smart Buoy</text><text class="cls-8" transform="translate(220.68 153.34)">Data</text><text class="cls-5" transform="translate(680.7 342.51)">Cloud Server</text><text class="cls-5" transform="translate(370.85 16.24)">Satellite</text></g><g id="Layer_2-2" data-name="Layer 2"><g class="cls-9"><g class="cls-10"><path class="cls-11" d="M395.9,179.6a235.62,235.62,0,0,0-75.3-101"/><path class="cls-11" d="M304.23,99.21a209.4,209.4,0,0,1,67.19,89.94"/><path class="cls-11" d="M346.94,198.7a183.2,183.2,0,0,0-59.09-78.92"/><path class="cls-11" d="M271.48,140.34a157.1,157.1,0,0,1,51,67.91"/><path class="cls-11" d="M298,217.81a130.84,130.84,0,0,0-42.89-56.9"/><path class="cls-11" d="M238.38,181.2a104.05,104.05,0,0,1,35.12,46.16"/><path class="cls-11" d="M249,236.91a78.58,78.58,0,0,0-26.68-34.85"/><path class="cls-11" d="M206,222.65a52.24,52.24,0,0,1,18.58,23.81"/><path class="cls-11" d="M189.52,243.28a25.5,25.5,0,0,0-3.39-1.79"/><path class="cls-11" d="M200.05,256a26.1,26.1,0,0,0-10.53-12.73"/></g></g><line class="cls-12" x1="186.18" y1="254.67" x2="385.91" y2="111.75"/><line class="cls-13" x1="186.18" y1="254.67" x2="188.38" y2="253.1"/><line class="cls-14" x1="192.71" y1="249.99" x2="372.71" y2="121.2"/><line class="cls-13" x1="374.87" y1="119.65" x2="377.07" y2="118.08"/><path class="cls-15" d="M385.91,111.75c-3.05,4.52-6.33,10.85-7.53,15.93l-2.47-8.77-7.5-5.16C373.6,114.25,380.65,113.19,385.91,111.75Z"/><polygon class="cls-16" points="159.72 261.02 146.57 261.02 146.57 263.44 130.43 263.44 130.43 261.02 116.48 261.02 113.08 266.26 163.11 266.26 159.72 261.02"/><path class="cls-17" d="M101.8,300.06a29.52,29.52,0,0,1-.21-3.54H175a29.77,29.77,0,0,1-2,10.88"/><rect class="cls-18" x="90.49" y="290.47" width="96.01" height="5.65"/><polygon class="cls-18" points="155.85 256.58 120.35 256.58 93.72 290.47 182.47 290.47 155.85 256.58"/><polygon class="cls-19" points="172.79 290.06 151.01 290.06 151.01 263.44 172.79 290.06"/><polygon class="cls-16" points="165.67 285.9 154.78 285.9 154.78 272.59 165.67 285.9"/><polygon class="cls-19" points="105.02 290.06 125.99 290.06 125.99 263.44 105.02 290.06"/><polygon class="cls-16" points="111.88 286.32 122.36 286.32 122.36 273.01 111.88 286.32"/><path class="cls-20" d="M146.63,254.16h4.71a1.27,1.27,0,0,1,1.27,1.27v1.15a0,0,0,0,1,0,0h-7.26a0,0,0,0,1,0,0v-1.15A1.27,1.27,0,0,1,146.63,254.16Z"/><path class="cls-21" d="M170.93,307.4a24,24,0,0,0,5.62.61c13.18,0,13.18-8.25,26.36-8.25S216.09,308,229.27,308"/><path class="cls-21" d="M100.69,299.94c10.07,1.21,11.14,8.07,23.15,8.07,13.18,0,13.18-8.25,26.35-8.25,11,0,12.82,5.73,20.74,7.64"/><path class="cls-21" d="M44.77,299.76C58,299.76,58,308,71.12,308s13.18-8.25,26.36-8.25a26.39,26.39,0,0,1,3.21.18"/><path class="cls-16" d="M158.39,615.88H119.32a2.75,2.75,0,0,0-2.68,2.14L108.78,653a2.75,2.75,0,0,0,2.68,3.34h54.79a2.75,2.75,0,0,0,2.68-3.34L161.07,618A2.75,2.75,0,0,0,158.39,615.88Z"/><line class="cls-22" x1="138.85" y1="620.59" x2="138.85" y2="325.21"/><line class="cls-23" x1="1012.88" y1="280.44" x2="1009.88" y2="280.44"/><line class="cls-24" x1="1003.76" y1="280.44" x2="835.35" y2="280.44"/><line class="cls-23" x1="832.29" y1="280.44" x2="829.29" y2="280.44"/><path class="cls-15" d="M817.22,280.44c5.67-2.1,12.72-5.7,17.09-9.51l-3.44,9.51,3.44,9.51C829.94,286.14,822.89,282.55,817.22,280.44Z"/><path class="cls-25" d="M172.32,307.7a29.86,29.86,0,0,1-27.16,17.46H131.44a29.86,29.86,0,0,1-29.46-25"/><path class="cls-26" d="M365.71,603l-20.46.64a8.77,8.77,0,0,1-6.8-2.91l-21.1-23.54a8.73,8.73,0,0,0-5.58-2.87l-27.63,2.63a8.76,8.76,0,0,1-5.76-3.07l-7.5-8.9a8.75,8.75,0,0,0-12.8-.64l-17.55,17a8.84,8.84,0,0,0-1.45,1.84L226.18,634a9.06,9.06,0,0,1-.93,1.3L214,657.19H424.87c-17.33-5.83-12.61-7.44-16.05-13.34h0a8.86,8.86,0,0,0-4.31-3.73l-13-5.24a8.75,8.75,0,0,1-4.35-3.81L373.6,607.38A8.75,8.75,0,0,0,365.71,603Z"/><path class="cls-27" d="M364.48,547.94v-.13h.11Zm16,21.86L382,567a9.86,9.86,0,0,0,1.48-3.51,3.78,3.78,0,0,0-.9-3.62,3.07,3.07,0,0,0-3.08-.29c-2.2,1-3.52,3.68-4.13,6.26s-.86,5.33-1.82,7.9c-1.37,3.78-4.13,6.53-6.89,9.15a3.89,3.89,0,0,1-2.33,1.4,13.37,13.37,0,0,1,.21-6.87c1.29.47,2.5.12,4.57-.74,2.56-1,2.28-2.64-.65-1.27a4.1,4.1,0,0,1-3.47.24c.29-1.09.71-2.3,1.12-3.39,1.81-.32,3.5-.78,3.19-1.76-.2-.7-1.28-.62-2.49-.4.42-1.08.83-2.3,1.24-3.38,2-.17,4.69-.73,4.4-2-.31-1-2-.52-3.71.09.28-.82.56-1.63.83-2.3,1.61-1.16,5.2-3.87,4.31-5-.57-.71-1.94.59-3.08,1.91.42-1.35.84-2.57,1.15-3.93,1.82-3.08,5-5.26,3.51-5.88-1.05-.47-2.45,1.25-3.36,2.72a13.2,13.2,0,0,0-.66-3.47.46.46,0,0,0-.11-.28c1.36-.9,3.59-2.58,3.19-4.11s-1.95.86-3.95,2.69a5.28,5.28,0,0,0-2.19-1.62c1.14-1.32,2.79-3.3,2.14-4.57s-1.88,1.83-3.92,4.34h-.11a1.5,1.5,0,0,0-.73.24,2.75,2.75,0,0,0-1.15,1.45.6.6,0,0,0-.14.41c-.11,0-.12.13-.24.12-.51-1.82-1.47-4.2-2.44-3.84s.76,3.9,2,5.75a25.27,25.27,0,0,0-1.15,4.07c-.62-2-1.7-4.35-2.56-3.85-1.22.63,1,4.32,2.2,6.17a60.61,60.61,0,0,0-.39,8c.08,5.64.39,11.44-1,17-.31,1.36-1.1,3-2.41,2.9-.19-1.11.46-2,.75-3.13a12.07,12.07,0,0,0,.17-3.57c-.22-2.76-.55-5.67-.9-8.44,1.18-2,2.77-5.23,1.72-5.69-.82-.32-1.62,1.3-2.18,3.06a43.93,43.93,0,0,0-1.1-4.32c1.05-2,2.38-4.7,1.32-5-.7-.31-1.49,1.17-2.05,2.93a28.41,28.41,0,0,0-1.18-2.68c.24-2.47.29-6-.78-6-.72.1-.8,1.61-.75,3.13a18.26,18.26,0,0,0-1.91-2.43c-1-3.49-.57-7.87-1.82-6.84-1.1.63-.51,3.28,0,5a5.14,5.14,0,0,0-1-.74c-.57-.44-1.64-.49-1.8.19a1.34,1.34,0,0,0,.31,1c1.56,2.42,3.36,4.57,5,7s3,5.1,3.06,8.14a31.83,31.83,0,0,1-.64,5.74,74.81,74.81,0,0,0-1.36,15.49c-.51-1.82-.52-3.88-1.4-5.44a5,5,0,0,1-.85-2.24c0-.28.15-.55.16-.82a3.83,3.83,0,0,0,0-1.65c1.27-1.59,3.21-7,1.88-6.52a5.92,5.92,0,0,0-2.14,2.24,11,11,0,0,0-.79-3.48c1.25-1.18,3.59-7.39,2.13-6.78-1,.37-2.14,2.23-2.93,3.71a8.7,8.7,0,0,1-.12-2.49,10.51,10.51,0,0,0,.18-6c-.59-.17-1,.5-1.13,1.18a23.47,23.47,0,0,0-.8,4.23c-1.28-.76-3-1.67-4-1.44-1.33.35,2.09,3.54,4,4.46a8.13,8.13,0,0,0,.38,2,16.92,16.92,0,0,1,.85,2.11,8.84,8.84,0,0,1-.11,4.67,4.6,4.6,0,0,0-1.33-2c-.82-.46.18,3.58.87,4a7.66,7.66,0,0,0-.23,2.33c.07,3.31,2.1,5.88,3.89,8.18-4.79-4.37-8.14-4.26-9.92-11.78,5.09-1.68,2.94-8.94,1.7-5.42a5.93,5.93,0,0,1-2.3,3,17.56,17.56,0,0,0-.85-2.11c-.56-.85,2.56-3.59,1.75-4a9.59,9.59,0,0,1-2-1.34c2.12-2,3.84-7.79,4.5-9.13.8-1.61.52-3.28-1.17-2.95-1.79.18-1.58,3.09-1.72,6-.09,1.92-2.05,2.92-3.26,3.28-.29-1.53.51-3.14,1.09-5.18.13-.27,0-.55,0-.82a36.65,36.65,0,0,1,4-6.13c1.25-1.18.91-4-.22-5.25s-.62.39-1.61,3.5a37.28,37.28,0,0,1-2.67,5.92,3.4,3.4,0,0,1-.84-2.51c.2-1.64-.65-3.75-2.19-3.83a1.31,1.31,0,0,0-1.22.49,5.39,5.39,0,0,0-.19,1.37c.33,10.34,4.06,26.76,4.91,28.73.76,1.56,2.14,2.59,3,4s1.14,3.36,4.59,6.15a14.61,14.61,0,0,1,4.73,10.56c-.1,2.06-.94,4.49.29,6.07.79,1,2.22,1.07,3.41,1.13a3.24,3.24,0,0,0,2.91-3.43c-.05-1.24-.11-2.49-.05-3.72a13,13,0,0,1,.54-3.69c.69-2,2.54-3.17,4.37-3.91a17.54,17.54,0,0,0,5.26-2.63,7.05,7.05,0,0,0,1.52-1.85c4.78,2.17,7.72-1.68,9.77-2.26s1.93-2.8.18-3.57-1.73,3.49-4.94,3.47a4.32,4.32,0,0,1-3.06-.84c.65-1.21,1.3-2.28,2-3.48,4.14-1.73,8.92-1.9,7.32-3.35-1-1-3.56-.32-5.63.4.65-1.07,1.18-2,1.82-3.07,3.7-2.3,6.71-2.84,6.3-4.37-.3-1.26-2-.79-3.56-.32Z"/><path class="cls-27" d="M309,582.07s-.86-14.78,0-14.78,5.74-3.57,6.83-4.46,3.57-2.43,2.7-3.32-3.13,2.17-4,1.53.87-4.46,4.87-5.1c0,0,5-4.58,3.68-6.11s-2.49.89-2.81,1.4-.55,2.17-.87,1,.65-2.68,1-3.83,1.52-2.76.44-3-1.09,0-1.41,1.19-1.19,2.93-1.52,3.82-3.46,5.74-3.68,5.23,1.08-3.32.76-4.08-1.76-1.35-2.82,6.63l-.43,2.93-2.49,2.56s-1.73,2.41.11-7.91c0,0,10.5-15.42,11.8-15.3,0,0,6.17-4.84,4.87-7.14,0,0-.43-1.78-2.71,2.17,0,0-2.27,2.3-1.08-1.14,0,0,2.28-5,1.3-5.61,0,0-1.84-1.4-3.14,6.76,0,0-.87,3.69-1.84,4.07,0,0-1.73,3.83,0-3.31,0,0,1.08-3.31,0-3.44,0,0-.65-2.81-3.14,9.17,0,0,.41-1.9-.77,3.15-1.26,1.18-5.08,5.34-5.08,5.77s-1.62-2.93-.1-7.64c0,0,2.16-6.63,3.13-9.18,0,0,2.6-1.91,6.83-7.39,0,0,5.19-7.14,5.3-8.29,0,0,1.74-3.31.22-2.67,0,0-2.6,4-3.25,4.33,0,0-1.95,2.55-.86-.89,0,0,1.73-4.85,1.29-5.35,0,0-1.19-1.66-2.16,2.29a28.46,28.46,0,0,0-1.41,8s-3.25,5.86-4,5.61c0,0-1.51.07.87-16.28,0,0,3.56-3.74,1.94-4.88,0,0-.64-1.15-1.83.89,0,0-.54,2-1-2.8,0,0-1.62-3.06-1.51,4.71,0,0,.11,10.32-.76,11.22,0,0-.32,2.54-1.3-2.55,0,0,.76-5.87-.43-5.74a1.58,1.58,0,0,0-1.08,1.66s0,1.65-.33,1.4c0,0-3.68-5.74-4-5.35,0,0-1.95.89,0,3.82a35.38,35.38,0,0,1,5.52,8.29,9.21,9.21,0,0,1,1.19,4.71s-3.58,11.09-4,11.85c0,0,.54,3.83-2.27-1.27,0,0-1.52-.77-1.3-3.32,0,0-1.2-1.27,2.6-6.62,0,0,1.73-1.28-.44-1.28,0,0-1.84,2.68-1.29-1.52,0,0,.29-3.06-1.05-.9a61.26,61.26,0,0,0-1.23,6.25s-.32,4.71-1,.76c0,0-2.71-4.33-2.49-7.65,0,0-.76-2.16-1.62-2.42,0,0-1,.9-.54,3.83,0,0,3.14,8.79,4,9.68a47.88,47.88,0,0,0,4.66,7.8s1.73,1.51,1.19,10.3c0,0,.54,4.85-1.52,2,0,0-3.46-4.33-3.79-8,0,0,.65-4.16-.65-4.31,0,0-.75-1.38-.75,1.34a11.54,11.54,0,0,0,1,8.07s4.55,8.41,4.66,9.43c0,0-.22,11.72.32,12.49,0,0,.21,5.73.1,6.62s2.6,0,2.6,0Z"/><path class="cls-27" d="M412.5,610.09a27.28,27.28,0,0,0,7.42-4s4.34-2.38,6.42-2.38c0,0,4.17-1.33,11.12-.42a48.2,48.2,0,0,0,6,.55s3.56-1.4,4.33-2.52a3,3,0,0,1-.65,1.54,10.75,10.75,0,0,0-1.25,2.1s-.35,3.71-1.25,4.34a1.58,1.58,0,0,0,1.19.77s1.13,1.13,2.86-2.1c0,0,1.72-4.06,3.74-3.92,0,0,2.08.08,2.43,1a1,1,0,0,0-.89.07s-.59-.09-.53.68c0,0,.35,1.55-2.15,5.75a7.93,7.93,0,0,1-1,2s-.65.28.3,3.22c0,0,.84,1.19,1.13,4.62,0,0,.42,2.17,1.31,2.8l.54.63a5.49,5.49,0,0,1-3.57-1.19s-1.85-.35-4.58-6.57c0,0-1.72.9-1.84.63,0,0-.3.91-.48,1a1.91,1.91,0,0,0,.84,1s.17.36-.6.64c0,0-2.43,2.1-7.55-.07a.74.74,0,0,1-.59.7,11.81,11.81,0,0,0-1.49.48c-.18.15-2,.7-2.73.15,0,0-.18-.78-2.26-.7,0,0-4.87-.35-6.13-1a10.94,10.94,0,0,1-4.87-2.94s-4.1-4.06-4.1-4.83,1.49.21,1.6.38a8.77,8.77,0,0,1-2.07-1.64l-.59-.7Z"/><path class="cls-27" d="M392.24,548a11.48,11.48,0,0,0,3-1.62,8.39,8.39,0,0,1,2.61-1,11.37,11.37,0,0,1,4.52-.17,21.66,21.66,0,0,0,2.42.23,5.73,5.73,0,0,0,1.76-1,1.22,1.22,0,0,1-.26.63,4.15,4.15,0,0,0-.51.85s-.14,1.51-.51,1.76a.64.64,0,0,0,.48.32s.46.45,1.16-.85c0,0,.7-1.66,1.52-1.6,0,0,.85,0,1,.4a.42.42,0,0,0-.36,0s-.24,0-.22.28c0,0,.15.63-.87,2.34a3.33,3.33,0,0,1-.41.82s-.26.12.12,1.31a4.25,4.25,0,0,1,.46,1.88s.17.88.53,1.13l.22.26a2.23,2.23,0,0,1-1.45-.48s-.75-.15-1.86-2.68c0,0-.7.38-.75.26s-.12.37-.19.4a.74.74,0,0,0,.34.39s.07.15-.25.26c0,0-1,.85-3.06,0a.3.3,0,0,1-.24.29,3.8,3.8,0,0,0-.6.2c-.08,0-.83.28-1.12,0,0,0-.07-.31-.92-.28a10.45,10.45,0,0,1-2.49-.43,4.54,4.54,0,0,1-2-1.19s-1.67-1.65-1.67-2,.61.08.66.15a3.26,3.26,0,0,1-.85-.67l-.24-.28Z"/><path class="cls-27" d="M394.21,583.64a3.68,3.68,0,0,0,1-.55,2.86,2.86,0,0,1,.89-.33,3.8,3.8,0,0,1,1.55-.06,6.85,6.85,0,0,0,.83.08,2.11,2.11,0,0,0,.6-.35.48.48,0,0,1-.09.21,1.73,1.73,0,0,0-.18.29s0,.52-.17.61a.22.22,0,0,0,.16.1s.16.16.4-.29c0,0,.24-.56.52-.55,0,0,.29,0,.34.15a.12.12,0,0,0-.12,0,.07.07,0,0,0-.08.09s.05.22-.3.81a1,1,0,0,1-.14.28s-.09,0,0,.45a1.41,1.41,0,0,1,.16.64.83.83,0,0,0,.18.39l.08.09a.77.77,0,0,1-.5-.17s-.26,0-.64-.91c0,0-.24.13-.25.08s0,.14-.07.14a.26.26,0,0,0,.12.14s0,0-.09.09-.34.29-1.05,0a.11.11,0,0,1-.08.1,1.43,1.43,0,0,0-.21.06s-.28.1-.38,0,0-.11-.31-.09a3.67,3.67,0,0,1-.86-.15,1.57,1.57,0,0,1-.68-.41,4,4,0,0,1-.57-.67c0-.11.21,0,.23.05s-.21-.13-.29-.23l-.07-.1Z"/><path class="cls-27" d="M398.77,607.07a3.8,3.8,0,0,0,1-.55,2.86,2.86,0,0,1,.89-.33,3.8,3.8,0,0,1,1.55-.06,6.66,6.66,0,0,0,.82.08,1.86,1.86,0,0,0,.6-.36.39.39,0,0,1-.09.22,1.37,1.37,0,0,0-.17.29s-.05.52-.18.61a.25.25,0,0,0,.17.1s.15.16.39-.29c0,0,.25-.56.53-.55,0,0,.29,0,.34.14a.15.15,0,0,0-.13,0s-.08,0-.08.09.05.22-.29.81a1.4,1.4,0,0,1-.14.28s-.1,0,0,.45a1.53,1.53,0,0,1,.15.64s.06.3.19.39l.07.09a.77.77,0,0,1-.5-.17s-.25,0-.63-.91c0,0-.24.13-.26.08s0,.14-.07.14a.26.26,0,0,0,.12.14s0,.05-.08.09-.34.29-1.05,0a.11.11,0,0,1-.09.1,1.08,1.08,0,0,0-.2.06s-.28.1-.39,0,0-.11-.31-.1a3.41,3.41,0,0,1-.85-.14,1.51,1.51,0,0,1-.68-.41,4,4,0,0,1-.57-.67c0-.11.21,0,.22,0a1.3,1.3,0,0,1-.29-.23l-.07-.1Z"/><path class="cls-27" d="M422.43,585.41a18,18,0,0,0,4.8-2.58s2.8-1.54,4.14-1.54a18,18,0,0,1,7.18-.27,32.51,32.51,0,0,0,3.84.36s2.31-.9,2.81-1.63a2.06,2.06,0,0,1-.42,1,7.22,7.22,0,0,0-.81,1.35s-.23,2.4-.81,2.81a1,1,0,0,0,.77.5s.73.72,1.85-1.36c0,0,1.11-2.62,2.42-2.53,0,0,1.34.05,1.57.64a.63.63,0,0,0-.57,0s-.39-.05-.35.45c0,0,.24,1-1.38,3.71a5.19,5.19,0,0,1-.66,1.32s-.41.17.2,2.07a6.81,6.81,0,0,1,.72,3s.28,1.4.85,1.8l.34.41a3.51,3.51,0,0,1-2.3-.77s-1.19-.22-2.95-4.25c0,0-1.12.59-1.2.41,0,0-.19.59-.3.63a1.24,1.24,0,0,0,.54.64s.11.22-.39.41c0,0-1.57,1.35-4.88,0a.48.48,0,0,1-.38.45,7.12,7.12,0,0,0-1,.32c-.12.09-1.31.45-1.77.09,0,0-.12-.5-1.46-.45a17.15,17.15,0,0,1-4-.68,7.18,7.18,0,0,1-3.15-1.89s-2.65-2.63-2.65-3.12,1,.13,1,.25a5.92,5.92,0,0,1-1.34-1.07l-.38-.46Z"/><path class="cls-27" d="M403.33,575.63a7.92,7.92,0,0,0,2.07-1.12,5.85,5.85,0,0,1,1.8-.67,7.93,7.93,0,0,1,3.12-.12,13.7,13.7,0,0,0,1.66.16,3.89,3.89,0,0,0,1.21-.7.86.86,0,0,1-.18.43,3.15,3.15,0,0,0-.35.59s-.1,1-.35,1.21a.49.49,0,0,0,.33.22s.32.31.8-.59c0,0,.49-1.14,1.05-1.1,0,0,.58,0,.68.27a.31.31,0,0,0-.25,0s-.16,0-.14.2c0,0,.1.43-.6,1.61a2.13,2.13,0,0,1-.29.57s-.18.08.09.9a3,3,0,0,1,.32,1.29s.11.61.36.78l.15.18a1.55,1.55,0,0,1-1-.33s-.52-.1-1.29-1.85c0,0-.48.26-.51.18s-.08.25-.13.27.08.22.23.27c0,0,.05.1-.17.18,0,0-.68.58-2.11,0a.2.2,0,0,1-.17.19,2.86,2.86,0,0,0-.41.14c-.05,0-.57.19-.77,0,0,0-.05-.21-.63-.19a7.11,7.11,0,0,1-1.71-.3,3,3,0,0,1-1.37-.82s-1.15-1.14-1.15-1.35.42.06.45.11a2.6,2.6,0,0,1-.58-.46l-.16-.18Z"/><path class="cls-27" d="M255.68,568.81s6.3-5.7-2.07-11.35a24.57,24.57,0,0,0-6.05-2.53,6.69,6.69,0,0,0-1.63-.39c-5.86-.95-7.87,1.08-8.82.19-.5-.44.82-2.47,6.3-2.85.88-.06,1.7.32,2.45-.13.38-.25.07-.82-.69-1.83a17.12,17.12,0,0,0-3.15-2.48,21.56,21.56,0,0,1-2.9-1.65c-2.07-1.45.7-4.18,3.53-1,2,2.22,5.16,3.68,6.73,4.76.76.5,1.64.38,1.89-.51s-.5-1.46-1.51-2.79c-1.57-2.22-2.58-3.3-2.64-4.69-.06-.76,2.39-.76,4.41,2.72.31.51,1.44,2.29,2.58,4.32a39.93,39.93,0,0,0,3.71,5.51c1,1.21,4.72,1.65,3.15-2.09a7,7,0,0,0-3-3.93,7.93,7.93,0,0,1-3.4-6.6c.5-2.47,3.84,2.35,3.84,2.35s1.76,3.61,3.59,1.08-4-8.75-4-8.75-9.88-8.82-9-14.28c.7-4.5,5.23,4.25,6.74,7.36a3.41,3.41,0,0,0,2.26,1.9c1.07.32,2.21.07,2.08-2.41-.19-4.56.57-6.46.57-6.46s2.2-2.22,2.64,2.72-2.45,8.63,1.89,12.75,4.78-5.26,4.78-5.26a11.37,11.37,0,0,0-3.71-6.66c-3.34-3-.31-3.74,1.2-2.54,1.32,1,3.33,5,3.9,6a4.68,4.68,0,0,0,.63.88c.63.7,1.89,1.46,2.58-1.33,1.07-4,4.4-8.56,5.6-8.24s.25,2-.94,4.5c-1.51,3.42-6.49,10.53-6.49,10.53s-7.11,10.33-6.61,13.89a4,4,0,0,0,3,3.17,2.15,2.15,0,0,0,2.77-1.46,77.07,77.07,0,0,0,1.95-8.56c.57-3.49,1.45-4.7,2.14-5a.71.71,0,0,1,1,.82c-.51,2.16-2,8.69-1.32,11,.81,2.78,4.91-2.16,4.91-2.16s5.35-5.77,8.49-6.59c2.27-.64,1.07,1.2.25,2.34A7.53,7.53,0,0,1,288,544.4c-1.83,1.27-7,5.14-7.81,8s3,.83,4.09.19a1.63,1.63,0,0,1,.95-.25c.63,0,1.44.25.19,2.22-1.83,2.92-10.89,2.54-10.89,2.54s-8.56-1-10.14,2.78,4.16,8.94,4.16,8.94Z"/><line class="cls-28" x1="620.82" y1="603.8" x2="624.81" y2="603.8"/><path class="cls-29" d="M632.79,603.8h419.5c23.83,0,43.15-8.08,43.15-18L1093.54,357"/><line class="cls-28" x1="1093.51" y1="352.99" x2="1093.47" y2="349"/><path class="cls-15" d="M1093.34,333c2.86,7.53,7.72,16.85,12.83,22.61l-12.68-4.46-12.6,4.67C1085.9,349.94,1090.6,340.53,1093.34,333Z"/><path class="cls-15" d="M493.3,19.76l7-7,6.27,6.27-7,7Zm-1.91,14.46-6.27-6.28,6.27-6.27,6.28,6.27ZM475,38l6.28,6.27-7,7L468.08,45Zm-1.9-1.91-7,7-6.27-6.27,7-7Zm10.08-6.27,6.28,6.27-6.28,6.28-6.27-6.28Zm-6.27-10.09,6.27-6.27,6.28,6.27L483.21,26Zm4.37,8.18L475,34.22l-6.27-6.28L475,21.67Zm17-17-7,7-6.27-6.28,7-6.95ZM464.67,74.3l9-9,1.5,1.5-9,9ZM444.36,36l27.41,27.4-9,9L435.36,45Zm-3.27-.55-6.27,6.28-2.19-2.19,6.28-6.27Zm26,49.49a4.35,4.35,0,0,1,0-6.27L478,67.75a4.43,4.43,0,0,1,3.14-1.36,4,4,0,0,1,3.14,1.36l.41.41L467.54,85.34Zm22.22,6.41a1.37,1.37,0,1,1,1.36,1.36A1.28,1.28,0,0,1,489.35,91.34ZM435.5,73.75l-6.27-6.27,6.95-7,6.27,6.27Zm1.91,1.91,6.95-7L450.63,75l-6.95,7ZM435.5,90.12l-6.27-6.28,6.27-6.27,6.27,6.27ZM417.23,92l-7,7L404,92.7l7-7Zm10.09-6.27L433.59,92l-6.27,6.28L421.05,92Zm-8.18-8.18,6.27,6.27-6.27,6.28-6.27-6.28Zm8.18-8.18,6.27,6.27-6.27,6.28-6.27-6.28Zm-15.14,31.49,7-6.95,6.27,6.27-7,7ZM490.17.82,456.09,34.9a2.64,2.64,0,0,0,0,3.82l6.68,6.68L461.13,47,446.27,32.18a2.89,2.89,0,0,0-3.27-.55l-2.18-2.18a2.64,2.64,0,0,0-3.82,0l-8.18,8.18a2.64,2.64,0,0,0,0,3.82L431,43.63a2.87,2.87,0,0,0,.54,3.27l14.86,15-1.63,1.64-6.68-6.68a2.64,2.64,0,0,0-3.82,0L400.19,90.93a2.45,2.45,0,0,0,0,3.68L416.55,111a2.63,2.63,0,0,0,3.81,0l34.09-34.08a2.65,2.65,0,0,0,0-3.82l-6.68-6.68,1.63-1.63,13.37,13.36a6.69,6.69,0,0,0-1,3.68,8.23,8.23,0,0,0,2.46,6l1.36,1.36a2.64,2.64,0,0,0,3.82,0l8.32-8.32,7.91,8.32a5.48,5.48,0,1,0,5-3.27,5.68,5.68,0,0,0-2.18.41L480.49,78l7.91-7.91a2.5,2.5,0,0,0,.14-3.82l-1.36-1.36a8.73,8.73,0,0,0-9.82-1.63L464,49.89l1.63-1.63,6.68,6.68a2.64,2.64,0,0,0,3.82,0l34.08-34.08a2.36,2.36,0,0,0,.14-3.68L494,.82a2.64,2.64,0,0,0-3.82,0Z"/><path class="cls-30" d="M697.89,308.09a23.42,23.42,0,0,1-5.17-46.26,19,19,0,0,1,30.79-19.35,30.75,30.75,0,0,1,59.29,11.43,31.16,31.16,0,0,1-.54,5.59,26.33,26.33,0,0,1-14.1,48.59Z"/><path class="cls-15" d="M736.21,321c-5,0-30.18-.55-30.18-11.38v-5.94a3.84,3.84,0,0,1,1.28-2.86,3.86,3.86,0,0,1-1.28-2.7v-9.35a3.84,3.84,0,0,1,1.28-2.86,3.86,3.86,0,0,1-1.28-2.7V272.88a3.85,3.85,0,0,1,1.7-3.18,6.25,6.25,0,0,1-1.7-4.07C706,260,715.48,254,736.21,254s30.18,6,30.18,11.65a6.2,6.2,0,0,1-1.7,4.07,3.82,3.82,0,0,1,1.7,3.18v10.28a3.82,3.82,0,0,1-1.28,2.7,3.8,3.8,0,0,1,1.28,2.86v9.35a3.82,3.82,0,0,1-1.28,2.7,3.8,3.8,0,0,1,1.28,2.86v5.94C766.39,320.4,741.25,321,736.21,321Z"/><path class="cls-31" d="M736.21,256.63c15.21,0,27.54,4,27.54,9s-12.33,9-27.54,9-27.53-4-27.53-9,12.32-9,27.53-9m26.35,15.06a1.19,1.19,0,0,1,1.19,1.19v10.28c0,1.9-9.37,6.36-27.54,6.36s-27.53-4.46-27.53-6.36V272.88a1.19,1.19,0,0,1,1.19-1.19,1.16,1.16,0,0,1,.58.16c6.08,3.38,15.94,5,25.76,5s19.68-1.58,25.76-5a1.16,1.16,0,0,1,.59-.16m0,15.84a1.19,1.19,0,0,1,1.19,1.19v9.35c0,1.9-9.37,6.36-27.54,6.36s-27.53-4.46-27.53-6.36v-9.35a1.19,1.19,0,0,1,1.19-1.19,1.26,1.26,0,0,1,.49.1c6.15,2.78,16.2,4.09,25.85,4.09s19.71-1.31,25.86-4.09a1.23,1.23,0,0,1,.49-.1m0,14.91a1.19,1.19,0,0,1,1.19,1.19v5.94c0,5.83-13.77,8.74-27.54,8.74s-27.53-2.91-27.53-8.74v-5.94a1.19,1.19,0,0,1,1.19-1.19,1.26,1.26,0,0,1,.49.1c6.15,2.78,16.2,4.09,25.85,4.09s19.71-1.31,25.86-4.09a1.23,1.23,0,0,1,.49-.1m-26.35-51.1a70.55,70.55,0,0,0-21.11,2.9c-9.68,3.16-11.71,7.94-11.71,11.39a8.48,8.48,0,0,0,.94,3.89,6.41,6.41,0,0,0-.94,3.36v10.28a6,6,0,0,0,.64,2.75,6.44,6.44,0,0,0-.64,2.81v9.35a6,6,0,0,0,.64,2.75,6.47,6.47,0,0,0-.64,2.81v5.94c0,3.71,2.16,8.74,12.46,11.64a88,88,0,0,0,40.73,0c10.3-2.9,12.46-7.93,12.46-11.64v-5.94a6.47,6.47,0,0,0-.64-2.81,6,6,0,0,0,.64-2.75v-9.35a6.44,6.44,0,0,0-.64-2.81,6,6,0,0,0,.64-2.75V272.88a6.5,6.5,0,0,0-.94-3.36,8.48,8.48,0,0,0,.94-3.89c0-3.45-2-8.23-11.71-11.39a70.58,70.58,0,0,0-21.12-2.9Z"/><g class="cls-32"><g class="cls-10"><path class="cls-33" d="M623.36,271.93a217.58,217.58,0,0,0,71.51-91.73"/><path class="cls-33" d="M672.55,170.64a193.4,193.4,0,0,1-63.68,81.82"/><path class="cls-33" d="M594.38,233a169.24,169.24,0,0,0,55.86-71.91"/><path class="cls-33" d="M627.92,151.52a145.05,145.05,0,0,1-48,62"/><path class="cls-33" d="M565.41,194.05A120.86,120.86,0,0,0,605.6,142"/><path class="cls-33" d="M583.44,132a96,96,0,0,1-32.52,42.55"/><path class="cls-33" d="M536.43,155.12A72.65,72.65,0,0,0,561,122.84"/><path class="cls-33" d="M538.61,113.28a48.35,48.35,0,0,1-16.67,22.37"/><path class="cls-33" d="M516.22,103.69a25.43,25.43,0,0,0,.77-3.46"/><path class="cls-33" d="M507.46,116.18a24.21,24.21,0,0,0,8.76-12.49"/></g></g><rect class="cls-16" x="134.14" y="568.12" width="9.43" height="18.78" rx="4.1"/><path class="cls-16" d="M509.37,556.67a9,9,0,0,1,4.68,11.89,9.17,9.17,0,0,1-12,4.62,9.8,9.8,0,0,1-1.68-.94L495.54,575l-3.94-10,5-1a8.76,8.76,0,0,1,.72-2.68,9.21,9.21,0,0,1,12.05-4.62Z"/><path class="cls-16" d="M509.46,582.7s-1.78-3.7-1-5.45c1.38-3.25,5.91-6.1,11.89-4.2,8.22,2.66,12.85,5.35,19.43,11.51,2.76,3,3,5.65,2.25,7.91a31.81,31.81,0,0,0,6.47,4.62c4.59,2.52,11.23,5,20.64,5.77l0,.14c-1.88,6.39-.77,9.4-.72,9.52l.12.32.08,0c-13-1.06-22.22-5-28.16-8.92a36.94,36.94,0,0,1-7.81-6.74l-.69-.55c-4.34-4.2-15.66-9.54-15.66-9.54Z"/><path class="cls-34" d="M484,570.15a1.76,1.76,0,0,0,3.52,0,1.76,1.76,0,0,0-3.52,0"/><path class="cls-34" d="M475.55,555.49a1.63,1.63,0,0,0,3.26,0,1.63,1.63,0,0,0-3.26,0"/><path class="cls-34" d="M478.1,565.11c0,3.91,5.94,3.91,5.94,0s-5.94-3.91-5.94,0"/><path class="cls-34" d="M480.16,556.92c0,5,7.57,5,7.57,0s-7.57-5-7.57,0"/><path class="cls-34" d="M475.26,548.84c0,5,7.56,5,7.56,0s-7.56-5-7.56,0"/><path class="cls-16" d="M592.64,615.61l-20.31-5.41-.32,1.16,20.31,5.41ZM595,610.9l.13-1.19-22.89-2.4-.13,1.19Zm-1.92-8-20.81,1.7.1,1.2,20.82-1.7Zm-23.21.3s21.5-4.45,23.63-4,5.89,9.89,5.69,17.91-30.06-4.94-30.06-4.94-1.08-2.81.74-9Z"/><path class="cls-16" d="M553.72,572.36l-5,10.06a1.62,1.62,0,0,1-2.17.73L518.1,569.3a1.6,1.6,0,0,1-.74-2.15l5-10.06a1.64,1.64,0,0,1,2.18-.73L553,570.22A1.59,1.59,0,0,1,553.72,572.36Z"/><path class="cls-16" d="M495.23,600.86l.7,1.88a1.54,1.54,0,0,1-.93,2,1.56,1.56,0,0,1-2-.92l-1-2.61c1.08-.06,2.15-.16,3.19-.32Z"/><path class="cls-16" d="M489.22,593.55l-.46-1.24-.7.25-.47-1.26,4.33-1.56.47,1.26-.7.25.69,1.87c-.53,0-1.06.08-1.61.09a3.69,3.69,0,0,0-1.55.34Z"/><path class="cls-16" d="M490.93,600.42h-.07a3.21,3.21,0,1,1-.07-6.42,23.46,23.46,0,0,0,10.36-2.47,13.41,13.41,0,0,0,7.07-7.56c.71-1.81-.29-5.51.09-6.33.19-.42,3.21-2.67,3.29-2.88a18.49,18.49,0,0,1,1.65.86,12.88,12.88,0,0,0,3,1.5,3.2,3.2,0,0,1,2.09,4,29.8,29.8,0,0,1-5.76,9.49,28.75,28.75,0,0,1-8.45,6.58,30.19,30.19,0,0,1-13.21,3.19Z"/><path class="cls-16" d="M484.86,591.67l7.44-2.88a1.14,1.14,0,0,0,.65-1.49l-1.23-3.09a1.17,1.17,0,0,0-1.51-.65l-7.43,2.88a1.15,1.15,0,0,0-.66,1.49l1.23,3.09A1.17,1.17,0,0,0,484.86,591.67Z"/><path class="cls-16" d="M1105.2,295.13h23.06a5.92,5.92,0,0,0,5.91-5.87V249.79a1.41,1.41,0,0,0-2.81,0v39.33a3.12,3.12,0,0,1-3.1,3.07h-23.2a1.33,1.33,0,0,0-1.41,1.4,1.67,1.67,0,0,0,1.55,1.54Z"/><path class="cls-16" d="M1110.26,312.63a1.52,1.52,0,0,0,2,.42l5.91-4.06,6,4.06a1.4,1.4,0,0,0,2-.42,1.37,1.37,0,0,0-.42-2l-6.19-4.06v-8.68h-2.81v8.68l-6.19,4.06A1.51,1.51,0,0,0,1110.26,312.63Z"/><path class="cls-16" d="M1112.79,266V276.8h-17.15a5.26,5.26,0,0,0-5.2,5.18v28.55a5.2,5.2,0,0,0,10.4,0V287.16h19.69a7.51,7.51,0,0,0,7.17-7.42V254.69c0-6.44-7.31-9-11-6.58-1.41,1-8,7.28-13.51,12.6H1094a5.18,5.18,0,1,0,0,10.35h11.39a5.58,5.58,0,0,0,3.52-1.4Z"/><path class="cls-16" d="M1111.53,235.09a9,9,0,1,0,9-9A9,9,0,0,0,1111.53,235.09Z"/><path class="cls-16" d="M1046.7,268.12v6.58a1.33,1.33,0,0,0,1.41,1.4h38a1.4,1.4,0,0,0,1.4-1.4v-6.58a1.41,1.41,0,0,0-1.41-1.4h-38a1.4,1.4,0,0,0-1.4,1.4Z"/><path class="cls-16" d="M1046.7,278.62v35.69a1.41,1.41,0,0,0,1.41,1.4h24.61a1.4,1.4,0,0,0,1.4-1.4v-6.58a1.4,1.4,0,0,0-1.4-1.4H1057V278.9h-8.86a4.14,4.14,0,0,1-1.4-.28Z"/><path class="cls-16" d="M1062,232.57l11,26.32a2.57,2.57,0,0,0,2.53,1.67,3.08,3.08,0,0,0,1.12-.14l3.52-1.54a2.85,2.85,0,0,0,1.55-3.64l-11-26.3a2.86,2.86,0,0,0-3.66-1.54l-3.51,1.54a2.78,2.78,0,0,0-1.55,3.63Z"/><path class="cls-16" d="M1067.37,252.59l-4.92-11.76A7.62,7.62,0,0,0,1067.37,252.59Z"/><path class="cls-16" d="M1058.51,263.79a1.41,1.41,0,0,0,1.41,1.4h6.61a1.4,1.4,0,1,0,0-2.8h-1.83v-7.7a11.86,11.86,0,0,1-2.81-1.82v9.52h-1.83a1.44,1.44,0,0,0-1.55,1.4Z"/></g></g></svg>