<?xml version="1.0" encoding="UTF-8"?>
<svg width="237px" height="237px" viewBox="0 0 237 237" version="1.1" xmlns="http://www.w3.org/2000/svg" xmlns:xlink="http://www.w3.org/1999/xlink">
    <!-- Generator: Sketch 62 (91390) - https://sketch.com -->
    <title>illus-survey</title>
    <desc>Created with Sketch.</desc>
    <defs>
        <circle id="path-1" cx="116.430627" cy="116.097941" r="116.097941"></circle>
        <path d="M76.4901717,1.33349966 C76.4901717,0.762067502 76.0266623,0.298126549 75.4545446,0.298126549 L1.04255412,0.298126549 C0.471120553,0.298126549 0.00718354083,0.762067502 0.00718354083,1.33349966 L0.00718354083,41.9917922 C0.00718354083,42.5626253 0.471120553,43.0273365 1.04255412,43.0273365 L75.4545446,43.0273365 C76.0266623,43.0273365 76.4901717,42.5626253 76.4901717,41.9917922 L76.4901717,1.33349966 Z" id="path-3"></path>
    </defs>
    <g id="Page-1" stroke="none" stroke-width="1" fill="none" fill-rule="evenodd">
        <g id="Apply" transform="translate(-887.000000, -947.000000)">
            <g id="illus-survey" transform="translate(888.667314, 949.146315)">
                <mask id="mask-2" fill="white">
                    <use xlink:href="#path-1"></use>
                </mask>
                <circle stroke="#C7DCF6" stroke-width="2" cx="116.430627" cy="116.097941" r="117.097941"></circle>
                <g id="Group-17" mask="url(#mask-2)">
                    <g transform="translate(96.554945, 131.752689)">
                        <polygon id="Fill-1" fill="#168DBD" points="28.6141978 2.9670989 23.2418901 2.9670989 23.2418901 3.95610989 16.6484835 3.95610989 16.6484835 2.9670989 10.9461758 2.9670989 9.56057143 5.10995604 30.0001319 5.10995604"></polygon>
                        <g id="Group-16" stroke-width="1" fill="none">
                            <path d="M22.6648352,29.6703956 L17.0604396,29.6703956 C10.3236264,29.6703956 4.86263736,24.2094066 4.86263736,17.4725934 L34.8626374,17.4725934 C34.8626374,24.2094066 29.4016484,29.6703956 22.6648352,29.6703956" id="Fill-2" fill="#FFFFFF"></path>
                            <path d="M35.1923077,17.1429231 L4.53296703,17.1429231 L4.53296703,17.4725934 C4.53296703,24.3914785 10.1415545,30.0000659 17.0604396,30.0000659 L22.6648352,30.0000659 C29.5837202,30.0000659 35.1923077,24.3914785 35.1923077,17.4725934 L35.1923077,17.1429231 Z" id="Stroke-4" fill="#168DBD" fill-rule="nonzero"></path>
                            <path d="M39.8901099,14.6703297 L0,14.6703297 L0,17.6373626 L39.8901099,17.6373626 L39.8901099,14.6703297 Z M39.2307692,15.3296703 L39.2307692,16.978022 L0.659340659,16.978022 L0.659340659,15.3296703 L39.2307692,15.3296703 Z" id="Stroke-6" fill="#168DBD" fill-rule="nonzero"></path>
                            <polygon id="Stroke-8" fill="#168DBD" fill-rule="nonzero" points="27.1931984 0.824241758 12.3672411 0.824241758 0.970066865 15.3297363 38.5903727 15.3297363"></polygon>
                            <polygon id="Fill-9" fill="#FFFFFF" points="33.956044 14.8352308 25.0549451 14.8352308 25.0549451 3.95610989"></polygon>
                            <path d="M24.8874725,3.48695104 L24.8874725,15.0027033 L34.3094516,15.0027033 L24.8874725,3.48695104 Z M25.2224176,4.42516484 L33.6026374,14.6676923 L25.2224176,14.6676923 L25.2224176,4.42516484 Z" id="Stroke-10" fill="#168DBD" fill-rule="nonzero"></path>
                            <polygon id="Fill-12" fill="#FFFFFF" points="6.26373626 14.8352308 14.8351648 14.8352308 14.8351648 3.95610989"></polygon>
                            <path d="M15.0026374,15.0027033 L15.0026374,3.47293939 L5.91858095,15.0027033 L15.0026374,15.0027033 Z M14.6676923,4.43901099 L14.6676923,14.6676923 L6.6089011,14.6676923 L14.6676923,4.43901099 Z" id="Stroke-13" fill="#168DBD" fill-rule="nonzero"></path>
                            <path d="M25.293989,6.59340659e-05 L23.1676154,6.59340659e-05 C22.8444686,6.59340659e-05 22.5824505,0.261800078 22.5824505,0.584901099 L22.5824505,1.31874725 L25.8791538,1.31874725 L25.8791538,0.584901099 C25.8791538,0.261800078 25.6171358,6.59340659e-05 25.293989,6.59340659e-05 Z M25.293989,0.329736264 L25.3286684,0.332065132 C25.4534065,0.348957871 25.5494835,0.455697777 25.5494835,0.584901099 L25.5494505,0.989010989 L22.9120879,0.989010989 L22.9121209,0.584901099 C22.9121209,0.443952021 23.0264605,0.329736264 23.1676154,0.329736264 L25.293989,0.329736264 Z" id="Stroke-15" fill="#168DBD" fill-rule="nonzero"></path>
                        </g>
                    </g>
                </g>
                <path d="M355.331757,150.252689 C346.998606,150.252689 346.998606,154.458285 338.66511,154.458285 C330.332304,154.458285 330.332304,150.252689 321.998808,150.252689 C313.665657,150.252689 313.665657,154.458285 305.332506,154.458285 C296.999355,154.458285 296.999355,150.252689 288.66655,150.252689 C280.333744,150.252689 280.333744,154.458285 272.000938,154.458285 C263.667787,154.458285 263.667787,150.252689 255.334982,150.252689 C247.001486,150.252689 247.001486,154.458285 238.667989,154.458285 C230.335184,154.458285 230.335184,150.252689 222.002378,150.252689 C213.668882,150.252689 213.668882,154.458285 205.335731,154.458285 C197.00258,154.458285 197.00258,150.252689 188.669429,150.252689 C180.336278,150.252689 180.336278,154.458285 172.003472,154.458285 C163.669976,154.458285 163.669976,150.252689 155.336825,150.252689 C147.003674,150.252689 147.003674,154.458285 138.670178,154.458285 C130.337718,154.458285 130.337718,150.252689 122.005257,150.252689 C113.671761,150.252689 113.671761,154.458285 105.338265,154.458285 C97.0058045,154.458285 97.0058045,150.252689 88.6729988,150.252689 C80.3398479,150.252689 80.3398479,154.458285 72.0070423,154.458285 C63.6738913,154.458285 63.6738913,150.252689 55.3410857,150.252689 C47.0082801,150.252689 47.0082801,154.458285 38.6751291,154.458285 C30.3419782,154.458285 30.3419782,150.252689 22.0088272,150.252689 C13.675331,150.252689 13.675331,154.458285 5.34183471,154.458285 C-2.99200687,154.458285 -2.99200687,150.252689 -11.3258484,150.252689 C-19.6593447,150.252689 -19.6593447,154.458285 -27.9924956,154.458285 C-36.3263372,154.458285 -36.3263372,150.252689 -44.6601788,150.252689 C-52.9936751,150.252689 -52.9936751,154.458285 -61.326826,154.458285 C-69.6599769,154.458285 -69.6599769,150.252689 -77.9938185,150.252689 C-86.3276601,150.252689 -86.3276601,154.458285 -94.6615017,154.458285 C-102.994998,154.458285 -102.994998,150.252689 -111.328494,150.252689 C-119.663372,150.252689 -119.663372,154.458285 -127.998249,154.458285 C-135.846232,154.458285 -136.244035,151.21232 -143.213881,150.381492 C-143.493241,150.531358 -144.079587,150.630119 -144.667314,150.728188 L-144.667314,564.252689 L371.998059,564.252689 L371.998059,154.459666 C363.758489,154.965899 363.636592,150.252689 355.331757,150.252689" id="Fill-1" fill="#E2EDFA" mask="url(#mask-2)"></path>
                <g id="photo" mask="url(#mask-2)">
                    <g transform="translate(-25.840806, 53.752689)">
                        <g id="Layer1" transform="translate(90.627473, 9.531730)">
                            <g id="Group" transform="translate(0.077247, 0.038421)" fill="#168DBD">
                                <path d="M99.5457469,6.35137475 C99.5457469,2.85822821 96.7098388,0.0222655329 93.2167364,0.0222655329 L6.34324552,0.0222655329 C2.85014312,0.0222655329 0.0141497071,2.85822821 0.0141497071,6.35137475 L0.0141497071,42.3430827 C0.0141497071,45.8354403 2.85014312,48.6721043 6.34324552,48.6721043 L93.2167364,48.6721043 C96.7098388,48.6721043 99.5457469,45.8354403 99.5457469,42.3430827 L99.5457469,6.35137475 Z" id="Path"></path>
                            </g>
                            <g id="Group" transform="translate(14.856209, 2.526951)">
                                <mask id="mask-4" fill="white">
                                    <use xlink:href="#path-3"></use>
                                </mask>
                                <use id="Path" fill="#FFFFFF" xlink:href="#path-3"></use>
                                <g id="Group-17" mask="url(#mask-4)">
                                    <g transform="translate(30.245402, 7.998127)">
                                        <polygon id="Fill-1" fill="#168DBD" points="9.53806593 0.989032967 7.7472967 0.989032967 7.7472967 1.3187033 5.54949451 1.3187033 5.54949451 0.989032967 3.64872527 0.989032967 3.18685714 1.70331868 10.000044 1.70331868"></polygon>
                                        <g id="Group-16" stroke-width="1" fill="none">
                                            <path d="M7.55494505,9.89013187 L5.68681319,9.89013187 C3.44120879,9.89013187 1.62087912,8.0698022 1.62087912,5.8241978 L11.6208791,5.8241978 C11.6208791,8.0698022 9.80054945,9.89013187 7.55494505,9.89013187" id="Fill-2" fill="#FFFFFF"></path>
                                            <path d="M11.7307692,5.71430769 L1.51098901,5.71430769 L1.51098901,5.8241978 C1.51098901,8.13049283 3.38051816,10.000022 5.68681319,10.000022 L7.55494505,10.000022 C9.86124008,10.000022 11.7307692,8.13049283 11.7307692,5.8241978 L11.7307692,5.71430769 Z" id="Stroke-4" fill="#168DBD" fill-rule="nonzero"></path>
                                            <path d="M13.2967033,4.89010989 L0,4.89010989 L0,5.89010989 L13.2967033,5.89010989 L13.2967033,4.89010989 Z M13.0769231,5.11233211 L13.0769231,5.66788767 L0.21978022,5.66788767 L0.21978022,5.11233211 L13.0769231,5.11233211 Z" id="Stroke-6" fill="#168DBD" fill-rule="nonzero"></path>
                                            <polygon id="Stroke-8" fill="#168DBD" fill-rule="nonzero" points="9.06439948 0.274747253 4.12241371 0.274747253 0.323355622 5.10991209 12.8634576 5.10991209"></polygon>
                                            <polygon id="Fill-9" fill="#FFFFFF" points="11.3186813 4.94507692 8.35164835 4.94507692 8.35164835 1.3187033"></polygon>
                                            <path d="M8.29582418,1.16231701 L8.29582418,5.0009011 L11.4364839,5.0009011 L8.29582418,1.16231701 Z M8.40747253,1.47505495 L11.2008791,4.88923077 L8.40747253,4.88923077 L8.40747253,1.47505495 Z" id="Stroke-10" fill="#168DBD" fill-rule="nonzero"></path>
                                            <polygon id="Fill-12" fill="#FFFFFF" points="2.08791209 4.94507692 4.94505495 4.94507692 4.94505495 1.3187033"></polygon>
                                            <path d="M5.00087912,5.0009011 L5.00087912,1.15764646 L1.97286032,5.0009011 L5.00087912,5.0009011 Z M4.88923077,1.47967033 L4.88923077,4.88923077 L2.20296703,4.88923077 L4.88923077,1.47967033 Z" id="Stroke-13" fill="#168DBD" fill-rule="nonzero"></path>
                                            <path d="M8.43132967,2.1978022e-05 L7.72253846,2.1978022e-05 C7.61482286,2.1978022e-05 7.52748352,0.198503704 7.52748352,0.443521978 L7.52748352,1.00002198 L8.62638462,1.00002198 L8.62638462,0.443521978 C8.62638462,0.198503704 8.53904528,2.1978022e-05 8.43132967,2.1978022e-05 Z M8.43132967,0.250021978 L8.44288948,0.251788037 C8.48446882,0.264598364 8.51649451,0.345542792 8.51649451,0.443521978 L8.51648352,0.749971978 L7.63736264,0.749971978 L7.63737363,0.443521978 C7.63737363,0.336635594 7.67548684,0.250021978 7.72253846,0.250021978 L8.43132967,0.250021978 Z" id="Stroke-15" fill="#168DBD" fill-rule="nonzero"></path>
                                        </g>
                                    </g>
                                </g>
                                <path d="M90.7788951,13.9981265 C88.2024619,13.9981265 88.2024619,15.2984075 85.625922,15.2984075 C83.0495957,15.2984075 83.0495957,13.9981265 80.4730557,13.9981265 C77.8966226,13.9981265 77.8966226,15.2984075 75.3201895,15.2984075 C72.7437563,15.2984075 72.7437563,13.9981265 70.1674299,13.9981265 C67.5911036,13.9981265 67.5911036,15.2984075 65.0147772,15.2984075 C62.438344,15.2984075 62.438344,13.9981265 59.8620177,13.9981265 C57.2854778,13.9981265 57.2854778,15.2984075 54.7089379,15.2984075 C52.1326115,15.2984075 52.1326115,13.9981265 49.5562851,13.9981265 C46.9797452,13.9981265 46.9797452,15.2984075 44.4033121,15.2984075 C41.8268789,15.2984075 41.8268789,13.9981265 39.2504458,13.9981265 C36.6740126,13.9981265 36.6740126,15.2984075 34.0976862,15.2984075 C31.5211463,15.2984075 31.5211463,13.9981265 28.9447132,13.9981265 C26.3682801,13.9981265 26.3682801,15.2984075 23.7917401,15.2984075 C21.2155205,15.2984075 21.2155205,13.9981265 18.6393009,13.9981265 C16.062761,13.9981265 16.062761,15.2984075 13.4862211,15.2984075 C10.9100015,15.2984075 10.9100015,13.9981265 8.33367512,13.9981265 C5.75724197,13.9981265 5.75724197,15.2984075 3.1809156,15.2984075 C0.604482453,15.2984075 0.604482453,13.9981265 -1.97184393,13.9981265 C-4.5481703,13.9981265 -4.5481703,15.2984075 -7.12460345,15.2984075 C-9.70103659,15.2984075 -9.70103659,13.9981265 -12.2774697,13.9981265 C-14.8540096,13.9981265 -14.8540096,15.2984075 -17.4305495,15.2984075 C-20.0071962,15.2984075 -20.0071962,13.9981265 -22.5838429,13.9981265 C-25.1603828,13.9981265 -25.1603828,15.2984075 -27.7368159,15.2984075 C-30.3134626,15.2984075 -30.3134626,13.9981265 -32.8901093,13.9981265 C-35.4666492,13.9981265 -35.4666492,15.2984075 -38.0430823,15.2984075 C-40.6195155,15.2984075 -40.6195155,13.9981265 -43.1961621,13.9981265 C-45.7728088,13.9981265 -45.7728088,15.2984075 -48.3494555,15.2984075 C-50.9259954,15.2984075 -50.9259954,13.9981265 -53.5025353,13.9981265 C-56.0795023,13.9981265 -56.0795023,15.2984075 -58.6564692,15.2984075 C-61.0828987,15.2984075 -61.205891,14.2948242 -63.3608192,14.0379496 C-63.4471914,14.0842852 -63.628477,14.1148198 -63.8101896,14.1451408 L-63.8101896,141.998127 L95.9317614,141.998127 L95.9317614,15.2988345 C93.3842613,15.4553508 93.3465736,13.9981265 90.7788951,13.9981265" id="Fill-1" fill="#E2EDFA" mask="url(#mask-4)"></path>
                            </g>
                            <g id="Group" transform="translate(94.468808, 16.260706)" fill="#FFFFFF">
                                <path d="M1.83136878,0.452842291 C1.83136878,0.206719399 1.63154286,0.0069785882 1.38550507,0.0069785882 L0.493777668,0.0069785882 C0.247654776,0.0069785882 0.0479139653,0.206719399 0.0479139653,0.452842291 L0.0479139653,14.8882222 C0.0479139653,15.1341749 0.247654776,15.334171 0.493777668,15.334171 L1.38550507,15.334171 C1.63154286,15.334171 1.83136878,15.1341749 1.83136878,14.8882222 L1.83136878,0.452842291 Z" id="Path"></path>
                            </g>
                            <g id="Group" transform="translate(3.061132, 17.726984)">
                                <ellipse id="Oval" fill="#FFFFFF" cx="4.50969986" cy="6.20440129" rx="4.43225456" ry="4.17612758"></ellipse>
                                <ellipse id="Oval" fill-opacity="0.58" fill="#168DBD" opacity="0.300000012" cx="21.5096999" cy="6.20440129" rx="6.52235012" ry="6.14544266"></ellipse>
                            </g>
                        </g>
                        <g id="Layer2" stroke-linejoin="round">
                            <path d="M214.741664,20.9275946 C214.741664,20.9275946 209.572402,15.6501649 207.046494,12.8363471 C204.519734,10.0225292 202.724875,7.16173359 201.196394,5.82252549 C199.667913,4.4834025 196.737757,4.87113967 196.737757,4.87113967" id="Path" stroke="#168DBD" fill="#FFFFFF"></path>
                            <path d="M262.394593,71.5 C258.557563,68.006342 240.587121,57.2533589 234.775318,52.2994123 C228.962665,47.3446147 222.32024,36.959284 220.202835,31.4491779 C218.08628,25.9389868 218.762862,24.3254862 211.462578,18.1344572 C204.162294,11.9434282 201.089162,8.45430429 197.616889,5.57921106 C194.145467,2.70403272 193.248463,1.84302812 189.522578,1.37018622 C185.797544,0.897344317 181.721027,0.332333987 178.625768,0.0989768059 C175.529658,-0.134380375 170.471032,0.671221039 167.585131,1.17367939 C164.163069,1.76932742 160.670371,4.89462858 165.49666,7.36632537 C170.32295,9.83802217 176.404534,9.18118383 178.649597,9.52500696 C180.89466,9.86891519 187.595807,12.0414688 187.595807,12.0414688 C187.595807,12.0414688 189.274923,18.2790501 191.662962,22.2383777 C194.051001,26.1977052 198.226239,33.4133101 197.784546,40.8834633 C197.342001,48.3539568 192.305503,55.4899888 188.781316,57.2278275 C185.257129,58.9656661 179.535537,59.8252239 174.928818,59.1494924 C170.322099,58.4746118 165.026882,57.6193092 162.438847,57.9307926 C159.703581,58.2601479 156.901082,61.857525 162.776713,64.9068276 C168.652344,67.9561303 183.396739,71.1645787 188.20771,72.6062529 C193.01868,74.0479271 199.164944,76.6972375 203.092528,76.4776673 C207.020111,76.2580971 209.183474,75.3108814 209.183474,75.3108814 C209.183474,75.3108814 234.172777,91.9428996 244.813422,100.850812 C255.453215,109.757874 259.985894,114.619907 259.985894,114.619907 C259.985894,114.619907 266.231624,74.993658 262.394593,71.5 Z" id="Path" stroke="#168DBD" fill="#FFFFFF"></path>
                            <g id="Group" transform="translate(0.014042, 29.780645)">
                                <g id="Group-12" transform="translate(0.079502, 0.057596)">
                                    <path d="M9.23197684,111.926617 C9.23197684,111.926617 48.9581859,81.1416815 55.1828313,75.8447629 C61.4074766,70.5486953 66.7997126,70.0474284 72.7555121,67.2670567 C78.7113967,64.485834 83.4829639,62.112263 85.5498174,53.1541386 C87.6165859,44.1951633 87.1354888,44.3415434 87.1354888,44.3415434 C87.1354888,44.3415434 97.4891606,33.8106836 103.493555,25.6448844 C109.498034,17.4790851 115.647022,12.1753581 117.343159,7.63927575 C119.039381,3.10344874 119.134699,1.56101053 117.115163,0.296779707 C115.095628,-0.967451119 111.057834,2.04993723 107.765387,4.77124621 C104.47294,7.49204456 84.961148,25.3921233 84.961148,25.3921233 C84.961148,25.3921233 86.8358351,18.8943769 82.9644207,16.596549 C79.0930064,14.2987212 73.6434098,19.3633039 73.2514174,19.5343645 C72.8593399,19.705425 73.1670786,16.1633659 68.5606147,14.7216917 C63.9541507,13.2808686 59.993036,18.5965103 59.993036,18.5965103 C59.993036,18.5965103 59.5852992,15.3718919 56.3629786,14.4851006 C53.140573,13.5991603 47.1636675,18.0263086 43.9760697,23.0262117 C31.8621767,42.0283967 22.3759775,60.7854802 0.00611302573,79.1859747 C-0.274987911,79.4174596 9.23197684,111.926617 9.23197684,111.926617 Z" id="Path" stroke="#168DBD" fill="#FFFFFF"></path>
                                    <g id="Group" transform="translate(82.727404, 25.558929)" stroke="#2575D6">
                                        <path d="M0.339831846,3.39353763 C0.47310586,2.7297207 2.17323449,0.0706369294 2.17323449,0.0706369294" id="Path"></path>
                                    </g>
                                    <g id="Group" transform="translate(71.238265, 19.686702)" stroke="#2575D6">
                                        <line x1="2.00004636" y1="0.0527649352" x2="0.00510628405" y2="3.33950977" id="Path"></line>
                                    </g>
                                    <g id="Group" transform="translate(58.898078, 18.580340)" stroke="#2575D6">
                                        <line x1="0.0464671849" y1="2.8024989" x2="0.996916856" y2="0.0595733139" id="Path"></line>
                                    </g>
                                    <g id="Group" transform="translate(112.088537, 0.453032)" fill="#FFFFFF" stroke="#168DBD">
                                        <path d="M-0.161872988,2.55171647 C-0.222472502,2.5207951 -0.462888221,2.39873141 -0.792995685,2.2506059 C-0.601696423,2.05299597 -0.424612805,1.88228555 -0.279126807,1.74397208 C0.35923489,1.13708195 1.65125857,-0.0458633405 3.05895557,-0.361825774 C3.98415949,-0.569490975 4.95804314,-0.434094049 5.82662664,0.412689453 C7.64598393,2.18637014 4.79219456,6.24113876 4.79219456,6.24113876 C4.79219456,6.24113876 4.64641741,6.44826428 4.39438138,6.7556755 C4.16357792,6.45041647 4.00295048,6.24671277 4.00295048,6.24671277 C4.00295048,6.24671277 2.88016544,4.82282479 2.08047609,4.04079157 C1.35188177,3.32820614 -0.00509698551,2.63171263 -0.161872988,2.55171647 Z" id="Path"></path>
                                    </g>
                                </g>
                            </g>
                            <path d="M163.733708,64.4085676 C163.733375,64.4104033 163.691076,64.6438438 163.629641,64.9902337 C163.269254,64.8752094 163.044437,64.7788687 163.042537,64.7780439 C163.037368,64.7757986 161.387512,64.0496255 160.42801,62.8291559 C159.893732,62.1495629 159.572747,61.3288257 159.749936,60.4079821 C160.245716,57.8323897 164.967347,58.2640492 164.967347,58.2640492 C164.967347,58.2640492 165.256999,58.2905297 165.693005,58.3703442 C165.481587,58.7307216 165.342885,58.9923848 165.342885,58.9923848 C165.342885,58.9923848 164.48242,60.6156695 164.272997,61.6051535 C164.054862,62.6357986 163.734625,64.4035035 163.733708,64.4085676 Z" id="Path" stroke="#168DBD" fill="#FFFFFF"></path>
                            <path d="M163.747356,5.6430396 C163.232526,4.98318782 163.169044,4.34348458 163.717715,3.54898929 C163.996788,3.14488216 164.445795,2.69103199 165.180313,2.24672925 C167.172918,1.0416996 168.590892,1.1310588 168.590892,1.1310588 C169.016675,1.4108646 169.747814,2.8693726 168.878922,4.49313954 C168.356572,5.46856619 163.747356,5.6430396 163.747356,5.6430396 Z" id="Path" stroke="#168DBD" fill="#FFFFFF"></path>
                        </g>
                    </g>
                </g>
            </g>
        </g>
    </g>
</svg>