<?xml version="1.0" encoding="UTF-8"?>
<svg width="238px" height="237px" viewBox="0 0 238 237" version="1.1" xmlns="http://www.w3.org/2000/svg" xmlns:xlink="http://www.w3.org/1999/xlink">
    <!-- Generator: Sketch 62 (91390) - https://sketch.com -->
    <title>illus-deploy</title>
    <desc>Created with Sketch.</desc>
    <defs>
        <circle id="path-1" cx="117" cy="116.097941" r="116.097941"></circle>
        <path d="M0.1731586,143.737203 C0.1731586,223.078667 64.4920449,287.397554 143.83351,287.397554 L143.83351,287.397554 C223.175169,287.397554 287.494056,223.078667 287.494056,143.737203 L287.494056,143.737203 C287.494056,64.3957376 223.175169,0.0766567284 143.83351,0.0766567284 L143.83351,0.0766567284 C64.4920449,0.0766567284 0.1731586,64.3957376 0.1731586,143.737203" id="path-3"></path>
        <path d="M0.1731586,143.737203 C0.1731586,223.078667 64.4920449,287.397554 143.83351,287.397554 L143.83351,287.397554 C223.175169,287.397554 287.494056,223.078667 287.494056,143.737203 L287.494056,143.737203 C287.494056,64.3957376 223.175169,0.0766567284 143.83351,0.0766567284 L143.83351,0.0766567284 C64.4920449,0.0766567284 0.1731586,64.3957376 0.1731586,143.737203" id="path-5"></path>
        <path d="M0.1731586,143.737203 C0.1731586,223.078667 64.4920449,287.397554 143.83351,287.397554 L143.83351,287.397554 C223.175169,287.397554 287.494056,223.078667 287.494056,143.737203 L287.494056,143.737203 C287.494056,64.3957376 223.175169,0.0766567284 143.83351,0.0766567284 L143.83351,0.0766567284 C64.4920449,0.0766567284 0.1731586,64.3957376 0.1731586,143.737203" id="path-7"></path>
        <path d="M0.1731586,143.737203 C0.1731586,223.078667 64.4920449,287.397554 143.83351,287.397554 L143.83351,287.397554 C223.175169,287.397554 287.494056,223.078667 287.494056,143.737203 L287.494056,143.737203 C287.494056,64.3957376 223.175169,0.0766567284 143.83351,0.0766567284 L143.83351,0.0766567284 C64.4920449,0.0766567284 0.1731586,64.3957376 0.1731586,143.737203 L0.1731586,143.737203 Z" id="path-9"></path>
        <path d="M0.1731586,143.737203 C0.1731586,223.078667 64.4920449,287.397554 143.83351,287.397554 L143.83351,287.397554 C223.175169,287.397554 287.494056,223.078667 287.494056,143.737203 L287.494056,143.737203 C287.494056,64.3957376 223.175169,0.0766567284 143.83351,0.0766567284 L143.83351,0.0766567284 C64.4920449,0.0766567284 0.1731586,64.3957376 0.1731586,143.737203" id="path-11"></path>
        <path d="M0.1731586,143.737203 C0.1731586,223.078667 64.4920449,287.397554 143.83351,287.397554 L143.83351,287.397554 C223.175169,287.397554 287.494056,223.078667 287.494056,143.737203 L287.494056,143.737203 C287.494056,64.3957376 223.175169,0.0766567284 143.83351,0.0766567284 L143.83351,0.0766567284 C64.4920449,0.0766567284 0.1731586,64.3957376 0.1731586,143.737203 L0.1731586,143.737203 Z" id="path-13"></path>
        <path d="M0.1731586,143.737203 C0.1731586,223.078667 64.4920449,287.397554 143.83351,287.397554 L143.83351,287.397554 C223.175169,287.397554 287.494056,223.078667 287.494056,143.737203 L287.494056,143.737203 C287.494056,64.3957376 223.175169,0.0766567284 143.83351,0.0766567284 L143.83351,0.0766567284 C64.4920449,0.0766567284 0.1731586,64.3957376 0.1731586,143.737203" id="path-15"></path>
        <path d="M0.1731586,143.737203 C0.1731586,223.078667 64.4920449,287.397554 143.83351,287.397554 L143.83351,287.397554 C223.175169,287.397554 287.494056,223.078667 287.494056,143.737203 L287.494056,143.737203 C287.494056,64.3957376 223.175169,0.0766567284 143.83351,0.0766567284 L143.83351,0.0766567284 C64.4920449,0.0766567284 0.1731586,64.3957376 0.1731586,143.737203 L0.1731586,143.737203 Z" id="path-17"></path>
        <path d="M0.1731586,143.737203 C0.1731586,223.078667 64.4920449,287.397554 143.83351,287.397554 L143.83351,287.397554 C223.175169,287.397554 287.494056,223.078667 287.494056,143.737203 L287.494056,143.737203 C287.494056,64.3957376 223.175169,0.0766567284 143.83351,0.0766567284 L143.83351,0.0766567284 C64.4920449,0.0766567284 0.1731586,64.3957376 0.1731586,143.737203 L0.1731586,143.737203 Z" id="path-19"></path>
        <path d="M0.1731586,143.737203 C0.1731586,223.078667 64.4920449,287.397554 143.83351,287.397554 L143.83351,287.397554 C223.175169,287.397554 287.494056,223.078667 287.494056,143.737203 L287.494056,143.737203 C287.494056,64.3957376 223.175169,0.0766567284 143.83351,0.0766567284 L143.83351,0.0766567284 C64.4920449,0.0766567284 0.1731586,64.3957376 0.1731586,143.737203" id="path-21"></path>
        <path d="M0.1731586,143.737203 C0.1731586,223.078667 64.4920449,287.397554 143.83351,287.397554 L143.83351,287.397554 C223.175169,287.397554 287.494056,223.078667 287.494056,143.737203 L287.494056,143.737203 C287.494056,64.3957376 223.175169,0.0766567284 143.83351,0.0766567284 L143.83351,0.0766567284 C64.4920449,0.0766567284 0.1731586,64.3957376 0.1731586,143.737203 L0.1731586,143.737203 Z" id="path-23"></path>
        <path d="M0.1731586,143.737203 C0.1731586,223.078667 64.4920449,287.397554 143.83351,287.397554 L143.83351,287.397554 C223.175169,287.397554 287.494056,223.078667 287.494056,143.737203 L287.494056,143.737203 C287.494056,64.3957376 223.175169,0.0766567284 143.83351,0.0766567284 L143.83351,0.0766567284 C64.4920449,0.0766567284 0.1731586,64.3957376 0.1731586,143.737203 L0.1731586,143.737203 Z" id="path-25"></path>
        <path d="M0.1731586,143.737203 C0.1731586,223.078667 64.4920449,287.397554 143.83351,287.397554 L143.83351,287.397554 C223.175169,287.397554 287.494056,223.078667 287.494056,143.737203 L287.494056,143.737203 C287.494056,64.3957376 223.175169,0.0766567284 143.83351,0.0766567284 L143.83351,0.0766567284 C64.4920449,0.0766567284 0.1731586,64.3957376 0.1731586,143.737203" id="path-27"></path>
        <path d="M0.1731586,143.737203 C0.1731586,223.078667 64.4920449,287.397554 143.83351,287.397554 L143.83351,287.397554 C223.175169,287.397554 287.494056,223.078667 287.494056,143.737203 L287.494056,143.737203 C287.494056,64.3957376 223.175169,0.0766567284 143.83351,0.0766567284 L143.83351,0.0766567284 C64.4920449,0.0766567284 0.1731586,64.3957376 0.1731586,143.737203 L0.1731586,143.737203 Z" id="path-29"></path>
        <path d="M0.1731586,143.737203 C0.1731586,223.078667 64.4920449,287.397554 143.83351,287.397554 L143.83351,287.397554 C223.175169,287.397554 287.494056,223.078667 287.494056,143.737203 L287.494056,143.737203 C287.494056,64.3957376 223.175169,0.0766567284 143.83351,0.0766567284 L143.83351,0.0766567284 C64.4920449,0.0766567284 0.1731586,64.3957376 0.1731586,143.737203 L0.1731586,143.737203 Z" id="path-31"></path>
        <path d="M0.1731586,143.737203 C0.1731586,223.078667 64.4920449,287.397554 143.83351,287.397554 L143.83351,287.397554 C223.175169,287.397554 287.494056,223.078667 287.494056,143.737203 L287.494056,143.737203 C287.494056,64.3957376 223.175169,0.0766567284 143.83351,0.0766567284 L143.83351,0.0766567284 C64.4920449,0.0766567284 0.1731586,64.3957376 0.1731586,143.737203" id="path-33"></path>
        <path d="M0.1731586,143.737203 C0.1731586,223.078667 64.4920449,287.397554 143.83351,287.397554 L143.83351,287.397554 C223.175169,287.397554 287.494056,223.078667 287.494056,143.737203 L287.494056,143.737203 C287.494056,64.3957376 223.175169,0.0766567284 143.83351,0.0766567284 L143.83351,0.0766567284 C64.4920449,0.0766567284 0.1731586,64.3957376 0.1731586,143.737203 L0.1731586,143.737203 Z" id="path-35"></path>
        <path d="M0.1731586,143.737203 C0.1731586,223.078667 64.4920449,287.397554 143.83351,287.397554 L143.83351,287.397554 C223.175169,287.397554 287.494056,223.078667 287.494056,143.737203 L287.494056,143.737203 C287.494056,64.3957376 223.175169,0.0766567284 143.83351,0.0766567284 L143.83351,0.0766567284 C64.4920449,0.0766567284 0.1731586,64.3957376 0.1731586,143.737203 L0.1731586,143.737203 Z" id="path-37"></path>
        <path d="M0.1731586,143.737203 C0.1731586,223.078667 64.4920449,287.397554 143.83351,287.397554 L143.83351,287.397554 C223.175169,287.397554 287.494056,223.078667 287.494056,143.737203 L287.494056,143.737203 C287.494056,64.3957376 223.175169,0.0766567284 143.83351,0.0766567284 L143.83351,0.0766567284 C64.4920449,0.0766567284 0.1731586,64.3957376 0.1731586,143.737203" id="path-39"></path>
        <path d="M0.1731586,143.737203 C0.1731586,223.078667 64.4920449,287.397554 143.83351,287.397554 L143.83351,287.397554 C223.175169,287.397554 287.494056,223.078667 287.494056,143.737203 L287.494056,143.737203 C287.494056,64.3957376 223.175169,0.0766567284 143.83351,0.0766567284 L143.83351,0.0766567284 C64.4920449,0.0766567284 0.1731586,64.3957376 0.1731586,143.737203 L0.1731586,143.737203 Z" id="path-41"></path>
        <path d="M0.1731586,143.737203 C0.1731586,223.078667 64.4920449,287.397554 143.83351,287.397554 L143.83351,287.397554 C223.175169,287.397554 287.494056,223.078667 287.494056,143.737203 L287.494056,143.737203 C287.494056,64.3957376 223.175169,0.0766567284 143.83351,0.0766567284 L143.83351,0.0766567284 C64.4920449,0.0766567284 0.1731586,64.3957376 0.1731586,143.737203 L0.1731586,143.737203 Z" id="path-43"></path>
        <path d="M0.1731586,143.737203 C0.1731586,223.078667 64.4920449,287.397554 143.83351,287.397554 L143.83351,287.397554 C223.175169,287.397554 287.494056,223.078667 287.494056,143.737203 L287.494056,143.737203 C287.494056,64.3957376 223.175169,0.0766567284 143.83351,0.0766567284 L143.83351,0.0766567284 C64.4920449,0.0766567284 0.1731586,64.3957376 0.1731586,143.737203" id="path-45"></path>
        <path d="M0.1731586,143.737203 C0.1731586,223.078667 64.4920449,287.397554 143.83351,287.397554 L143.83351,287.397554 C223.175169,287.397554 287.494056,223.078667 287.494056,143.737203 L287.494056,143.737203 C287.494056,64.3957376 223.175169,0.0766567284 143.83351,0.0766567284 L143.83351,0.0766567284 C64.4920449,0.0766567284 0.1731586,64.3957376 0.1731586,143.737203 L0.1731586,143.737203 Z" id="path-47"></path>
        <path d="M0.1731586,143.737203 C0.1731586,223.078667 64.4920449,287.397554 143.83351,287.397554 L143.83351,287.397554 C223.175169,287.397554 287.494056,223.078667 287.494056,143.737203 L287.494056,143.737203 C287.494056,64.3957376 223.175169,0.0766567284 143.83351,0.0766567284 L143.83351,0.0766567284 C64.4920449,0.0766567284 0.1731586,64.3957376 0.1731586,143.737203 L0.1731586,143.737203 Z" id="path-49"></path>
        <path d="M143.83351,287.397554 C223.175169,287.397554 287.494056,223.078667 287.494056,143.737203 C287.494056,64.3957376 223.175169,0.0766567284 143.83351,0.0766567284 C64.4920449,0.0766567284 0.1731586,64.3957376 0.1731586,143.737203 C0.1731586,223.078667 64.4920449,287.397554 143.83351,287.397554 Z" id="path-51"></path>
        <path d="M210.911557,0.787004819 C131.301498,0.787004819 66.7648055,65.3238177 66.7648055,144.933951 C66.7648055,224.544048 131.301461,289.080703 210.911557,289.080703 C290.521818,289.080703 355.058504,224.544078 355.058504,144.933951 C355.058504,65.3237875 290.521781,0.787004819 210.911557,0.787004819 Z M210.911557,1.75980594 C289.984518,1.75980594 354.085702,65.8610506 354.085702,144.933951 C354.085702,224.006814 289.984555,288.107902 210.911557,288.107902 C131.838724,288.107902 67.7376066,224.006784 67.7376066,144.933951 C67.7376066,65.8610805 131.838761,1.75980594 210.911557,1.75980594 Z" id="path-53"></path>
    </defs>
    <g id="Page-1" stroke="none" stroke-width="1" fill="none" fill-rule="evenodd">
        <g id="Apply" transform="translate(-487.000000, -947.000000)">
            <g id="illus-deploy" transform="translate(489.000000, 949.146315)">
                <mask id="mask-2" fill="white">
                    <use xlink:href="#path-1"></use>
                </mask>
                <circle stroke="#C7DCF6" stroke-width="2" cx="117" cy="116.097941" r="117.097941"></circle>
                <g id="Group-134" mask="url(#mask-2)">
                    <g transform="translate(-154.000000, -30.133001)">
                        <g id="Group-131" stroke="none" stroke-width="1" fill="none" fill-rule="evenodd" transform="translate(0.078067, 1.196749)">
                            <g id="Group-3" transform="translate(103.000000, 57.000000)" fill="#E2EDFA">
                                <path d="M282.635215,0.779016755 C277.940088,0.779016755 277.940088,3.14856573 273.244766,3.14856573 C268.549833,3.14856573 268.549833,0.779016755 263.854511,0.779016755 C259.159384,0.779016755 259.159384,3.14856573 254.464257,3.14856573 C249.769129,3.14856573 249.769129,0.779016755 245.074197,0.779016755 C240.379264,0.779016755 240.379264,3.14856573 235.684331,3.14856573 C230.989204,3.14856573 230.989204,0.779016755 226.294271,0.779016755 C221.598949,0.779016755 221.598949,3.14856573 216.903627,3.14856573 C212.208694,3.14856573 212.208694,0.779016755 207.513762,0.779016755 C202.81844,0.779016755 202.81844,3.14856573 198.123312,3.14856573 C193.428185,3.14856573 193.428185,0.779016755 188.733058,0.779016755 C184.03793,0.779016755 184.03793,3.14856573 179.342998,3.14856573 C174.647676,3.14856573 174.647676,0.779016755 169.952548,0.779016755 C165.257421,0.779016755 165.257421,3.14856573 160.562099,3.14856573 C155.867361,3.14856573 155.867361,0.779016755 151.172623,0.779016755 C146.477301,0.779016755 146.477301,3.14856573 141.781979,3.14856573 C137.087241,3.14856573 137.087241,0.779016755 132.392308,0.779016755 C127.697181,0.779016755 127.697181,3.14856573 123.002248,3.14856573 C118.307121,3.14856573 118.307121,0.779016755 113.612188,0.779016755 C108.917255,0.779016755 108.917255,3.14856573 104.222128,3.14856573 C99.5270004,3.14856573 99.5270004,0.779016755 94.831873,0.779016755 C90.1365511,0.779016755 90.1365511,3.14856573 85.4412292,3.14856573 C80.7457128,3.14856573 80.7457128,0.779016755 76.0501963,0.779016755 C71.3548744,0.779016755 71.3548744,3.14856573 66.6597471,3.14856573 C61.9642307,3.14856573 61.9642307,0.779016755 57.2687142,0.779016755 C52.5733923,0.779016755 52.5733923,3.14856573 47.878265,3.14856573 C43.1831376,3.14856573 43.1831376,0.779016755 38.4876212,0.779016755 C33.7921047,0.779016755 33.7921047,3.14856573 29.0965883,3.14856573 C24.4012664,3.14856573 24.4012664,0.779016755 19.7059445,0.779016755 C15.0098444,0.779016755 15.0098444,3.14856573 10.3137442,3.14856573 C5.89197402,3.14856573 5.66784064,1.31969962 1.74083707,0.851587719 C1.58343785,0.936026856 1.25307459,0.99167108 0.921933086,1.04692618 L0.921933086,234.038048 L292.02547,234.038048 L292.02547,3.14934397 C287.383068,3.43456926 287.314389,0.779016755 282.635215,0.779016755" id="Fill-1"></path>
                            </g>
                            <g id="Group-10">
                                <g id="Group-6" transform="translate(0.000000, 236.000000)" fill="#C4D7E9">
                                    <path d="M348.950198,53.0212561 C346.306319,55.6032648 346.760812,53.8028045 343.065335,53.8028045 C339.369469,53.8028045 339.369469,52.8387586 335.673798,52.8387586 C331.978126,52.8387586 331.978126,52.8381749 328.282455,52.8381749 C324.586589,52.8381749 324.586589,55.8519128 320.890917,55.8519128 C317.195246,55.8519128 317.195246,56.2229391 313.499769,56.2229391 C309.803903,56.2229391 309.803903,56.01904 306.108231,56.01904 C302.41256,56.01904 302.41256,55.679727 298.717083,55.679727 C295.021217,55.679727 295.021217,55.5373089 291.325546,55.5373089 C287.62968,55.5373089 287.62968,55.9425778 283.933813,55.9425778 C280.238337,55.9425778 280.238337,51.2686576 276.542665,51.2686576 C272.846994,51.2686576 272.846994,52.6286335 269.151322,52.6286335 C265.455262,52.6286335 265.455262,55.4180435 261.759201,55.4180435 C258.06353,55.4180435 258.06353,52.5973094 254.367858,52.5973094 C250.672187,52.5973094 250.672187,56.9284145 246.976515,56.9284145 C243.280844,56.9284145 243.280844,55.0746447 239.584978,55.0746447 C235.889306,55.0746447 235.889306,52.0093484 232.19344,52.0093484 C228.49738,52.0093484 228.49738,57.9804016 224.801514,57.9804016 C221.105648,57.9804016 221.105648,54.1590443 217.409587,54.1590443 C213.713721,54.1590443 213.713721,53.040323 210.017855,53.040323 C206.321794,53.040323 206.321794,56.6482478 202.625928,56.6482478 C198.930062,56.6482478 198.930062,57.0912614 195.234391,57.0912614 C191.538525,57.0912614 191.538525,52.6360268 187.842464,52.6360268 C184.146793,52.6360268 184.146793,51.6704244 180.450927,51.6704244 C176.754866,51.6704244 176.754866,55.9373247 173.059,55.9373247 C169.363329,55.9373247 169.363329,54.5366857 165.667852,54.5366857 C161.971986,54.5366857 161.971986,51.1112584 158.27612,51.1112584 C154.580448,51.1112584 154.580448,57.2437966 150.884777,57.2437966 C147.1893,57.2437966 147.1893,57.375903 143.493823,57.375903 C139.798152,57.375903 139.798152,53.6335371 136.102675,53.6335371 C132.407198,53.6335371 132.407198,55.4709639 128.711526,55.4709639 C125.015466,55.4709639 125.015466,56.3665246 121.319794,56.3665246 C117.623734,56.3665246 117.623734,57.9739811 113.927479,57.9739811 C110.231807,57.9739811 110.231807,55.2818513 106.535941,55.2818513 C102.839881,55.2818513 102.839881,56.3702212 99.1440145,56.3702212 C95.4481485,56.3702212 95.4481485,56.2978448 91.7522825,56.2978448 C88.0562219,56.2978448 88.0562219,55.0586907 84.3603559,55.0586907 C80.6641007,55.0586907 80.6641007,55.9846029 76.9682347,55.9846029 C73.2719796,55.9846029 73.2719796,52.6393344 69.5757244,52.6393344 C65.8794693,52.6393344 65.8794693,56.3490142 62.1832142,56.3490142 C58.4871536,56.3490142 58.4871536,55.195272 54.7908984,55.195272 C51.095227,55.195272 51.095227,55.6520994 47.3995555,55.6520994 C43.7033004,55.6520994 43.7033004,57.280374 40.0070452,57.280374 C36.3107901,57.280374 36.3107901,53.062892 32.614535,53.062892 C28.9182798,53.062892 28.9182798,54.5133384 25.2218301,54.5133384 C21.5253804,54.5133384 21.5253804,54.5627567 17.8289307,54.5627567 C14.1322864,54.5627567 14.1322864,54.1314167 10.4354476,54.1314167 C6.7386088,54.1314167 6.5483289,56.2632131 3.90269897,53.6812044 C1.32069023,51.1608712 0.0712244727,50.9552211 0.0712244727,47.3471017 C0.0712244727,43.7385932 0.536612529,43.7385932 0.536612529,40.1300847 C0.536612529,36.5213817 0.19068445,36.5213817 0.19068445,32.9128732 C0.19068445,29.3043647 5.36637554,29.3043647 5.36637554,25.6954671 C5.36637554,22.0869587 5.40295286,22.0869587 5.40295286,18.4782556 C5.40295286,14.8691635 3.13496432,14.8691635 3.13496432,11.2598767 C3.13496432,7.65097913 0.406646299,6.50910518 2.98865504,3.98760467 C5.63253392,1.40540137 6.73744144,4.57712215 10.4329183,4.57712215 C14.1285898,4.57712215 14.1285898,1.74257424 17.8242613,1.74257424 C21.5199327,1.74257424 21.5199327,5.31956397 25.2154096,5.31956397 C28.9112756,5.31956397 28.9112756,4.0442217 32.6071417,4.0442217 C36.3028131,4.0442217 36.3028131,7.33306773 39.99829,7.33306773 C43.694156,7.33306773 43.694156,5.9538303 47.3898275,5.9538303 C51.085499,5.9538303 51.085499,6.75094354 54.7809759,6.75094354 C58.4766473,6.75094354 58.4766473,3.19710648 62.1725133,3.19710648 C65.8683794,3.19710648 65.8683794,4.05414427 69.5642454,4.05414427 C73.2597223,4.05414427 73.2597223,2.59377522 76.9553937,2.59377522 C80.6510652,2.59377522 80.6510652,6.25617689 84.3467367,6.25617689 C88.0427973,6.25617689 88.0427973,0.807128685 91.7386633,0.807128685 C95.4343347,0.807128685 95.4343347,5.62658 99.1302008,5.62658 C102.825872,5.62658 102.825872,4.12885539 106.521544,4.12885539 C110.217215,4.12885539 110.217215,5.78106082 113.913081,5.78106082 C117.608753,5.78106082 117.608753,2.92005272 121.304619,2.92005272 C125.000485,2.92005272 125.000485,5.14445976 128.696351,5.14445976 C132.392411,5.14445976 132.392411,5.12072342 136.088472,5.12072342 C139.784338,5.12072342 139.784338,0.87289004 143.480204,0.87289004 C147.176264,0.87289004 147.176264,5.28590505 150.87213,5.28590505 C154.567997,5.28590505 154.567997,7.36789401 158.263668,7.36789401 C161.959534,7.36789401 161.959534,3.96561937 165.6554,3.96561937 C169.351071,3.96561937 169.351071,7.05912693 173.047132,7.05912693 C176.743193,7.05912693 176.743193,3.14399154 180.439059,3.14399154 C184.13473,3.14399154 184.13473,6.80911704 187.830207,6.80911704 C191.526073,6.80911704 191.526073,5.23648675 195.222134,5.23648675 C198.917611,5.23648675 198.917611,1.31629279 202.613087,1.31629279 C206.308759,1.31629279 206.308759,0.618016147 210.004236,0.618016147 C213.699907,0.618016147 213.699907,6.30637342 217.395384,6.30637342 C221.091056,6.30637342 221.091056,1.54840314 224.786532,1.54840314 C228.482399,1.54840314 228.482399,0.754597424 232.17807,0.754597424 C235.874325,0.754597424 235.874325,2.99748769 239.57058,2.99748769 C243.266446,2.99748769 243.266446,4.63646302 246.962118,4.63646302 C250.658178,4.63646302 250.658178,6.81689945 254.354044,6.81689945 C258.04991,6.81689945 258.04991,3.84012802 261.745776,3.84012802 C265.441837,3.84012802 265.441837,6.45073711 269.137703,6.45073711 C272.833764,6.45073711 272.833764,3.33582792 276.52963,3.33582792 C280.225885,3.33582792 280.225885,0.855963301 283.922334,0.855963301 C287.61859,0.855963301 287.61859,2.38968155 291.314845,2.38968155 C295.010905,2.38968155 295.010905,3.200414 298.70716,3.200414 C302.402832,3.200414 302.402832,2.97316766 306.098503,2.97316766 C309.794758,2.97316766 309.794758,3.10644142 313.491014,3.10644142 C317.187269,3.10644142 317.187269,5.06332815 320.883524,5.06332815 C324.579779,5.06332815 324.579779,2.80448395 328.276229,2.80448395 C331.972678,2.80448395 331.972678,4.29637175 335.668934,4.29637175 C339.365772,4.29637175 339.365772,3.41968338 343.062611,3.41968338 C346.75945,3.41968338 348.784044,0.462367967 351.429479,3.04457126 C354.011682,5.56470985 350.308229,7.65000633 350.308229,11.2579311 C350.308229,14.8666342 349.152152,14.8666342 349.152152,18.4749481 C349.152152,22.0834566 352.073668,22.0834566 352.073668,25.6919651 C352.073668,29.3008627 351.033744,29.3008627 351.033744,32.9095657 C351.033744,36.5182687 352.0332,36.5182687 352.0332,40.1267772 C352.0332,43.7358694 351.110595,43.6485118 351.482983,47.2383425 C351.801284,50.308892 351.532207,50.499561 348.950198,53.0212561" id="Fill-4"></path>
                                </g>
                                <g id="Group-9" transform="translate(67.000000, 0.000000)">
                                    <mask id="mask-4" fill="white">
                                        <use xlink:href="#path-3"></use>
                                    </mask>
                                    <g id="Clip-8"></g>
                                    <path d="M166.708811,244.590472 C166.093223,243.941808 164.712429,241.790361 163.392532,238.54782 C162.598921,236.598521 160.658767,234.66362 159.817683,232.301075 C159.041777,230.120833 159.871381,227.246984 159.182249,225.037753 C158.435916,222.644662 161.314629,219.414962 160.819668,217.365854 C160.034812,214.117087 157.82597,212.502432 158.177929,211.39733 C158.543897,210.247868 156.80375,206.975754 154.086911,204.868862 C152.504748,203.64177 148.68806,205.014198 146.64401,203.682822 C144.782263,202.470129 143.807906,199.729164 141.90355,198.558301 C139.841406,197.290935 135.740077,199.47001 134.024834,198.401485 C130.868094,196.435065 130.65972,191.526505 130.65972,190.983098 C130.65972,190.365564 128.728905,185.732502 130.644739,182.111152 C131.760542,180.002119 134.872144,178.571907 136.151961,176.180567 C137.430222,173.792146 137.472247,170.813624 138.557893,168.683773 C140.336757,165.193946 143.512174,163.870158 143.512174,162.987439 C143.512174,162.21056 141.372401,161.899263 138.918607,159.599172 C137.505516,158.274606 138.971722,153.240555 137.191496,151.744192 C135.555245,150.368846 132.584115,150.421183 130.902726,149.098173 C129.076389,147.661541 126.67396,147.122998 125.106193,145.980929 C122.281762,143.923455 120.318455,145.263391 119.809291,145.263391 C119.364332,145.263391 116.26596,140.561065 112.362109,141.19397 C110.273505,141.532699 107.582348,140.371174 105.008317,140.801542 C102.729433,141.182491 100.846673,144.689439 98.4473568,145.096264 C96.0470673,145.503089 93.2685527,143.7001 90.9920035,144.08922 C88.4175826,144.52951 86.3780078,147.158408 84.2952406,147.516788 C80.0715327,148.243665 79.6929185,153.782211 76.270215,152.703374 C73.0949922,151.702556 72.6747421,150.876065 69.7627592,149.262188 C66.8507763,147.648311 68.9724556,143.820533 66.0604727,142.206656 C63.1484898,140.592389 64.4796709,138.190349 61.5674934,136.576277 C58.655316,134.962206 55.7937242,141.206616 52.6774531,140.034002 C49.7683886,138.939406 50.2047872,139.604607 47.160698,138.97715 C44.1158304,138.349694 44.9207261,134.443897 41.8762477,133.81644 C38.8313802,133.188984 38.7152277,131.153495 35.6279461,131.517322 C32.010877,131.943798 33.8002474,137.478648 30.4310479,138.861971 C27.0618485,140.245489 25.7154918,136.966176 22.3462924,138.349499 C18.9767039,139.733211 19.8598127,141.883491 16.4900296,143.267203 C13.1204411,144.650721 12.0569749,141.625504 8.50897467,142.450245 C4.90747036,143.287438 5.33375181,144.758702 1.27580921,144.178523 C-1.0583298,143.845047 -3.18253833,140.29802 -5.56998684,139.929912 C-8.72516999,139.443511 -11.3161285,138.706906 -12.6543137,138.393664 C-13.6985184,138.149102 -16.9457286,140.657373 -19.9446799,142.512699 C-21.749226,143.628891 -23.0169804,146.140274 -25.0909924,147.614457 C-26.9978771,148.969958 -28.8660444,150.492003 -30.733628,151.904899 C-32.7617238,153.439006 -35.4818703,153.910231 -37.1486677,155.223124 C-40.4277857,157.806105 -41.0422069,156.754313 -41.829203,160.219236 C-42.6409083,163.793307 -46.0885155,163.85615 -46.0024142,167.520303 C-45.9130221,171.184455 -42.980805,171.114219 -42.8930583,174.778372 C-42.8051171,178.442719 -43.2771202,178.453809 -43.1893736,182.118156 C-43.1014323,185.782698 -39.5781412,185.698259 -39.4903946,189.362801 C-39.4024534,193.027343 -39.1748179,193.0217 -39.0870712,196.686242 C-38.9993246,200.35059 -44.7841837,200.489311 -44.6964371,204.153658 C-44.6084958,207.817811 -41.9264832,207.753411 -41.8387365,211.41737 C-41.7507953,215.081911 -45.1180491,215.162654 -45.0303024,218.827001 C-44.9423612,222.491543 -41.512459,222.409244 -41.4247123,226.073786 C-41.3369657,229.738522 -39.4625725,229.693579 -39.3748258,233.358315 C-39.28669,237.022857 -41.8696716,237.084727 -41.7819249,240.749269 C-41.6937891,244.414395 -40.9029018,244.395328 -40.8151552,248.060453 C-40.7272139,251.725579 -39.6855385,251.318364 -38.3989117,254.751379 C-37.1294063,258.138673 -37.4350604,254.55429 -32.8078346,254.703323 C-30.7727346,254.768501 -28.2498722,251.808267 -25.4810856,251.896208 C-23.2788585,251.966055 -20.9464705,254.736204 -18.3362505,254.818113 C-16.0655381,254.889517 -13.6718637,255.66484 -11.1274051,255.743831 C-8.81894802,255.815235 -6.52975242,259.97143 -4.02187113,260.048281 C-1.68889948,260.119685 0.757111657,259.164394 3.24203484,259.239689 C5.59193323,259.310898 7.98035454,260.238756 10.4487401,260.312689 C12.8110904,260.383314 15.2469844,259.717529 17.7033072,259.7901 C20.0753854,259.860142 22.6346306,254.935044 25.0812255,255.006253 C27.4618644,255.075906 29.7080622,260.901817 32.1468746,260.971859 C34.5343231,261.040539 37.0692482,256.842902 39.5010565,256.911776 C41.8947309,256.979483 44.3302358,256.207079 46.7560127,256.274786 C49.1553294,256.341325 51.4575605,260.398101 53.8775006,260.464251 C56.2822649,260.529818 58.8467633,254.95236 61.2614502,255.016954 C63.6718568,255.081548 65.9719478,259.379967 68.3823544,259.443005 C70.7974305,259.506237 73.1951907,260.173384 75.6001496,260.23467 C78.0208679,260.29654 80.4799146,258.536743 82.879815,258.596084 C85.3061755,258.656203 87.6848688,260.143032 90.0793215,260.200038 C92.5121026,260.258406 94.9372958,259.83193 97.3257171,259.886991 C99.7649186,259.943024 102.225911,257.833408 104.606939,257.885744 C107.054312,257.939249 109.441566,259.151359 111.814422,259.200388 C114.271523,259.251168 116.630955,262.102643 118.993889,262.147586 C121.463248,262.194864 123.982608,256.38121 126.332895,256.421679 C128.818986,256.464482 131.138728,262.346232 133.472088,262.380866 C135.981915,262.41783 138.466255,257.183966 140.775879,257.210426 C143.322283,257.239999 145.720238,258.032054 147.991923,258.047424 C150.604478,258.065129 153.005935,257.15556 155.208357,257.152836 C157.981423,257.149334 160.451755,262.16821 162.48452,262.128714 C167.063495,262.039994 169.522736,259.862671 169.522736,259.559352 C169.522736,258.321948 167.215446,255.350041 166.806481,252.178515 C166.310352,248.32953 167.689784,248.303653 166.708811,244.590472" id="Fill-7" fill="#C4D7E9" mask="url(#mask-4)"></path>
                                </g>
                            </g>
                            <g id="Group-13" transform="translate(67.000000, 0.000000)">
                                <mask id="mask-6" fill="white">
                                    <use xlink:href="#path-5"></use>
                                </mask>
                                <g id="Clip-12"></g>
                                <path d="M60.3455268,60.8956664 C60.5186281,60.5022543 60.977878,60.3236571 61.3712901,60.4967585 C62.1233813,60.8276786 63.1611516,61.7132426 64.1586021,63.3889594 C65.755227,66.0712893 66.7001089,70.0019979 66.7001089,75.4119904 C66.7001089,87.1852287 69.0966007,93.2335176 76.1678879,99.5403413 C83.5208589,106.098396 91.6610981,109.341068 102.110824,109.456815 L111.989468,109.449626 C124.870383,109.453363 132.685158,109.601789 141.80903,110.118035 C143.059599,110.188794 144.290938,110.265786 145.503603,110.34926 L149.579234,110.638754 C157.213347,111.16307 161.618996,111.305035 166.018903,111.264308 L169.643094,111.212102 L170.833121,111.21479 C177.114351,111.255807 180.931365,110.465709 186.709331,106.85448 L187.175218,106.559999 C188.817026,105.51068 190.59417,104.253867 193.063522,102.416922 L198.59026,98.2648634 C205.333664,93.2320958 207.810692,91.703325 210.065143,91.3867931 L210.179604,91.3717318 C216.249501,90.6263059 220.96142,94.4527641 221.169375,100.483439 L221.264167,103.355854 C221.455894,109.495445 221.501629,113.599789 221.391245,118.652114 L221.344568,120.464992 C221.23436,123.925373 220.861802,131.809946 220.300639,142.827709 L219.748074,153.520557 L219.027196,167.111917 L218.955127,168.108964 L218.874112,169.377802 C218.856307,169.67471 218.838702,169.981186 218.821431,170.29644 L218.795791,170.775806 C218.626114,174.026462 218.536948,177.307429 218.571102,180.364772 C218.608471,183.709901 218.792982,186.549227 219.147637,188.71674 L219.211994,189.092234 C219.658436,191.579553 220.382837,194.93057 221.340104,199.016703 L222.450151,203.647956 C223.431393,207.667123 224.791929,213.138055 224.846551,213.374755 L225.213522,214.98009 L225.410137,215.880211 C225.594362,216.74607 225.742628,217.517339 225.865866,218.267789 C226.102307,219.707579 226.228403,220.978504 226.228403,222.1104 C226.228403,222.54021 225.879973,222.88864 225.450162,222.88864 C225.020351,222.88864 224.671921,222.54021 224.671921,222.1104 C224.671921,221.073724 224.553779,219.882963 224.329957,218.520015 C224.210871,217.794851 224.066702,217.045104 223.886763,216.199598 L223.301659,213.607963 C223.064409,212.638632 221.466838,206.210837 220.56089,202.465893 L220.297709,201.371588 C220.134681,200.688513 219.977018,200.022109 219.824653,199.371731 L219.300107,197.103843 C218.59387,194.006859 218.046139,191.407163 217.679994,189.367209 C217.265009,187.055149 217.055167,184.00303 217.014717,180.382159 C216.984471,177.674675 217.04961,174.800267 217.181097,171.926003 L217.241425,170.694672 C217.275526,170.041378 217.311254,169.421777 217.347532,168.842146 L217.494201,166.6385 L218.076775,155.669178 L219.105074,135.607946 C219.498738,127.650079 219.747835,122.104887 219.808171,119.751773 L219.846663,118.06478 C219.955807,112.557587 219.873763,108.075505 219.613818,100.537079 C219.437979,95.4377517 215.549983,92.2803864 210.369332,92.9166068 L210.170779,92.9454697 C208.328925,93.2543609 205.852263,94.8026507 199.807162,99.3004913 L194.343522,103.404247 C191.41601,105.588978 189.430008,106.989535 187.534265,108.174374 C181.614457,111.874254 177.574126,112.770931 171.297929,112.77275 L169.827901,112.767806 L166.033504,112.820721 C161.172008,112.865727 156.304349,112.689836 147.196522,112.030899 L146.596479,111.987238 C145.402741,111.899891 144.190414,111.819063 142.958956,111.744506 L140.657459,111.613208 C131.660761,111.12735 123.709802,110.999056 110.447214,111.006325 L103.738491,111.016092 L102.69375,111.016511 C91.5763513,111.016511 82.9030148,107.632957 75.1318705,100.701937 C67.7091882,94.0817064 65.1436271,87.6067188 65.1436271,75.4119904 C65.1436271,70.2670908 64.2645069,66.6099506 62.8211283,64.1850747 C62.3327698,63.3646323 61.8180704,62.7552283 61.3126921,62.3239721 L61.1164819,62.1645114 C60.9965967,62.0722112 60.8992952,62.0073016 60.8290207,61.9660442 L60.7444347,61.9214296 C60.3510226,61.7483283 60.1724255,61.2890785 60.3455268,60.8956664 Z" id="Stroke-11" fill="#FFDB2C" fill-rule="nonzero" mask="url(#mask-6)"></path>
                            </g>
                            <g id="Group-16" transform="translate(67.000000, 0.000000)">
                                <mask id="mask-8" fill="white">
                                    <use xlink:href="#path-7"></use>
                                </mask>
                                <g id="Clip-15"></g>
                                <path d="M219.433484,98.9864637 C217.18145,95.3499385 213.667303,94.2218784 209.204481,94.7707327 C207.222106,95.0145167 204.716171,96.0524955 201.549509,98.3829379 C201.116807,98.701433 200.023767,97.2000117 200.397323,96.8134205 C203.567682,93.5337188 206.170898,90.7686289 208.207943,89.7053573 C208.231679,89.7121669 209.399041,84.8481613 209.399041,84.8481613 L211.733763,84.8481613 C211.733763,84.8481613 213.095685,89.9067271 213.12234,89.7894073 C214.697888,90.373088 216.082963,91.5922024 217.475625,92.6978881 C219.3757,94.2065081 220.829065,96.0861544 221.33998,98.5979269 C221.447183,99.1249906 219.681354,99.3868686 219.433484,98.9864637" id="Fill-14" fill="#168DBD" mask="url(#mask-8)"></path>
                            </g>
                            <g id="Group-19" transform="translate(67.000000, 0.000000)">
                                <mask id="mask-10" fill="white">
                                    <use xlink:href="#path-9"></use>
                                </mask>
                                <g id="Clip-18"></g>
                            </g>
                            <g id="Group-22" transform="translate(67.000000, 0.000000)">
                                <mask id="mask-12" fill="white">
                                    <use xlink:href="#path-11"></use>
                                </mask>
                                <g id="Clip-21"></g>
                            </g>
                            <g id="Group-25" transform="translate(67.000000, 0.000000)">
                                <mask id="mask-14" fill="white">
                                    <use xlink:href="#path-13"></use>
                                </mask>
                                <g id="Clip-24"></g>
                            </g>
                            <g id="Group-28" transform="translate(67.000000, 0.000000)">
                                <mask id="mask-16" fill="white">
                                    <use xlink:href="#path-15"></use>
                                </mask>
                                <g id="Clip-27"></g>
                            </g>
                            <g id="Group-31" transform="translate(67.000000, 0.000000)">
                                <mask id="mask-18" fill="white">
                                    <use xlink:href="#path-17"></use>
                                </mask>
                                <g id="Clip-30"></g>
                            </g>
                            <g id="Group-34" transform="translate(67.000000, 0.000000)">
                                <mask id="mask-20" fill="white">
                                    <use xlink:href="#path-19"></use>
                                </mask>
                                <g id="Clip-33"></g>
                            </g>
                            <g id="Group-37" transform="translate(67.000000, 0.000000)">
                                <mask id="mask-22" fill="white">
                                    <use xlink:href="#path-21"></use>
                                </mask>
                                <g id="Clip-36"></g>
                            </g>
                            <g id="Group-40" transform="translate(67.000000, 0.000000)">
                                <mask id="mask-24" fill="white">
                                    <use xlink:href="#path-23"></use>
                                </mask>
                                <g id="Clip-39"></g>
                            </g>
                            <g id="Group-43" transform="translate(67.000000, 0.000000)">
                                <mask id="mask-26" fill="white">
                                    <use xlink:href="#path-25"></use>
                                </mask>
                                <g id="Clip-42"></g>
                            </g>
                            <g id="Group-46" transform="translate(67.000000, 0.000000)">
                                <mask id="mask-28" fill="white">
                                    <use xlink:href="#path-27"></use>
                                </mask>
                                <g id="Clip-45"></g>
                            </g>
                            <g id="Group-49" transform="translate(67.000000, 0.000000)">
                                <mask id="mask-30" fill="white">
                                    <use xlink:href="#path-29"></use>
                                </mask>
                                <g id="Clip-48"></g>
                            </g>
                            <g id="Group-52" transform="translate(67.000000, 0.000000)">
                                <mask id="mask-32" fill="white">
                                    <use xlink:href="#path-31"></use>
                                </mask>
                                <g id="Clip-51"></g>
                            </g>
                            <g id="Group-55" transform="translate(67.000000, 0.000000)">
                                <mask id="mask-34" fill="white">
                                    <use xlink:href="#path-33"></use>
                                </mask>
                                <g id="Clip-54"></g>
                            </g>
                            <g id="Group-58" transform="translate(67.000000, 0.000000)">
                                <mask id="mask-36" fill="white">
                                    <use xlink:href="#path-35"></use>
                                </mask>
                                <g id="Clip-57"></g>
                            </g>
                            <g id="Group-61" transform="translate(67.000000, 0.000000)">
                                <mask id="mask-38" fill="white">
                                    <use xlink:href="#path-37"></use>
                                </mask>
                                <g id="Clip-60"></g>
                            </g>
                            <g id="Group-64" transform="translate(67.000000, 0.000000)">
                                <mask id="mask-40" fill="white">
                                    <use xlink:href="#path-39"></use>
                                </mask>
                                <g id="Clip-63"></g>
                            </g>
                            <g id="Group-67" transform="translate(67.000000, 0.000000)">
                                <mask id="mask-42" fill="white">
                                    <use xlink:href="#path-41"></use>
                                </mask>
                                <g id="Clip-66"></g>
                            </g>
                            <g id="Group-70" transform="translate(67.000000, 0.000000)">
                                <mask id="mask-44" fill="white">
                                    <use xlink:href="#path-43"></use>
                                </mask>
                                <g id="Clip-69"></g>
                            </g>
                            <g id="Group-73" transform="translate(67.000000, 0.000000)">
                                <mask id="mask-46" fill="white">
                                    <use xlink:href="#path-45"></use>
                                </mask>
                                <g id="Clip-72"></g>
                            </g>
                            <g id="Group-76" transform="translate(67.000000, 0.000000)">
                                <mask id="mask-48" fill="white">
                                    <use xlink:href="#path-47"></use>
                                </mask>
                                <g id="Clip-75"></g>
                            </g>
                            <g id="Group-79" transform="translate(67.000000, 0.000000)">
                                <mask id="mask-50" fill="white">
                                    <use xlink:href="#path-49"></use>
                                </mask>
                                <g id="Clip-78"></g>
                            </g>
                            <g id="Group-82" transform="translate(67.000000, 0.000000)">
                                <mask id="mask-52" fill="white">
                                    <use xlink:href="#path-51"></use>
                                </mask>
                                <g id="Clip-81"></g>
                            </g>
                            <polygon id="Stroke-117" fill="#168DBD" fill-rule="nonzero" points="278.325275 65.5866991 278.325275 84.8481613 276.982683 84.8481613 276.982683 65.5866991"></polygon>
                            <path d="M285.543332,56.5396487 C285.543332,60.998969 281.928403,64.613898 277.469083,64.613898 C273.009957,64.613898 269.394834,60.998969 269.394834,56.5396487 C269.394834,52.0803283 273.009957,48.4653994 277.469083,48.4653994 C281.928403,48.4653994 285.543332,52.0803283 285.543332,56.5396487" id="Fill-118" fill="#FFFFFF"></path>
                            <path d="M277.469083,48.173559 C272.848712,48.173559 269.102993,51.9192155 269.102993,56.5396487 C269.102993,61.1600819 272.848712,64.9057383 277.469083,64.9057383 C282.089582,64.9057383 285.835173,61.160148 285.835173,56.5396487 C285.835173,51.9191494 282.089582,48.173559 277.469083,48.173559 Z M277.469083,48.7572397 C281.767224,48.7572397 285.251492,52.2415073 285.251492,56.5396487 C285.251492,60.83779 281.767224,64.3220576 277.469083,64.3220576 C273.171068,64.3220576 269.686674,60.8377218 269.686674,56.5396487 C269.686674,52.2415756 273.171068,48.7572397 277.469083,48.7572397 Z" id="Stroke-119" fill="#168DBD" fill-rule="nonzero"></path>
                            <path d="M275.718041,64.4193378 L275.718041,65.2586706 C275.718041,65.2719772 275.725257,65.2836253 275.736037,65.2899122 L275.754424,65.2948588 L279.183937,65.2948588 C279.197308,65.2948588 279.208935,65.2876865 279.2152,65.2769641 L279.220125,65.2586706 L279.220125,64.4193378 L279.803806,64.4193378 L279.803806,65.2586706 C279.803806,65.5699024 279.574549,65.8275465 279.275565,65.8718187 L279.183937,65.8785394 L275.754424,65.8785394 C275.443104,65.8785394 275.185371,65.6492027 275.141083,65.3502764 L275.13436,65.2586706 L275.13436,64.4193378 L275.718041,64.4193378 Z" id="Stroke-120" fill="#168DBD" fill-rule="nonzero"></path>
                            <path d="M287.586215,111.697472 L287.586215,111.697472 C286.565552,111.697472 285.737893,110.870008 285.737893,109.84915 L285.737893,107.514427 C285.737893,106.49357 286.565552,105.666105 287.586215,105.666105 C288.607072,105.666105 289.434537,106.49357 289.434537,107.514427 L289.434537,109.84915 C289.434537,110.870008 288.607072,111.697472 287.586215,111.697472" id="Fill-121" fill="#168DBD"></path>
                            <path d="M288.572499,203.859366 L288.572499,203.859366 C287.571681,204.06132 286.596934,203.414018 286.394786,202.413395 L285.932706,200.124977 C285.730558,199.124354 286.37786,198.149413 287.378288,197.947265 C288.379106,197.745311 289.354047,198.392613 289.556195,199.393236 L290.018276,201.681848 C290.220424,202.682277 289.573122,203.657218 288.572499,203.859366" id="Fill-122" fill="#168DBD"></path>
                            <path d="M300.068284,222.5968 L285.026833,222.5968 C284.532456,222.5968 284.104423,222.939421 283.996053,223.421541 L280.96928,236.873046 C280.820636,237.533578 281.32299,238.161618 282.000255,238.161618 L303.095058,238.161618 C303.772127,238.161618 304.274482,237.533578 304.125643,236.873046 L301.099259,223.421541 C300.990694,222.939421 300.562467,222.5968 300.068284,222.5968" id="Fill-123" fill="#FFFFFF"></path>
                            <path d="M300.068284,222.20768 L285.026833,222.20768 C284.350491,222.20768 283.764708,222.676431 283.616406,223.336204 L280.589651,236.787624 C280.38625,237.69148 281.073674,238.550739 282.000255,238.550739 L303.095058,238.550739 C304.021549,238.550739 304.708908,237.691343 304.505246,236.787509 L301.47889,223.33613 C301.330332,222.676404 300.744427,222.20768 300.068284,222.20768 Z M285.026833,222.985921 L300.068284,222.985921 C300.380459,222.985921 300.651046,223.20239 300.719644,223.507023 L303.746012,236.958457 C303.840047,237.375776 303.522743,237.772498 303.095058,237.772498 L282.000255,237.772498 C281.572397,237.772498 281.255001,237.375763 281.348907,236.958476 L284.375682,223.506963 C284.444167,223.202285 284.71455,222.985921 285.026833,222.985921 Z" id="Stroke-124" fill="#168DBD" fill-rule="nonzero"></path>
                            <path d="M288.942436,113.982232 C288.942436,113.982232 288.868308,114.593151 288.296301,114.709498 C287.724294,114.82604 287.798616,114.21512 287.226609,114.331662 C286.654602,114.448204 286.418795,115.102315 286.418795,115.102315 L286.418795,116.853357 C286.418795,116.853357 286.654602,116.199246 287.226609,116.082704 C287.798616,115.966162 287.724294,116.577082 288.296301,116.46054 C288.868308,116.344193 288.942436,115.733274 288.942436,115.733274 L288.942436,113.982232 Z" id="Fill-125" fill="#E7EBF1"></path>
                            <path d="M288.971789,113.740763 C289.105126,113.756942 289.200102,113.87815 289.183924,114.011487 C289.16868,114.137114 289.118824,114.309262 289.009158,114.484401 C288.861928,114.719529 288.641537,114.887411 288.344733,114.94776 C288.051899,115.007443 287.876272,114.949016 287.677297,114.774894 L287.529774,114.635444 C287.439603,114.554405 287.393327,114.545833 287.275041,114.569924 C287.108005,114.603968 286.962384,114.706135 286.837999,114.860635 C286.738464,114.984269 286.674795,115.109431 286.647641,115.184754 C286.60209,115.31111 286.462731,115.376615 286.336376,115.331064 C286.21002,115.285513 286.144515,115.146154 286.190066,115.019798 C286.233958,114.898045 286.320666,114.727592 286.459125,114.555611 C286.649109,114.319629 286.88723,114.152565 287.177936,114.093315 C287.470949,114.033637 287.646666,114.092091 287.845714,114.266272 L287.993222,114.405707 C288.083314,114.486683 288.12951,114.495225 288.247706,114.471136 C288.405511,114.439049 288.516705,114.354347 288.596907,114.226263 C288.662477,114.121547 288.69367,114.013842 288.701065,113.952899 C288.717243,113.819561 288.838451,113.724585 288.971789,113.740763 Z" id="Stroke-126" fill="#808080" fill-rule="nonzero"></path>
                            <path d="M288.971789,115.491805 C289.105126,115.507984 289.200102,115.629192 289.183924,115.762529 C289.16868,115.888156 289.118824,116.060304 289.009158,116.235443 C288.861928,116.470571 288.641537,116.638453 288.344733,116.698802 C288.051899,116.758485 287.876272,116.700058 287.677297,116.525936 L287.529774,116.386486 C287.439603,116.305447 287.393327,116.296875 287.275041,116.320966 C287.108005,116.35501 286.962384,116.457177 286.837999,116.611677 C286.738464,116.735311 286.674795,116.860473 286.647641,116.935796 C286.60209,117.062152 286.462731,117.127657 286.336376,117.082106 C286.21002,117.036555 286.144515,116.897196 286.190066,116.77084 C286.233958,116.649087 286.320666,116.478634 286.459125,116.306653 C286.649109,116.070671 286.88723,115.903607 287.177936,115.844357 C287.470949,115.784679 287.646666,115.843133 287.845714,116.017314 L287.993222,116.156749 C288.083314,116.237725 288.12951,116.246267 288.247706,116.222178 C288.405511,116.190091 288.516705,116.105389 288.596907,115.977305 C288.662477,115.872589 288.69367,115.764884 288.701065,115.703941 C288.717243,115.570603 288.838451,115.475627 288.971789,115.491805 Z" id="Stroke-127" fill="#808080" fill-rule="nonzero"></path>
                            <path d="M287.123765,191.61289 C287.123765,191.61289 287.154311,192.227311 286.610515,192.439187 C286.066719,192.651258 286.035978,192.036837 285.492183,192.248713 C284.948387,192.460394 284.827176,193.145246 284.827176,193.145246 L285.124658,194.870801 C285.124658,194.870801 285.245869,194.186143 285.78986,193.974267 C286.333461,193.762391 286.364201,194.376812 286.908192,194.164742 C287.451988,193.952866 287.421247,193.338444 287.421247,193.338444 L287.123765,191.61289 Z" id="Fill-128" fill="#E7EBF1"></path>
                            <path d="M286.880903,191.624966 C286.874234,191.490815 286.977578,191.376659 287.111728,191.36999 C287.226713,191.364273 287.32701,191.439382 287.35752,191.545438 L287.366704,191.600814 L287.367078,191.611152 C287.371208,191.77038 287.340771,191.969567 287.241781,192.169398 C287.131254,192.392521 286.951992,192.567162 286.698916,192.665767 C286.420412,192.774379 286.237387,192.746674 286.01163,192.608916 L285.842578,192.496641 C285.73993,192.432122 285.692888,192.431536 285.580443,192.475348 C285.43522,192.531878 285.317335,192.641461 285.223963,192.793477 C285.132264,192.942769 285.083031,193.095318 285.066693,193.187631 C285.043284,193.319891 284.91709,193.408133 284.78483,193.384725 C284.652569,193.361316 284.564328,193.235121 284.587736,193.102861 C284.613792,192.955647 284.680515,192.748904 284.809502,192.538904 C284.954544,192.302765 285.150226,192.120864 285.40393,192.022105 C285.682396,191.913608 285.865372,191.941344 286.091104,192.079098 L286.260138,192.191363 C286.362771,192.25587 286.409799,192.256438 286.522262,192.21258 C286.657015,192.160077 286.747034,192.072377 286.805927,191.953491 C286.849416,191.865699 286.871081,191.773117 286.878243,191.695569 L286.880903,191.624966 Z" id="Stroke-129" fill="#808080" fill-rule="nonzero"></path>
                            <path d="M287.178464,193.35054 C287.171794,193.21639 287.275138,193.102233 287.409288,193.095564 C287.524274,193.089847 287.624571,193.164956 287.65508,193.271012 L287.664638,193.336727 C287.668769,193.495954 287.638331,193.695141 287.539342,193.894972 C287.428814,194.118096 287.249553,194.292736 286.996449,194.391352 C286.71786,194.499958 286.53482,194.472243 286.309054,194.334457 L286.140049,194.222195 C286.037448,194.157695 285.990432,194.157117 285.877976,194.200932 C285.73268,194.257471 285.614752,194.367059 285.521354,194.519076 C285.429634,194.668361 285.380396,194.820901 285.364059,194.913205 C285.34065,195.045465 285.214456,195.133707 285.082195,195.110299 C284.949935,195.08689 284.861693,194.960696 284.885102,194.828435 C284.911159,194.681212 284.977897,194.47446 285.106924,194.264453 C285.252005,194.028316 285.447744,193.846419 285.70149,193.747679 C285.979946,193.639186 286.16291,193.66692 286.388597,193.804665 L286.5576,193.916926 C286.660248,193.981453 286.707293,193.982023 286.819822,193.938154 C286.954575,193.885651 287.044595,193.797952 287.103487,193.679065 C287.146976,193.591273 287.168642,193.498691 287.175803,193.421143 L287.178464,193.35054 Z" id="Stroke-130" fill="#808080" fill-rule="nonzero"></path>
                        </g>
                        <mask id="mask-54" fill="white">
                            <use xlink:href="#path-53"></use>
                        </mask>
                        <g id="Stroke-132" stroke="none" fill="none" fill-rule="nonzero"></g>
                    </g>
                </g>
            </g>
        </g>
    </g>
</svg>