<?xml version="1.0" standalone="no"?><!DOCTYPE svg PUBLIC "-//W3C//DTD SVG 20010904//EN" "http://www.w3.org/TR/2001/REC-SVG-20010904/DTD/svg10.dtd"><svg version="1.0" xmlns="http://www.w3.org/2000/svg" width="300.000000pt" height="298.000000pt" viewBox="0 0 600.000000 596.000000" preserveAspectRatio="xMidYMid meet"><metadata>Created by potrace 1.10, written by Peter Selinger 2001-2011</metadata><g transform="translate(150.000000,447.000000) scale(0.050000,-0.050000)" fill="#999999" stroke="none"><path d="M2521 5388 c-91 -77 -110 -121 -121 -288 l-10 -150 -62 -6 c-79 -8 -257 62 -353 138 -206 164 -470 98 -533 -133 -71 -265 215 -489 718 -560 255 -37 240 -1 240 -572 0 -608 36 -796 222 -1158 192 -371 -48 -512 -442 -259 -108 69 -108 67 -9 190 116 145 149 214 149 317 0 307 -448 352 -537 54 -32 -106 -47 -102 -120 27 -176 312 -513 332 -636 38 -106 -254 386 -975 833 -1220 140 -77 264 -110 649 -176 142 -24 191 -42 235 -84 l56 -53 0 -428 c0 -257 8 -443 21 -466 25 -48 729 -61 775 -15 17 17 24 145 24 445 1 588 7 605 285 776 77 47 159 98 185 114 42 27 61 22 243 -64 239 -112 367 -134 467 -79 257 140 191 510 -102 574 -111 25 -131 77 -73 185 119 219 397 1209 410 1460 25 449 -490 497 -572 54 -14 -77 -29 -159 -35 -184 -19 -93 -161 10 -336 243 -209 279 -640 84 -551 -250 48 -181 305 -471 512 -578 214 -110 215 -112 102 -374 -98 -228 -246 -395 -440 -496 l-115 -60 -75 40 c-103 55 -380 473 -469 708 l-65 172 -10 990 c-8 745 -17 1001 -36 1034 -85 148 -303 196 -424 94z m239 -148 c39 -39 40 -67 40 -935 1 -1018 12 -1114 158 -1415 109 -224 335 -546 439 -624 282 -214 749 113 961 674 92 241 45 353 -199 481 -231 121 -482 424 -452 546 40 156 175 140 304 -36 285 -388 543 -383 609 10 42 250 170 333 238 154 44 -115 -282 -1333 -409 -1529 -89 -138 -17 -285 184 -377 165 -75 196 -126 135 -219 -50 -76 -147 -61 -395 59 -220 107 -271 109 -406 17 -42 -28 -134 -87 -204 -130 -285 -175 -313 -243 -313 -771 l0 -405 -235 0 -235 0 0 345 c-1 569 -42 640 -402 707 -718 133 -928 274 -1273 853 -135 226 -147 281 -84 362 92 117 190 69 326 -160 79 -132 100 -147 202 -147 88 0 142 49 186 170 44 121 117 161 184 101 65 -59 27 -151 -156 -379 -117 -145 -47 -259 249 -405 479 -237 823 58 587 502 -184 347 -237 636 -238 1288 -1 491 -27 540 -301 572 -345 39 -660 186 -660 307 0 134 145 179 275 86 381 -277 674 -228 690 116 10 199 97 280 195 182z"/><path d="M3695 5399 c-148 -78 -205 -319 -109 -461 142 -211 451 -199 569 23 155 293 -162 595 -460 438z m290 -182 c50 -60 44 -150 -14 -208 -124 -124 -325 16 -246 171 53 103 188 122 260 37z"/><path d="M4380 4916 c-150 -102 -150 -310 1 -412 159 -109 379 11 379 206 0 195 -220 315 -380 206z m214 -189 c19 -49 -55 -107 -109 -86 -55 21 -61 108 -11 136 40 23 102 -3 120 -50z"/><path d="M930 4866 c-22 -6 -69 -32 -105 -59 -318 -240 1 -728 357 -546 343 175 126 697 -252 605z m204 -209 c50 -48 59 -115 23 -183 -72 -137 -297 -77 -297 80 0 123 180 191 274 103z"/><path d="M4075 4465 c-45 -10 -67 -96 -35 -135 59 -71 175 -12 152 77 -12 50 -55 71 -117 58z"/><path d="M1377 4026 c-177 -110 -143 -375 56 -445 274 -95 456 299 206 446 -70 42 -194 41 -262 -1z m180 -143 c15 -10 23 -42 20 -75 -9 -78 -123 -88 -134 -12 -11 79 51 126 114 87z"/><path d="M1867 3485 c-54 -35 -39 -141 23 -157 61 -15 110 21 110 80 0 75 -71 116 -133 77z"/></g></svg>