<?xml version="1.0" encoding="UTF-8"?>
<svg version="1.1" viewBox="0 0 29 35" xmlns="http://www.w3.org/2000/svg" xmlns:xlink="http://www.w3.org/1999/xlink">
    <defs>
        <path id="a" d="m10.002-6.2528e-13c7.407 0 12.206 7.8244 8.9716 14.397-1.5645 3.3381-6.7815 8.3458-8.9716 10.745-2.2952-2.6085-7.1978-7.1978-8.8675-10.641-3.4422-6.4682 1.3563-14.501 8.8675-14.501z"/>
        <filter id="b" x="-35%" y="-19.9%" width="170%" height="155.7%">
            <feOffset dx="0" dy="2" in="SourceAlpha" result="shadowOffsetOuter1"/>
            <feGaussianBlur in="shadowOffsetOuter1" result="shadowBlurOuter1" stdDeviation="2"/>
            <feColorMatrix in="shadowBlurOuter1" values="0 0 0 0 0   0 0 0 0 0   0 0 0 0 0  0 0 0 0.5 0"/>
        </filter>
    </defs>
    <g fill="none" fill-rule="evenodd">
        <g transform="translate(-748 -491)">
            <g transform="translate(752.5 493.5)">
                <g id="c">
                    <use fill="black" filter="url(#b)" xlink:href="#a"/>
                    <use fill="FFFFFF" fill-rule="evenodd" xlink:href="#a"/>
                </g>
                <path transform="translate(10 9.8) scale(-1) translate(-10 -9.8)" d="m15.268 9.8779c-3.7575 3.7575-9.085-1.5591-5.3219-5.3219l2.2188 2.2194v-0.36132c0.71363 0 1.2942 0.58301 1.2942 1.2966l-0.35952-0.001198 2.1684 2.1684zm1.305-2.0541c5.997e-4 -2.4854-2.0355-4.5238-4.5215-4.5238v0.89819c1.9887 0 3.6257 1.6333 3.6257 3.6227l0.89581 0.002396v5.9516e-4zm-1.4944-0.03655c0-1.6436-1.3482-2.9918-2.9918-2.9918v0.89879c1.1492 0 2.093 0.94371 2.093 2.093l0.89872-6.136e-5zm-0.85321 7.0327-1.0684 1.0683c-0.54885 0.54885-1.447 0.54885-1.9959 0l-1.9653-1.9653 2.0667-2.0667 2.9629 2.9629v6.442e-4zm-9.3186-9.3186-1.0683 1.0684c-0.54885 0.54885-0.54885 1.447 0 1.9959l1.9653 1.9653 2.0667-2.0667-2.9629-2.9629h-6.4424e-4zm2.8468 7.6804-0.76576 0.76576c-0.2199 0.2193-0.57881 0.2193-0.79871 0l-0.41045-0.41045c-0.2193-0.2199-0.2193-0.57881 0-0.79871l0.76576-0.76576c0.037748 0.070105 0.086283 0.13602 0.145 0.19473l0.86883 0.86883c0.05872 0.05872 0.12463 0.10725 0.19413 0.145l0.0011949 5.967e-4zm2.7809-1.9234-1.4027 1.4027c-0.32955 0.32955-0.86823 0.32955-1.1978 0l-0.86883-0.86883c-0.32955-0.32955-0.32955-0.86823 0-1.1978l1.4422-1.4422c0.35592 0.8904 1.1498 1.7131 2.0271 2.1056v5.369e-4z" fill="#fff"/>
            </g>
        </g>
    </g>
</svg>
