<svg width="60" height="60" viewBox="0 0 60 60" fill="none" xmlns="http://www.w3.org/2000/svg"><circle cx="30" cy="30" r="28.5" fill="#DEF6FF" stroke="#128CC0" stroke-width="3"/><path d="M21.4286 12.8572V16.2857H23.1429V40.2857C23.1429 42.1044 23.8653 43.8485 25.1513 45.1345C26.4372 46.4204 28.1814 47.1429 30 47.1429C31.8186 47.1429 33.5628 46.4204 34.8487 45.1345C36.1347 43.8485 36.8571 42.1044 36.8571 40.2857V16.2857H38.5714V12.8572H21.4286ZM28.2857 36.8572C27.2571 36.8572 26.5714 36.1715 26.5714 35.1429C26.5714 34.1143 27.2571 33.4286 28.2857 33.4286C29.3143 33.4286 30 34.1143 30 35.1429C30 36.1715 29.3143 36.8572 28.2857 36.8572ZM31.7143 30C30.6857 30 30 29.3143 30 28.2857C30 27.2572 30.6857 26.5715 31.7143 26.5715C32.7429 26.5715 33.4286 27.2572 33.4286 28.2857C33.4286 29.3143 32.7429 30 31.7143 30ZM33.4286 21.4286H26.5714V16.2857H33.4286V21.4286Z" fill="#128CC0"/></svg>
