<svg width="145" height="144" xmlns="http://www.w3.org/2000/svg"><g fill="none" fill-rule="evenodd"><path d="M71.716.5a71.491 71.491 0 0161.92 35.75 71.511 71.511 0 010 71.5 71.491 71.491 0 01-61.92 35.75 71.491 71.491 0 01-61.919-35.75 71.511 71.511 0 010-71.5A71.491 71.491 0 0171.717.5v21.45a50.04 50.04 0 00-43.344 25.025 50.065 50.065 0 000 50.05 50.04 50.04 0 0043.343 25.025 50.04 50.04 0 0043.344-25.025 50.065 50.065 0 000-50.05A50.04 50.04 0 0071.716 21.95V.5z" fill-opacity=".002" fill="#455A64"/><path d="M72.074.858a71.095 71.095 0 0135.214 9.53 71.085 71.085 0 0126.038 26.04 71.283 71.283 0 015.943 13.25h0l-19.727 6.407a50.42 50.42 0 00-47.468-34.491h0z" stroke="#EFF0F0" stroke-width=".715" fill="#EF0000"/><path d="M139.49 50.357a71.08 71.08 0 011.815 36.433 71.099 71.099 0 01-16.723 32.811 71.583 71.583 0 01-10.76 9.742h0l-12.192-16.775a50.426 50.426 0 0020.22-45.84 50.394 50.394 0 00-2.087-9.963h0z" stroke="#EFF0F0" stroke-width=".715" fill="#940000"/><path d="M101.052 112.989l12.192 16.775a71.075 71.075 0 01-34.086 12.986 71.114 71.114 0 01-36.375-5.761 70.993 70.993 0 01-12.595-7.225h0l12.193-16.775a50.36 50.36 0 0022.191 8.91h0l7.014 12.056 7.62-12.106a50.388 50.388 0 0021.846-8.86h0z" stroke="#EFF0F0" stroke-width=".715" fill="#C6E5FA"/><path d="M3.943 50.357l19.726 6.407a50.413 50.413 0 0010.587 48.966 50.177 50.177 0 007.547 6.838h0L29.61 129.343A71.148 71.148 0 01.965 64.566a71.137 71.137 0 012.978-14.209h0z" stroke="#EFF0F0" stroke-width=".715" fill="#FFF200"/><path d="M71.359.858v20.736a50.378 50.378 0 00-24.849 6.752 50.353 50.353 0 00-18.447 18.45 50.254 50.254 0 00-4.173 9.288h0L4.164 49.677A71.14 71.14 0 0156.926 2.416 71.312 71.312 0 0171.359.858h0z" stroke="#EFF0F0" stroke-width=".715" fill="#F8AB00"/><path d="M68.538 66.855v-5.927l.033-.01 3.609 5.937h1.352v-8.133H72.18v5.921l-.034.011-3.608-5.932h-1.357v8.133h1.357zm9.753.117c.994 0 1.803-.326 2.427-.98.624-.654.936-1.478.936-2.472v-1.463c0-.99-.313-1.814-.939-2.47-.625-.655-1.435-.982-2.43-.982-.972 0-1.762.327-2.37.983-.61.655-.914 1.478-.914 2.469v1.463c0 .994.304 1.818.913 2.472.61.654 1.401.98 2.377.98zm0-1.111c-.6 0-1.072-.22-1.419-.657-.346-.437-.52-.999-.52-1.684v-1.474c0-.678.174-1.235.52-1.67.347-.436.818-.654 1.413-.654.619 0 1.11.218 1.472.653.363.436.545.993.545 1.67v1.475c0 .69-.18 1.251-.54 1.687-.358.436-.85.654-1.471.654zM56.763 81.272c.882 0 1.595-.2 2.136-.6.542-.4.813-.94.813-1.617 0-.64-.227-1.168-.681-1.581-.455-.413-1.12-.737-1.994-.972-.667-.183-1.145-.376-1.433-.581-.289-.205-.433-.462-.433-.77 0-.343.133-.623.4-.839.265-.216.646-.324 1.142-.324.525 0 .929.13 1.212.388.283.26.424.597.424 1.014h1.302l.01-.033c.02-.674-.242-1.251-.784-1.732-.542-.48-1.26-.72-2.153-.72-.857 0-1.556.212-2.098.636-.542.425-.813.965-.813 1.62 0 .637.245 1.152.735 1.545s1.189.708 2.098.947c.636.17 1.08.365 1.332.58.251.217.377.494.377.833 0 .346-.14.62-.42.824-.278.203-.67.304-1.172.304-.548 0-.993-.122-1.335-.366-.343-.244-.514-.613-.514-1.108h-1.307l-.011.033c-.019.782.292 1.397.932 1.846.641.449 1.386.673 2.235.673zm7.48-.117v-7.044H66.7v-1.09h-6.273v1.09h2.458v7.044h1.357zm4.876 0v-3.374h1.81c.417 0 .745.123.983.369s.357.577.357.994v.654c0 .253.022.512.065.776.042.264.138.458.287.581h1.397v-.128a.981.981 0 01-.302-.52 2.74 2.74 0 01-.09-.698v-.676c0-.48-.1-.885-.3-1.215-.202-.33-.532-.567-.99-.712.418-.183.735-.426.953-.73.218-.303.327-.665.327-1.086 0-.76-.248-1.344-.743-1.754-.496-.41-1.198-.614-2.106-.614h-3.005v8.133h1.357zm1.575-4.463H69.12v-2.58h1.648c.503 0 .877.116 1.123.348.245.233.368.554.368.964 0 .428-.125.746-.374.955-.25.209-.646.313-1.19.313zm10.127 4.463v-1.084h-4.128v-2.575h3.559v-1.089h-3.559v-2.296h4.09v-1.09h-5.447v8.134h5.485zm3.96.117c.883 0 1.596-.2 2.138-.6.541-.4.812-.94.812-1.617 0-.64-.227-1.168-.681-1.581-.455-.413-1.12-.737-1.994-.972-.667-.183-1.145-.376-1.433-.581-.289-.205-.433-.462-.433-.77 0-.343.133-.623.4-.839.266-.216.646-.324 1.142-.324.525 0 .929.13 1.212.388.283.26.424.597.424 1.014h1.302l.011-.033c.019-.674-.243-1.251-.785-1.732-.542-.48-1.26-.72-2.153-.72-.857 0-1.556.212-2.098.636-.542.425-.812.965-.812 1.62 0 .637.244 1.152.734 1.545s1.189.708 2.098.947c.636.17 1.08.365 1.332.58.251.217.377.494.377.833 0 .346-.14.62-.42.824-.278.203-.67.304-1.172.304-.548 0-.993-.122-1.335-.366-.343-.244-.514-.613-.514-1.108h-1.307l-.011.033c-.019.782.292 1.397.933 1.846.64.449 1.385.673 2.234.673zm7.196 0c.882 0 1.594-.2 2.136-.6.542-.4.813-.94.813-1.617 0-.64-.227-1.168-.682-1.581-.454-.413-1.119-.737-1.994-.972-.666-.183-1.144-.376-1.433-.581-.288-.205-.432-.462-.432-.77 0-.343.133-.623.399-.839.266-.216.647-.324 1.142-.324.525 0 .93.13 1.212.388.283.26.425.597.425 1.014h1.302l.01-.033c.02-.674-.242-1.251-.784-1.732-.542-.48-1.26-.72-2.154-.72-.856 0-1.555.212-2.097.636-.542.425-.813.965-.813 1.62 0 .637.245 1.152.735 1.545s1.189.708 2.097.947c.637.17 1.081.365 1.333.58.25.217.377.494.377.833 0 .346-.14.62-.42.824-.279.203-.67.304-1.172.304-.548 0-.993-.122-1.335-.366-.343-.244-.514-.613-.514-1.108H88.82l-.012.033c-.018.782.293 1.397.933 1.846.64.449 1.386.673 2.235.673z" fill="#212121" fill-rule="nonzero"/></g></svg>