<svg width="202" height="201" xmlns="http://www.w3.org/2000/svg"><g fill="none" fill-rule="evenodd"><path d="M100.29.5c35.73 0 68.74 19.06 86.6 50a100.016 100.016 0 010 100 99.988 99.988 0 01-86.6 50 99.988 99.988 0 01-86.6-50 100.016 100.016 0 010-100 99.988 99.988 0 0186.6-50v30a69.986 69.986 0 00-60.62 35 70.02 70.02 0 000 70c12.5 21.66 35.61 35 60.62 35 25.01 0 48.12-13.34 60.62-35a70.02 70.02 0 000-70 69.986 69.986 0 00-60.62-35V.5z" fill-opacity=".002" fill="#455A64"/><path d="M100.648.858a99.576 99.576 0 0149.465 13.349 99.562 99.562 0 0136.468 36.472 99.83 99.83 0 018.369 18.692h0l-27.86 9.049a70.328 70.328 0 00-18.023-28.617h0l2.2-16.024-15.906 5.73a70.281 70.281 0 00-20.446-7.829 70.08 70.08 0 00-14.267-1.537h0z" stroke="#EFF0F0" stroke-width=".715" fill="#EF0000"/><path d="M195.17 70.05a99.555 99.555 0 012.588 51.165 99.581 99.581 0 01-23.423 45.956A100.253 100.253 0 01159.15 180.9h0l-17.22-23.692a70.383 70.383 0 0028.337-64.065A70.352 70.352 0 00167.31 79.1h0z" stroke="#EFF0F0" stroke-width=".715" fill="#940000"/><path d="M141.351 157.629l17.22 23.691a99.548 99.548 0 01-47.858 18.273 99.602 99.602 0 01-50.947-8.07 99.424 99.424 0 01-17.756-10.202h0l17.22-23.692a70.348 70.348 0 0069.676 7.148 70.122 70.122 0 0012.445-7.148h0z" stroke="#EFF0F0" stroke-width=".715" fill="#C6E5FA"/><path d="M5.411 70.05l27.86 9.05c-7.606 23.81-2.002 49.883 14.734 68.479a70.057 70.057 0 0010.647 9.63h0L41.432 180.9c-28.61-20.946-43.94-55.528-40.236-90.813a99.63 99.63 0 014.215-20.036h0z" stroke="#EFF0F0" stroke-width=".715" fill="#FFF200"/><path d="M99.933.858v29.285A70.316 70.316 0 0065.11 39.57 70.282 70.282 0 0039.361 65.32a70.148 70.148 0 00-5.869 13.099h0l-27.86-9.05C16.71 35.683 44.867 10.419 79.575 3.04A99.87 99.87 0 0199.933.858h0z" stroke="#EFF0F0" stroke-width=".715" fill="#F8AB00"/><path d="M78.451 97.906l.906-2.656h4.453l.899 2.656h1.93L82.505 86.53h-1.797l-4.18 11.375h1.922zm4.82-4.242h-3.367l1.672-4.86h.047l1.648 4.86zm11.813 4.242V96.39h-5.227v-9.86H87.96v11.376h7.125zm9.203 0V96.39h-5.774V92.79h4.977v-1.524h-4.977v-3.21h5.72V86.53h-7.618v11.375h7.672zm3.5 0v-4.719h2.531c.583 0 1.042.172 1.375.516.333.344.5.807.5 1.39v.915c0 .354.03.716.09 1.085.06.37.194.641.402.813h1.953v-.18c-.197-.166-.338-.409-.421-.726a3.833 3.833 0 01-.125-.977v-.945c0-.672-.141-1.238-.422-1.7-.282-.46-.742-.792-1.383-.995.583-.256 1.027-.596 1.332-1.02.305-.425.457-.931.457-1.52 0-1.062-.346-1.88-1.04-2.453-.692-.573-1.674-.86-2.944-.86h-4.204v11.376h1.899zm2.203-6.242h-2.203v-3.61h2.305c.703 0 1.226.163 1.57.489.344.325.516.774.516 1.347 0 .6-.175 1.045-.524 1.336-.349.292-.904.438-1.664.438zm10.508 6.242v-9.852h3.437v-1.523h-8.773v1.523h3.437v9.852h1.899zm-41.387 20v-1.516h-5.226v-9.86h-1.899v11.376h7.125zm9.203 0v-1.516h-5.773v-3.601h4.976v-1.524h-4.976v-3.21h5.719v-1.524h-7.618v11.375h7.672zm6.336 0l4.063-11.375h-2.024l-2.719 8.414-.195.773h-.047l-.203-.789-2.71-8.398H88.79l4.054 11.375h1.805zm13.094 0v-1.516h-5.774v-3.601h4.977v-1.524h-4.977v-3.21h5.72v-1.524h-7.618v11.375h7.672zm8.726 0v-1.516h-5.226v-9.86h-1.899v11.376h7.125zm9.883 0V106.53l-4.21.406v1.399h2.312v9.57h1.898z" fill="#212121" fill-rule="nonzero"/></g></svg>