<svg width="202" height="200" xmlns="http://www.w3.org/2000/svg">
    <g fill="none" fill-rule="evenodd">
        <path
            d="M72.061.5a71.491 71.491 0 0161.92 35.75 71.511 71.511 0 010 71.5 71.491 71.491 0 01-61.92 35.75 71.491 71.491 0 01-61.919-35.75 71.511 71.511 0 010-71.5A71.491 71.491 0 0172.062.5v21.45a50.04 50.04 0 00-43.344 25.025 50.065 50.065 0 000 50.05 50.04 50.04 0 0043.343 25.025 50.04 50.04 0 0043.344-25.025 50.065 50.065 0 000-50.05A50.04 50.04 0 0072.06 21.95V.5z"
            fill-opacity=".002" fill="#455A64" />
        <path
            d="M72.419.858a71.095 71.095 0 0135.214 9.53 71.085 71.085 0 0126.038 26.04 71.283 71.283 0 015.943 13.25h0l-19.727 6.407a50.386 50.386 0 00-12.843-20.372h0l1.589-11.572-11.488 4.138a50.353 50.353 0 00-14.606-5.585 50.204 50.204 0 00-10.12-1.1h0z"
            stroke="#EFF0F0" stroke-width=".715" fill="#EF0000" />
        <path
            d="M139.835 50.357a71.08 71.08 0 011.815 36.433 71.099 71.099 0 01-16.723 32.811 71.583 71.583 0 01-10.76 9.742h0l-12.192-16.775a50.426 50.426 0 0020.22-45.84 50.394 50.394 0 00-2.087-9.963h0z"
            stroke="#EFF0F0" stroke-width=".715" fill="#940000" />
        <path
            d="M101.397 112.989l12.192 16.775a71.075 71.075 0 01-34.086 12.986 71.114 71.114 0 01-36.375-5.761 70.993 70.993 0 01-12.595-7.225h0l12.193-16.775a50.4 50.4 0 0049.837 5.062 50.237 50.237 0 008.834-5.062h0z"
            stroke="#EFF0F0" stroke-width=".715" fill="#C6E5FA" />
        <path
            d="M4.288 50.357l19.726 6.407a50.413 50.413 0 0010.587 48.966 50.177 50.177 0 007.547 6.838h0l-12.193 16.775A71.148 71.148 0 011.31 64.566a71.137 71.137 0 012.978-14.209h0z"
            stroke="#EFF0F0" stroke-width=".715" fill="#FFF200" />
        <path
            d="M71.704.858v20.736a50.378 50.378 0 00-24.849 6.752 50.353 50.353 0 00-18.447 18.45 50.254 50.254 0 00-4.173 9.288h0L4.51 49.677A71.14 71.14 0 0157.27 2.416 71.312 71.312 0 0171.704.858h0z"
            stroke="#EFF0F0" stroke-width=".715" fill="#F8AB00" />
        <path
            d="M56.446 70.145l.648-1.899h3.184l.642 1.9h1.38l-2.955-8.134H58.06l-2.988 8.133h1.374zm3.446-3.033h-2.407l1.195-3.474h.034l1.178 3.474zm8.446 3.033v-1.083h-3.737v-7.05h-1.357v8.133h5.094zm6.58 0v-1.083H70.79v-2.576h3.559v-1.089H70.79v-2.296h4.09v-1.089h-5.447v8.133h5.485zm2.503 0v-3.374h1.81c.417 0 .745.123.983.369s.357.577.357.994v.654c0 .253.022.512.065.776.042.265.138.458.287.581h1.397v-.128a.981.981 0 01-.302-.52 2.74 2.74 0 01-.09-.698v-.676c0-.48-.1-.885-.3-1.215-.202-.33-.531-.567-.99-.712.418-.182.735-.425.953-.729.218-.303.327-.666.327-1.086 0-.76-.248-1.345-.743-1.754-.496-.41-1.198-.615-2.106-.615h-3.005v8.133h1.357zm1.575-4.463h-1.575v-2.58h1.648c.503 0 .877.116 1.123.349.245.232.368.553.368.963 0 .428-.124.747-.374.955-.25.209-.646.313-1.19.313zm7.513 4.463v-7.044h2.458v-1.089h-6.273v1.09h2.458v7.043h1.357zm-29.591 14.3v-1.083H53.18v-7.05h-1.358v8.133h5.095zm6.58 0v-1.083H59.37v-2.576h3.558v-1.089H59.37v-2.296h4.089v-1.089h-5.446v8.133h5.485zm4.53 0l2.905-8.133h-1.447l-1.944 6.016-.14.553h-.033l-.145-.564-1.938-6.005h-1.447l2.899 8.133h1.29zm9.362 0v-1.083h-4.128v-2.576h3.558v-1.089h-3.558v-2.296h4.09v-1.089h-5.447v8.133h5.485zm6.24 0v-1.083h-3.737v-7.05h-1.358v8.133h5.095zm7.066 0v-8.133l-3.01.29v1h1.653v6.843h1.357z"
            fill="#212121" fill-rule="nonzero" />
    </g>
</svg>
