<svg width="202" height="201" xmlns="http://www.w3.org/2000/svg"><g fill="none" fill-rule="evenodd"><path d="M100.43.5c35.73 0 68.74 19.06 86.6 50a100.016 100.016 0 010 100 99.988 99.988 0 01-86.6 50 99.988 99.988 0 01-86.6-50 100.016 100.016 0 010-100 99.988 99.988 0 0186.6-50v30a69.986 69.986 0 00-60.62 35 70.02 70.02 0 000 70c12.5 21.66 35.61 35 60.62 35 25.01 0 48.12-13.34 60.62-35a70.02 70.02 0 000-70 69.986 69.986 0 00-60.62-35V.5z" fill-opacity=".002" fill="#455A64"/><path d="M100.788.858a99.576 99.576 0 0149.464 13.349 99.562 99.562 0 0136.469 36.472 99.83 99.83 0 018.368 18.692h0l-27.86 9.049a70.374 70.374 0 00-66.441-48.277h0z" stroke="#EFF0F0" stroke-width=".715" fill="#EF0000"/><path d="M195.31 70.05a99.555 99.555 0 012.587 51.165 99.581 99.581 0 01-23.422 45.956 100.253 100.253 0 01-15.186 13.729h0l-17.22-23.692a70.383 70.383 0 0028.337-64.065A70.352 70.352 0 00167.45 79.1h0z" stroke="#EFF0F0" stroke-width=".715" fill="#940000"/><path d="M141.49 157.629l17.22 23.691a99.548 99.548 0 01-47.857 18.273 99.602 99.602 0 01-50.947-8.07 99.424 99.424 0 01-17.756-10.202h0l17.22-23.692a70.348 70.348 0 0069.676 7.148 70.122 70.122 0 0012.445-7.148h0z" stroke="#EFF0F0" stroke-width=".715" fill="#C6E5FA"/><path d="M5.55 70.05l27.86 9.05a70.273 70.273 0 00-2.524 32.043h0l-12.184 14.108 17.567 4.116a70.34 70.34 0 0011.875 18.212 70.057 70.057 0 0010.647 9.63h0L41.571 180.9c-28.61-20.946-43.94-55.528-40.235-90.813A99.63 99.63 0 015.55 70.051h0z" stroke="#EFF0F0" stroke-width=".715" fill="#FFF200"/><path d="M100.073.858v29.285a70.316 70.316 0 00-34.824 9.426A70.282 70.282 0 0039.5 65.32a70.148 70.148 0 00-5.87 13.099h0l-27.86-9.05C16.85 35.683 45.006 10.419 79.714 3.04A99.87 99.87 0 01100.073.858h0z" stroke="#EFF0F0" stroke-width=".715" fill="#F8AB00"/><path d="M77.872 108.304l2.28-8.164h.048l2.273 8.164H84.2l2.703-11.375h-1.867l-1.797 8.32-.008.079-.008-.055-2.297-8.344h-1.515l-2.274 8.32-.008.04v-.016l-1.82-8.344h-1.867l2.695 11.375h1.735zm11.023 0l.906-2.656h4.453l.899 2.656h1.93L92.95 96.93h-1.797l-4.18 11.375h1.922zm4.82-4.242h-3.367l1.672-4.86h.047l1.648 4.86zm9.024 4.242v-9.851h3.437v-1.524h-8.773v1.524h3.437v9.851h1.899zm8.758.164c1.312 0 2.353-.36 3.12-1.082.769-.721 1.143-1.657 1.122-2.808l-.016-.047h-1.828c0 .77-.203 1.367-.61 1.789-.406.422-1.002.633-1.788.633-.792 0-1.42-.308-1.887-.922-.466-.615-.7-1.39-.7-2.328v-2.18c0-.927.229-1.698.684-2.313.456-.614 1.072-.921 1.848-.921.807 0 1.418.213 1.832.64.414.427.621 1.024.621 1.79h1.836l.016-.048c.02-1.192-.356-2.142-1.13-2.847-.773-.706-1.831-1.059-3.175-1.059-1.313 0-2.379.45-3.2 1.348-.82.898-1.23 2.04-1.23 3.426v2.164c0 1.39.416 2.532 1.246 3.425.831.894 1.91 1.34 3.239 1.34zm8-.164v-4.851h5.093v4.851h1.891V96.93h-1.89v5h-5.094v-5h-1.899v11.375h1.899z" fill="#212121" fill-rule="nonzero"/></g></svg>