<svg width="202" height="200" xmlns="http://www.w3.org/2000/svg">
    <g fill="none" fill-rule="evenodd">
        <path
            d="M72.221.5a71.491 71.491 0 0161.92 35.75 71.511 71.511 0 010 71.5 71.491 71.491 0 01-61.92 35.75 71.491 71.491 0 01-61.919-35.75 71.511 71.511 0 010-71.5A71.491 71.491 0 0172.222.5v21.45a50.04 50.04 0 00-43.344 25.025 50.065 50.065 0 000 50.05A50.04 50.04 0 0072.22 122.05a50.04 50.04 0 0043.343-25.025 50.065 50.065 0 000-50.05A50.04 50.04 0 0072.221 21.95V.5z"
            fill-opacity=".002" fill="#455A64" />
        <path
            d="M72.579.858a71.095 71.095 0 0135.214 9.53 71.085 71.085 0 0126.037 26.04 71.283 71.283 0 015.943 13.25h0l-19.726 6.407a50.42 50.42 0 00-47.468-34.491h0z"
            stroke="#EFF0F0" stroke-width=".715" fill="#EF0000" />
        <path
            d="M139.994 50.357a71.08 71.08 0 011.816 36.433 71.099 71.099 0 01-16.723 32.811 71.583 71.583 0 01-10.76 9.742h0l-12.192-16.775a50.426 50.426 0 0020.22-45.84 50.394 50.394 0 00-2.087-9.963h0z"
            stroke="#EFF0F0" stroke-width=".715" fill="#940000" />
        <path
            d="M101.556 112.989l12.193 16.775a71.075 71.075 0 01-34.086 12.986 71.114 71.114 0 01-36.376-5.761 70.993 70.993 0 01-12.594-7.225h0l12.193-16.775a50.4 50.4 0 0049.837 5.062 50.237 50.237 0 008.833-5.062h0z"
            stroke="#EFF0F0" stroke-width=".715" fill="#C6E5FA" />
        <path
            d="M4.448 50.357l19.726 6.407a50.413 50.413 0 0010.587 48.966 50.177 50.177 0 007.546 6.838h0l-12.192 16.775A71.148 71.148 0 011.47 64.566a71.137 71.137 0 012.978-14.209h0z"
            stroke="#EFF0F0" stroke-width=".715" fill="#FFF200" />
        <path
            d="M71.864.858v20.736a50.373 50.373 0 00-23.54 6.022h0l-11.633-4.19 1.555 11.334a50.339 50.339 0 00-9.678 12.036 50.254 50.254 0 00-4.173 9.288h0L4.67 49.677A71.14 71.14 0 0157.43 2.416 71.312 71.312 0 0171.864.858h0z"
            stroke="#EFF0F0" stroke-width=".715" fill="#F8AB00" />
        <path
            d="M49.592 77.58l1.632-5.837h.033l1.626 5.837h1.234l1.933-8.133h-1.335l-1.285 5.949-.006.056-.005-.04-1.642-5.965h-1.084l-1.626 5.949-.005.028v-.011l-1.302-5.966h-1.335l1.927 8.133h1.24zm7.882 0l.648-1.9h3.184l.643 1.9h1.38l-2.956-8.133H59.09L56.1 77.58h1.374zm3.447-3.033h-2.408l1.196-3.475h.033l1.179 3.475zm4.709 3.033v-3.374h1.81c.417 0 .744.123.983.369.238.246.357.577.357.994v.654c0 .253.022.512.064.776.043.264.14.458.288.581h1.397v-.128a.981.981 0 01-.302-.52 2.74 2.74 0 01-.09-.698v-.676c0-.48-.1-.885-.301-1.215-.201-.33-.53-.567-.989-.712.417-.183.735-.426.953-.73.217-.303.326-.665.326-1.086 0-.76-.247-1.344-.743-1.754-.495-.41-1.197-.614-2.105-.614h-3.006v8.133h1.358zm1.575-4.463H65.63v-2.58h1.648c.502 0 .877.116 1.122.348.246.233.369.554.369.964 0 .428-.125.746-.374.955-.25.209-.646.313-1.19.313zm6 4.463v-5.927l.033-.01 3.608 5.937h1.352v-8.133h-1.352v5.921l-.033.011-3.609-5.932h-1.357v8.133h1.357zm8.21 0v-8.133h-1.357v8.133h1.358zm3.212 0v-5.927l.034-.01 3.608 5.937h1.352v-8.133H88.27v5.921l-.033.011-3.609-5.932H83.27v8.133h1.357zm9.87.117c.775 0 1.41-.125 1.903-.377.493-.251.848-.531 1.064-.84v-3.034h-2.972v1.017h1.615v1.653c-.12.135-.311.25-.576.35-.264.098-.609.148-1.033.148-.596 0-1.081-.212-1.455-.634-.375-.423-.562-.962-.562-1.618v-1.709c0-.648.172-1.182.517-1.603.344-.42.798-.631 1.36-.631.548 0 .966.137 1.254.41.289.274.448.634.478 1.081h1.285l.01-.033c-.01-.756-.281-1.37-.812-1.84-.53-.472-1.275-.707-2.232-.707-.946 0-1.717.31-2.315.93-.598.62-.897 1.421-.897 2.404v1.698c0 .984.317 1.785.95 2.405.633.62 1.44.93 2.419.93z"
            fill="#212121" fill-rule="nonzero" />
    </g>
</svg>
