<?xml version="1.0" encoding="UTF-8"?>
<svg width="202px" height="200px" viewBox="0 0 202 200" version="1.1" xmlns="http://www.w3.org/2000/svg" xmlns:xlink="http://www.w3.org/1999/xlink">
    <title>alert_lvl1</title>
    <g id="Page-1" stroke="none" stroke-width="1" fill="none" fill-rule="evenodd">
        <g id="alert_lvl1" transform="translate(0.937329, 0.000000)">
            <path d="M100,0 C135.73,0 168.74,19.06 186.6,50 C204.46,80.94 204.46,119.06 186.6,150 C168.74,180.94 135.73,200 100,200 C64.27,200 31.26,180.94 13.4,150 C-4.46,119.06 -4.46,80.94 13.4,50 C31.26,19.06 64.27,0 100,0 L100,30 C74.99,30 51.88,43.34 39.38,65 C26.88,86.66 26.88,113.34 39.38,135 C51.88,156.66 74.99,170 100,170 C125.01,170 148.12,156.66 160.62,135 C173.12,113.34 173.12,86.66 160.62,65 C148.12,43.34 125.01,30 100,30 L100,0 Z" id="Base-plate" fill-opacity="0.002" fill="#455A64"></path>
            <path d="M100.5,0.501250572 C118.096,0.589276801 135.013823,5.32160585 149.750642,13.8301616 C164.627383,22.4195042 177.281506,34.857122 186.166895,50.2498406 C189.556273,56.1254102 192.348521,62.3327264 194.478783,68.77931 L194.478783,68.77931 L166.889296,77.7405767 C163.230437,66.7493004 156.998413,57.0316552 148.927683,49.2503223 L148.927683,49.2503223 L151.148882,33.0648081 L135.084219,38.8527721 C128.811194,35.2515102 121.936337,32.589102 114.654345,31.0410091 C110.002995,30.0484617 105.257633,29.5353582 100.5,29.5017651 L100.5,29.5017651 Z" id="Combined-Shape" stroke="#EFF0F0" fill="#EF0000"></path>
            <path d="M194.787765,69.7303779 C200.140834,86.4914618 200.866921,104.041986 197.327502,120.685763 C193.754357,137.488132 185.834033,153.366388 173.938673,166.575162 C169.393625,171.615504 164.355704,176.181935 158.889629,180.200398 L158.889629,180.200398 L141.837418,156.739107 C161.952641,141.904312 172.7285,117.509546 170.11727,92.6278174 C169.621012,87.8987739 168.635961,83.2261204 167.198315,78.6916324 L167.198315,78.6916324 Z" id="Segment-2" stroke="#EFF0F0" fill="#940000"></path>
            <path d="M58.9715597,157.326946 C79.2941948,171.876123 105.812438,174.581638 128.673354,164.406779 C133.023141,162.470297 137.156685,160.101326 141.028558,157.327109 L141.028558,157.327109 L158.080808,180.788452 C143.79717,191.058698 127.330722,197.172994 110.407761,198.951224 C93.3228033,200.746476 75.7725519,198.122251 59.5333349,190.893212 C53.3374699,188.135178 47.4259376,184.751596 41.9190561,180.788639 L41.9190561,180.788639 Z" id="Segment-3" stroke="#EFF0F0" fill="#C6E5FA"></path>
            <path d="M5.2122827,69.7303935 L32.8015668,78.6915941 C25.2438202,102.513117 30.8704366,128.575686 47.6080482,147.174143 C50.7901845,150.716338 54.3295431,153.910726 58.1626754,156.738978 L58.1626754,156.738978 L41.1102131,180.200615 C12.6141597,159.275506 -2.64667816,124.788767 1.04726448,89.6022307 C1.75621233,82.8526587 3.14762063,76.1978703 5.2122827,69.7303935 L5.2122827,69.7303935 Z" id="Segment-4" stroke="#EFF0F0" fill="#FFF200"></path>
            <path d="M99.5,0.501268378 L99.5,29.501765 C87.0844805,29.5894257 75.1489574,32.9397486 64.7471377,38.9454182 C54.2067977,45.0310648 45.2412798,53.8432499 38.9470773,64.7498442 C36.5630682,68.8756396 34.6114918,73.2270549 33.1105601,77.7405298 L33.1105601,77.7405298 L5.52123267,68.7793152 C16.6149062,35.2067705 44.7018305,10.0372452 79.3136899,2.67913025 C85.9564682,1.27093894 92.7129901,0.535700465 99.5,0.501268378 L99.5,0.501268378 Z" id="Segment-5" stroke="#EFF0F0" fill="#F8AB00"></path>
            <text id="Alert-Level-1-Copy" font-family="Roboto-Medium, Roboto" font-size="16" font-weight="400" line-spacing="20" fill="#212121">
                <tspan x="70.1601562" y="98.6017477">ALERT </tspan>
                <tspan x="64.5" y="118.601748">LEVEL 1</tspan>
            </text>
        </g>
    </g>
</svg>