<svg width="201" height="201" xmlns="http://www.w3.org/2000/svg"><g fill="none" fill-rule="evenodd"><path d="M100 .5c35.73 0 68.74 19.06 86.6 50a100.016 100.016 0 010 100 99.988 99.988 0 01-86.6 50 99.988 99.988 0 01-86.6-50 100.016 100.016 0 010-100A99.988 99.988 0 01100 .5v30a69.986 69.986 0 00-60.62 35 70.02 70.02 0 000 70c12.5 21.66 35.61 35 60.62 35 25.01 0 48.12-13.34 60.62-35a70.02 70.02 0 000-70 69.986 69.986 0 00-60.62-35V.5z" fill-opacity=".002" fill="#455A64"/><path d="M100.358.858a99.576 99.576 0 0149.464 13.349 99.562 99.562 0 0136.468 36.472 99.83 99.83 0 018.369 18.692h0l-27.86 9.049a70.374 70.374 0 00-66.442-48.277h0z" stroke="#EFF0F0" stroke-width=".715" fill="#EF0000"/><path d="M194.88 70.05a99.555 99.555 0 012.587 51.165 99.581 99.581 0 01-23.422 45.956 100.253 100.253 0 01-15.186 13.729h0l-17.22-23.692a70.383 70.383 0 0028.337-64.065A70.352 70.352 0 00167.02 79.1h0z" stroke="#EFF0F0" stroke-width=".715" fill="#940000"/><path d="M141.06 157.629l17.22 23.691a99.548 99.548 0 01-47.857 18.273 99.602 99.602 0 01-50.948-8.07 99.424 99.424 0 01-17.755-10.202h0l17.22-23.692a70.291 70.291 0 0031.157 12.528h0l9.725 16.718 10.566-16.787a70.33 70.33 0 0018.227-5.311 70.122 70.122 0 0012.446-7.148h0z" stroke="#EFF0F0" stroke-width=".715" fill="#C6E5FA"/><path d="M5.12 70.05l27.86 9.05c-7.606 23.81-2.001 49.883 14.734 68.479a70.057 70.057 0 0010.647 9.63h0L41.141 180.9C12.531 159.954-2.799 125.372.906 90.087A99.63 99.63 0 015.12 70.051h0z" stroke="#EFF0F0" stroke-width=".715" fill="#FFF200"/><path d="M99.642.858v29.285a70.316 70.316 0 00-34.824 9.426A70.282 70.282 0 0039.07 65.32a70.148 70.148 0 00-5.869 13.099h0l-27.86-9.05C16.42 35.683 44.576 10.419 79.284 3.04A99.87 99.87 0 0199.642.858h0z" stroke="#EFF0F0" stroke-width=".715" fill="#F8AB00"/><path d="M95.555 93.304v-8.289l.047-.015 5.047 8.304h1.89V81.93h-1.89v8.281l-.047.016-5.047-8.297h-1.899v11.375h1.899zm13.64.164c1.391 0 2.523-.457 3.395-1.37.872-.915 1.309-2.067 1.309-3.458v-2.047c0-1.385-.438-2.536-1.313-3.453-.875-.917-2.008-1.375-3.398-1.375-1.36 0-2.465.458-3.317 1.375-.851.917-1.277 2.068-1.277 3.453v2.047c0 1.39.426 2.543 1.277 3.457.852.914 1.96 1.371 3.324 1.371zm0-1.554c-.838 0-1.5-.306-1.984-.918-.484-.612-.726-1.398-.726-2.356v-2.062c0-.948.242-1.727.726-2.336.484-.61 1.143-.914 1.977-.914.864 0 1.55.304 2.058.914.508.61.762 1.388.762 2.336v2.062c0 .964-.251 1.75-.754 2.36-.503.609-1.189.914-2.059.914zm-30.109 21.554c1.234 0 2.23-.28 2.988-.84.758-.56 1.137-1.313 1.137-2.261 0-.896-.318-1.633-.953-2.211-.635-.578-1.565-1.031-2.79-1.36-.931-.255-1.6-.526-2.003-.812-.404-.287-.605-.646-.605-1.078 0-.48.186-.87.558-1.172.373-.302.905-.453 1.598-.453.734 0 1.3.18 1.695.543.396.362.594.834.594 1.418h1.82l.016-.047c.026-.943-.34-1.75-1.098-2.422-.758-.672-1.762-1.008-3.012-1.008-1.197 0-2.175.297-2.933.89-.758.595-1.137 1.35-1.137 2.266 0 .891.343 1.611 1.027 2.16.685.55 1.663.991 2.934 1.325.89.24 1.512.51 1.863.812.352.302.528.69.528 1.164 0 .485-.196.869-.586 1.153-.39.284-.938.425-1.64.425-.767 0-1.389-.17-1.868-.511-.48-.341-.719-.858-.719-1.551h-1.828l-.016.047c-.026 1.094.41 1.954 1.305 2.582.896.627 1.938.941 3.125.941zm10.461-.164v-9.851h3.438v-1.524H84.21v1.524h3.438v9.851h1.898zm6.82 0v-4.719H98.9c.583 0 1.041.172 1.375.516.333.344.5.807.5 1.39v.915c0 .354.03.716.09 1.086.06.37.193.64.402.812h1.953v-.18c-.198-.166-.339-.408-.422-.726a3.833 3.833 0 01-.125-.977v-.945c0-.672-.14-1.238-.422-1.7-.281-.46-.742-.792-1.383-.995.584-.255 1.028-.595 1.332-1.02.305-.424.457-.93.457-1.52 0-1.062-.346-1.88-1.039-2.452-.692-.573-1.674-.86-2.945-.86h-4.203v11.375h1.898zm2.203-6.242h-2.203v-3.61h2.305c.703 0 1.227.163 1.57.489.344.325.516.775.516 1.348 0 .599-.174 1.044-.523 1.336-.35.291-.904.437-1.665.437zm14.165 6.242v-1.515h-5.774v-3.602h4.977v-1.523h-4.977v-3.211h5.719v-1.524h-7.617v11.375h7.672zm5.539.164c1.234 0 2.23-.28 2.988-.84.758-.56 1.137-1.313 1.137-2.261 0-.896-.318-1.633-.954-2.211-.635-.578-1.565-1.031-2.789-1.36-.932-.255-1.6-.526-2.003-.812-.404-.287-.606-.646-.606-1.078 0-.48.186-.87.559-1.172.372-.302.905-.453 1.597-.453.735 0 1.3.18 1.696.543.395.362.593.834.593 1.418h1.82l.016-.047c.026-.943-.34-1.75-1.097-2.422-.758-.672-1.762-1.008-3.012-1.008-1.198 0-2.176.297-2.934.89-.757.595-1.136 1.35-1.136 2.266 0 .891.342 1.611 1.027 2.16.685.55 1.663.991 2.934 1.325.89.24 1.511.51 1.863.812.351.302.527.69.527 1.164 0 .485-.195.869-.586 1.153-.39.284-.937.425-1.64.425-.766 0-1.388-.17-1.868-.511-.479-.341-.718-.858-.718-1.551h-1.828l-.016.047c-.026 1.094.409 1.954 1.305 2.582.895.627 1.937.941 3.125.941zm10.062 0c1.234 0 2.23-.28 2.988-.84.758-.56 1.137-1.313 1.137-2.261 0-.896-.318-1.633-.953-2.211-.635-.578-1.565-1.031-2.79-1.36-.931-.255-1.6-.526-2.003-.812-.404-.287-.605-.646-.605-1.078 0-.48.186-.87.558-1.172.373-.302.905-.453 1.598-.453.734 0 1.3.18 1.695.543.396.362.594.834.594 1.418h1.82l.016-.047c.026-.943-.34-1.75-1.098-2.422-.758-.672-1.762-1.008-3.012-1.008-1.197 0-2.175.297-2.933.89-.758.595-1.137 1.35-1.137 2.266 0 .891.343 1.611 1.027 2.16.685.55 1.663.991 2.934 1.325.89.24 1.512.51 1.863.812.352.302.528.69.528 1.164 0 .485-.196.869-.586 1.153-.39.284-.938.425-1.64.425-.767 0-1.389-.17-1.868-.511-.48-.341-.719-.858-.719-1.551h-1.828l-.016.047c-.026 1.094.41 1.954 1.305 2.582.896.627 1.938.941 3.125.941z" fill="#212121" fill-rule="nonzero"/></g></svg>