<svg width="202" height="200" xmlns="http://www.w3.org/2000/svg">
    <g fill="none" fill-rule="evenodd">
        <path
            d="M71.831.5a71.491 71.491 0 0161.92 35.75 71.511 71.511 0 010 71.5 71.491 71.491 0 01-61.92 35.75 71.491 71.491 0 01-61.919-35.75 71.511 71.511 0 010-71.5A71.491 71.491 0 0171.832.5v21.45a50.04 50.04 0 00-43.344 25.025 50.065 50.065 0 000 50.05 50.04 50.04 0 0043.343 25.025 50.04 50.04 0 0043.344-25.025 50.065 50.065 0 000-50.05A50.04 50.04 0 0071.83 21.95V.5z"
            fill-opacity=".002" fill="#455A64" />
        <path
            d="M72.189.858a71.095 71.095 0 0135.214 9.53 71.085 71.085 0 0126.038 26.04 71.283 71.283 0 015.943 13.25h0l-19.727 6.407A50.42 50.42 0 0072.19 21.594h0z"
            stroke="#EFF0F0" stroke-width=".715" fill="#EF0000" />
        <path
            d="M139.605 50.357a71.08 71.08 0 011.815 36.433 71.099 71.099 0 01-16.723 32.811 71.583 71.583 0 01-10.76 9.742h0l-12.192-16.775a50.426 50.426 0 0020.22-45.84 50.394 50.394 0 00-2.087-9.963h0z"
            stroke="#EFF0F0" stroke-width=".715" fill="#940000" />
        <path
            d="M101.167 112.989l12.192 16.775a71.075 71.075 0 01-34.086 12.986 71.114 71.114 0 01-36.375-5.761 70.993 70.993 0 01-12.595-7.225h0l12.193-16.775a50.4 50.4 0 0049.837 5.062 50.237 50.237 0 008.834-5.062h0z"
            stroke="#EFF0F0" stroke-width=".715" fill="#C6E5FA" />
        <path
            d="M4.058 50.357l19.726 6.407A50.346 50.346 0 0022 79.578h0l-8.79 10.18 12.675 2.969a50.395 50.395 0 008.487 13.003 50.177 50.177 0 007.547 6.838h0l-12.193 16.775A71.148 71.148 0 011.08 64.566a71.137 71.137 0 012.978-14.209h0z"
            stroke="#EFF0F0" stroke-width=".715" fill="#FFF200" />
        <path
            d="M71.474.858v20.736a50.378 50.378 0 00-24.849 6.752 50.353 50.353 0 00-18.447 18.45 50.254 50.254 0 00-4.173 9.288h0L4.28 49.677A71.14 71.14 0 0157.04 2.416 71.312 71.312 0 0171.474.858h0z"
            stroke="#EFF0F0" stroke-width=".715" fill="#F8AB00" />
        <path
            d="M55.702 77.58l1.631-5.837h.033l1.626 5.837h1.234l1.933-8.133h-1.335l-1.285 5.949-.005.056-.006-.04-1.642-5.965h-1.084l-1.625 5.949-.006.028v-.011l-1.301-5.966h-1.335l1.927 8.133h1.24zm7.882 0l.648-1.9h3.184l.642 1.9h1.38l-2.955-8.133h-1.285l-2.989 8.133h1.375zm3.446-3.033h-2.407l1.195-3.475h.034l1.178 3.475zm6.452 3.033v-7.044h2.458v-1.09h-6.273v1.09h2.458v7.044h1.357zm6.262.117c.938 0 1.682-.258 2.231-.773.55-.516.817-1.185.802-2.008l-.011-.034h-1.307c0 .551-.146.978-.436 1.28-.29.3-.717.452-1.28.452-.565 0-1.015-.22-1.348-.66-.334-.439-.5-.994-.5-1.664V72.73c0-.662.163-1.214.489-1.653.325-.44.766-.66 1.32-.66.578 0 1.014.154 1.31.459.297.305.445.732.445 1.28h1.312l.011-.034c.015-.853-.254-1.532-.807-2.037-.553-.504-1.31-.756-2.27-.756-.939 0-1.701.32-2.288.963-.586.643-.88 1.459-.88 2.45v1.547c0 .994.297 1.81.891 2.45.594.638 1.366.957 2.316.957zm5.72-.117v-3.469h3.642v3.469h1.352v-8.133h-1.352v3.575h-3.642v-3.575h-1.358v8.133h1.358z"
            fill="#212121" fill-rule="nonzero" />
    </g>
</svg>
