<?xml version="1.0" encoding="iso-8859-1"?>
<!-- Generator: Adobe Illustrator 16.0.0, SVG Export Plug-In . SVG Version: 6.00 Build 0)  -->
<!DOCTYPE svg PUBLIC "-//W3C//DTD SVG 1.1//EN" "http://www.w3.org/Graphics/SVG/1.1/DTD/svg11.dtd">
<svg version="1.1" id="Capa_1" xmlns="http://www.w3.org/2000/svg" xmlns:xlink="http://www.w3.org/1999/xlink" x="0px" y="0px"
	 width="471.851px" height="471.851px" viewBox="0 0 471.851 471.851" style="enable-background:new 0 0 471.851 471.851;"
	 xml:space="preserve">
<g>
	<path d="M362.944,230.762c0.881,1.165,1.342,2.554,1.342,3.942c0,1.372-0.426,2.731-1.301,3.901
		c-1.749,2.317-4.841,3.18-7.542,2.116l-80.705-31.883v186.845c0,3.564-2.896,6.473-6.479,6.473h-64.667
		c-3.579,0-6.466-2.902-6.472-6.479V208.839l-80.706,31.895c-2.704,1.052-5.798,0.189-7.548-2.14
		c-1.747-2.317-1.747-5.521,0.044-7.826L230.797,72.221c1.223-1.599,3.129-2.53,5.127-2.53c2.024,0,3.91,0.931,5.14,2.53
		L362.944,230.762z M471.845,235.922c0,130.084-105.833,235.929-235.92,235.929c-130.09,0-235.919-105.845-235.919-235.929
		C0.006,105.841,105.841,0,235.925,0C366.012,0,471.845,105.841,471.845,235.922z M445.973,235.922
		c0-115.812-94.224-210.042-210.048-210.042S25.88,120.109,25.88,235.922c0,115.834,94.229,210.045,210.045,210.045
		C351.749,445.967,445.973,351.756,445.973,235.922z"/>
</g>
<g>
</g>
<g>
</g>
<g>
</g>
<g>
</g>
<g>
</g>
<g>
</g>
<g>
</g>
<g>
</g>
<g>
</g>
<g>
</g>
<g>
</g>
<g>
</g>
<g>
</g>
<g>
</g>
<g>
</g>
</svg>
