<svg viewBox="0 0 223 224" xmlns="http://www.w3.org/2000/svg" xmlns:xlink="http://www.w3.org/1999/xlink"><defs><linearGradient id="prefix__d" x1="50%" x2="50%" y2="100%"><stop stop-color="#9BD2EB" offset="0"/><stop stop-color="#B8E5F0" offset=".765"/></linearGradient><rect id="prefix__a" x=".121" y=".5" width="221.78" height="223.5" rx="4"/><path id="prefix__c" d="M.121 82c0-2.21 1.787-4 4.007-4h215.99a4.005 4.005 0 014.007 4v138c0 2.21-1.786 4-4.007 4H4.128a4.005 4.005 0 01-4.007-4V82z"/></defs><g transform="translate(.31 -.5)" fill="none" fill-rule="evenodd"><mask id="prefix__b" fill="#fff"><use xlink:href="#prefix__a"/></mask><use fill="#E3F1F7" xlink:href="#prefix__a"/><g mask="url(#prefix__b)"><use fill="#0FACBE" xlink:href="#prefix__c"/><use fill="url(#prefix__d)" xlink:href="#prefix__c"/></g><path d="M.121 205s10.148 3.753 63.611 3.753c27.901 0 70.363-2.775 104.59-3.753 31.356-.896 55.8 0 55.8 0v19h-224v-19z" fill="#D2C4A7" mask="url(#prefix__b)"/><g fill="#E3F1F7" mask="url(#prefix__b)"><g transform="translate(-6.566 69)"><ellipse cx="12.354" cy="12.088" rx="12.354" ry="12.088"/><ellipse cx="31.783" cy="12.088" rx="12.354" ry="12.088"/><ellipse cx="51.202" cy="12.088" rx="12.354" ry="12.088"/><ellipse cx="70.62" cy="12.088" rx="12.354" ry="12.088"/><ellipse cx="90.039" cy="12.088" rx="12.354" ry="12.088"/><ellipse cx="109.46" cy="12.088" rx="12.354" ry="12.088"/><ellipse cx="128.88" cy="12.088" rx="12.354" ry="12.088"/><ellipse cx="148.29" cy="12.088" rx="12.354" ry="12.088"/><ellipse cx="167.71" cy="12.088" rx="12.354" ry="12.088"/><ellipse cx="187.13" cy="12.088" rx="12.354" ry="12.088"/><ellipse cx="206.55" cy="12.088" rx="12.354" ry="12.088"/><ellipse cx="225.97" cy="12.088" rx="12.354" ry="12.088"/></g></g></g></svg>