<svg viewBox="0 0 32 25" xmlns="http://www.w3.org/2000/svg"><g fill="none" fill-rule="evenodd" opacity=".5"><path fill="#fff" d="M22.974 3.248h-4.125v.76h-5.064v-.76H9.406L8.342 4.894h15.697z"/><g stroke="#fff"><path d="M18.405 23.882h-4.304a9.367 9.367 0 01-9.367-9.367h23.038a9.367 9.367 0 01-9.367 9.367z"/><path stroke-linejoin="round" d="M1.253 14.514H31.38v-2.025H1.253z"/><path d="M21.76 1.856H10.62L2.266 12.489h27.848z"/><path stroke-linejoin="round" d="M27.076 12.362h-6.835V4.008zM5.81 12.362h6.583V4.008z"/><path d="M20.486.754h-1.633a.323.323 0 00-.323.322v.437h2.279v-.437a.323.323 0 00-.323-.322z" stroke-width=".8"/></g></g></svg>