<svg viewBox="0 0 29 35" xmlns="http://www.w3.org/2000/svg" xmlns:xlink="http://www.w3.org/1999/xlink"><defs><filter id="prefix__a" x="-35%" y="-19.9%" width="170%" height="155.7%"><feOffset dy="2" in="SourceAlpha" result="shadowOffsetOuter1"/><feGaussianBlur in="shadowOffsetOuter1" result="shadowBlurOuter1" stdDeviation="2"/><feColorMatrix in="shadowBlurOuter1" values="0 0 0 0 0 0 0 0 0 0 0 0 0 0 0 0 0 0 0.5 0"/></filter><path id="prefix__b" d="M10.002 0c7.407 0 12.206 7.824 8.972 14.397-1.565 3.338-6.782 8.346-8.972 10.745-2.295-2.609-7.198-7.198-8.867-10.641C-2.308 8.033 2.49 0 10.002 0z"/></defs><g transform="translate(4.94 2.5)" fill="none" fill-rule="evenodd"><use fill="#000" filter="url(#prefix__a)" xlink:href="#prefix__b"/><use fill="#000" xlink:href="#prefix__b"/><path d="M10.38 4.367c.267 0 .488.195.53.45l.007.088v.361l1.67.001 3.664 4.662h.748v1.42h-1.206a4.724 4.724 0 01-4.708 4.337h-2.17a4.724 4.724 0 01-4.708-4.337H3v-1.42h.747l3.664-4.662h1.67v-.362c0-.268.196-.49.451-.531l.088-.007h.758zm-2.144 1.9L5.349 9.929h2.886V6.267zm3.646 0v3.662h2.996l-2.996-3.662z" fill="#fff"/></g></svg>