<svg viewBox="0 0 80 55" xmlns="http://www.w3.org/2000/svg"><g stroke="#fff" stroke-width="2.5" fill="none" fill-rule="evenodd" stroke-linejoin="round"><path d="M48.81 12.28c-2.559-5.664-8.222-9.593-14.799-9.593-7.583 0-13.885 5.117-15.712 12.15a6.654 6.654 0 00-3.198-.82 6.941 6.941 0 00-6.944 6.945c0 .82.093 1.552.364 2.19-3.38.457-6.031 3.38-6.031 6.852a6.941 6.941 0 006.944 6.945h5.664" stroke-linecap="round"/><path d="M66.296 29.667c-.457 0-.82 0-1.278.093-2.101-6.488-8.222-11.238-15.437-11.238-7.583 0-13.885 5.117-15.712 12.15a6.654 6.654 0 00-3.197-.82 6.941 6.941 0 00-6.945 6.945c0 .82.093 1.552.364 2.19-3.38.457-6.03 3.38-6.03 6.852a6.941 6.941 0 006.944 6.945h41.842c.55 0 1.006 0 1.552-.093 5.482-.913 9.686-5.663 9.686-11.42-.186-6.395-5.392-11.605-11.787-11.605h-.002z"/></g></svg>