<?xml version="1.0" encoding="UTF-8"?>
<svg width="103px" height="77px" viewBox="0 0 103 77" version="1.1" xmlns="http://www.w3.org/2000/svg" xmlns:xlink="http://www.w3.org/1999/xlink">
    <title>132CFEC3-52F1-4709-92A9-1C285F183C07</title>
    <g id="Page-1" stroke="none" stroke-width="1" fill="none" fill-rule="evenodd">
        <g id="Reef-Detail-full---no-live-feed-Copy-2" transform="translate(-901.000000, -1011.000000)" stroke="#FFFFFF" stroke-width="2.5">
            <g id="clouds" transform="translate(952.476401, 1049.110293) scale(-1, 1) translate(-952.476401, -1049.110293) translate(903.476401, 1013.110293)">
                <path d="M94.2434089,52.4863499 C92.9848091,46.5585689 88.174875,41.8091799 82.2472886,40.5778352 C78.7263241,39.8325845 75.3764825,40.2926596 72.4831631,41.5816001 C72.0268842,41.7831221 71.5401867,41.4941503 71.4793981,41.0074528 C70.5060031,29.2692822 60.6844473,20.0492845 48.6922206,20.0492845 C38.9280951,20.0492845 30.6269823,26.1481884 27.3349603,34.7640971 C26.8140382,36.0112108 25.3083519,33.9884181 19.661882,34.5929937 C10.5020401,35.4789389 3.14434084,43.3839189 2.88639116,52.6008017 C2.62783797,62.6501319 10.3579777,70.9512447 20.1797282,71.639435 L20.122697,71.696476 L79.8151735,71.696476 L79.8151735,71.6698536 C89.1765082,71.1261249 96.362889,62.3655599 94.2447814,52.4871578 L94.2434089,52.4863499 Z" id="Fill-1" stroke-linejoin="bevel"></path>
                <path d="M85.7582464,11.6076524 C82.6098975,11.6076524 80.0319581,14.1855918 80.0319581,17.3339407 L80.0319581,17.3643593 C80.0015395,17.3643593 79.9749269,17.3339407 79.917886,17.3339407 C76.7695371,17.3339407 74.1915977,19.91188 74.1915977,23.0602289 C74.1915977,26.2389477 76.7695371,28.7865172 79.917886,28.7865172 L91.4847391,28.7865172 C94.6786428,28.729486 97.1539864,26.185703 97.1539864,23.0602289 C97.1539864,19.91188 94.6330879,17.3909816 91.4847391,17.3339407 C91.4847391,14.1855918 88.9371696,11.6076524 85.7584508,11.6076524 L85.7582464,11.6076524 Z" id="Fill-2" stroke-linejoin="bevel"></path>
                <path d="M44.6764252,14.191396 C44.3873345,12.6282292 42.3668856,11.7883437 40.7778824,11.7883437 C39.8978149,5.19324531 34.2455567,0.103362193 27.4134591,0.103362193 C19.9718541,0.103362193 13.9299912,6.14522512 13.9299912,13.5897503 L13.9299912,13.6201689 C13.8159191,13.6201689 13.7284692,13.5897503 13.6448157,13.5897503 C6.19989922,13.5897503 0.158009035,19.627817 0.158009035,27.0732182 C0.158009035,29.9633156 1.07437285,32.6553369 2.62186652,34.8302907" id="Path" stroke-linecap="round" stroke-linejoin="round"></path>
            </g>
        </g>
    </g>
</svg>