<?xml version="1.0" encoding="UTF-8"?>
<svg width="80px" height="55px" viewBox="0 0 80 55" version="1.1" xmlns="http://www.w3.org/2000/svg" xmlns:xlink="http://www.w3.org/1999/xlink">
    <title>clouds2</title>
    <g id="Page-1" stroke="none" stroke-width="1" fill="none" fill-rule="evenodd" stroke-linejoin="round">
        <g id="Reef-Detail-full---no-live-feed-Copy-2" transform="translate(-808.000000, -1036.000000)" stroke="#FFFFFF" stroke-width="2.5">
            <g id="clouds2" transform="translate(809.932493, 1038.509400)">
                <path d="M46.88034,9.77920136 C44.3216265,4.11582786 38.658253,0.186766578 32.081497,0.186766578 C24.4981749,0.186766578 18.1962193,5.3041935 16.3690889,12.3380975 C15.3627054,11.7885332 14.267158,11.517314 13.1716106,11.517314 C9.33536753,11.517314 6.22705324,14.621974 6.22705324,18.4618714 C6.22705324,19.2826549 6.31983492,20.0142014 6.59105416,20.6529662 C3.21159371,21.1097488 0.560062024,24.0324266 0.560062024,27.5047053 C0.560062024,31.3409484 3.66472206,34.4492627 7.50461938,34.4492627 L13.1679929,34.4492627" id="Path" stroke-linecap="round"></path>
                <path d="M64.3664614,27.167425 C63.9096788,27.167425 63.5456779,27.167425 63.0889318,27.2602067 C60.9870009,20.772432 54.8668448,16.022441 47.6515067,16.022441 C40.0681846,16.022441 33.766229,21.1398679 31.9390986,28.1737719 C30.9327151,27.6242077 29.8371677,27.3529884 28.7416203,27.3529884 C24.9053773,27.3529884 21.797063,30.4576484 21.797063,34.2975458 C21.797063,35.1183293 21.8898446,35.8498758 22.1610639,36.4886406 C18.7816034,36.9454232 16.1300717,39.868101 16.1300717,43.3403797 C16.1300717,47.1766228 19.2347318,50.2849371 23.0746291,50.2849371 L64.9168296,50.2849371 C65.4663939,50.2849371 65.9232131,50.2849371 66.4691596,50.1921554 C71.9505509,49.2785902 76.1547781,44.5287819 76.1547781,38.7725902 C75.9692147,32.3776336 70.7626421,27.1675712 64.3679596,27.1675712 L64.3664614,27.167425 Z" id="Fill-2"></path>
            </g>
        </g>
    </g>
</svg>