<svg viewBox="0 0 103 77" xmlns="http://www.w3.org/2000/svg"><g stroke="#fff" stroke-width="2.5" fill="none" fill-rule="evenodd"><path d="M6.237 54.586c1.259-5.928 6.069-10.677 11.996-11.909 3.521-.745 6.87-.285 9.764 1.004a.71.71 0 001.004-.574c.973-11.738 10.795-20.958 22.787-20.958 9.764 0 18.065 6.099 21.357 14.715.52 1.247 2.027-.776 7.673-.171 9.16.885 16.518 8.79 16.775 18.008.259 10.049-7.472 18.35-17.293 19.039l.057.057H20.665v-.027c-9.361-.544-16.548-9.304-14.43-19.183h.001zM14.722 13.708c3.148 0 5.726 2.578 5.726 5.726v.03c.03 0 .057-.03.114-.03 3.149 0 5.727 2.578 5.727 5.727a5.725 5.725 0 01-5.727 5.726H8.995c-3.194-.057-5.669-2.6-5.669-5.726 0-3.149 2.521-5.67 5.67-5.727a5.725 5.725 0 015.726-5.726h0z" stroke-linejoin="bevel"/><path d="M55.804 16.291c.29-1.563 2.31-2.403 3.899-2.403.88-6.595 6.532-11.685 13.364-11.685 7.441 0 13.483 6.042 13.483 13.486v.03c.114 0 .201-.03.285-.03 7.445 0 13.487 6.038 13.487 13.483 0 2.89-.917 5.582-2.464 7.757" stroke-linecap="round" stroke-linejoin="round"/></g></svg>