<svg width="60" height="60" viewBox="0 0 60 60" fill="none" xmlns="http://www.w3.org/2000/svg"><circle cx="30" cy="30" r="28.5" fill="#DEF6FF" stroke="#128CC0" stroke-width="3"/><path d="M36.6667 31.4285C36.6667 29.5952 38.1667 28.0952 40 28.0952C41.8333 28.0952 43.3333 29.5952 43.3333 31.4285C43.3333 33.2619 41.8333 34.7619 40 34.7619C38.1667 34.7619 36.6667 33.2619 36.6667 31.4285ZM26.6667 31.4285C26.6667 29.5952 28.1667 28.0952 30 28.0952C31.8333 28.0952 33.3333 29.5952 33.3333 31.4285C33.3333 33.2619 31.8333 34.7619 30 34.7619C28.1667 34.7619 26.6667 33.2619 26.6667 31.4285ZM16.6667 31.4285C16.6667 29.5952 18.1667 28.0952 20 28.0952C21.8333 28.0952 23.3333 29.5952 23.3333 31.4285C23.3333 33.2619 21.8333 34.7619 20 34.7619C18.1667 34.7619 16.6667 33.2619 16.6667 31.4285ZM31.6667 41.4285C31.6667 39.5952 33.1667 38.0952 35 38.0952C36.8333 38.0952 38.3333 39.5952 38.3333 41.4285C38.3333 43.2619 36.8333 44.7619 35 44.7619C33.1667 44.7619 31.6667 43.2619 31.6667 41.4285ZM21.6667 41.4285C21.6667 39.5952 23.1667 38.0952 25 38.0952C26.8333 38.0952 28.3333 39.5952 28.3333 41.4285C28.3333 43.2619 26.8333 44.7619 25 44.7619C23.1667 44.7619 21.6667 43.2619 21.6667 41.4285ZM31.6667 21.4285C31.6667 19.5952 33.1667 18.0952 35 18.0952C36.8333 18.0952 38.3333 19.5952 38.3333 21.4285C38.3333 23.2619 36.8333 24.7619 35 24.7619C33.1667 24.7619 31.6667 23.2619 31.6667 21.4285ZM21.6667 21.4285C21.6667 19.5952 23.1667 18.0952 25 18.0952C26.8333 18.0952 28.3333 19.5952 28.3333 21.4285C28.3333 23.2619 26.8333 24.7619 25 24.7619C23.1667 24.7619 21.6667 23.2619 21.6667 21.4285Z" fill="#128CC0"/></svg>
