<?xml version="1.0" encoding="UTF-8"?>
<svg width="24px" height="24px" viewBox="0 0 24 24" version="1.1" xmlns="http://www.w3.org/2000/svg" xmlns:xlink="http://www.w3.org/1999/xlink">
    <title>directioncircle</title>
    <g id="Page-1" stroke="none" stroke-width="1" fill="none" fill-rule="evenodd">
        <g id="Reef-Detail-full---no-live-feed-Copy-2" transform="translate(-894.000000, -984.000000)">
            <g id="directioncircle" transform="translate(894.000000, 984.000000)">
                <circle id="Oval" stroke="#000000" stroke-width="1.5" cx="12" cy="12" r="11.25"></circle>
                <path d="M18.9050957,11.2414047 L14.4490422,6.78474269 C14.0384957,6.37419623 13.3540488,6.37419623 12.9435023,6.78474269 C12.5329558,7.19528916 12.5329558,7.87973607 12.9435023,8.29028254 L15.5743641,10.9371148 L5.84000838,10.9371148 C5.24706442,10.9371148 4.77531319,11.408866 4.77531319,12.00181 C4.77531319,12.5947539 5.24706442,13.0665052 5.84000838,13.0665052 L15.5743641,13.0665052 L12.9428939,15.6979754 C12.5323474,16.1085219 12.5323474,16.7929688 12.9428939,17.2035152 C13.1555896,17.4162109 13.42949,17.5231672 13.7033905,17.5231672 C13.9772909,17.5231672 14.2511914,17.4168163 14.463887,17.2035152 L18.9050349,12.7623674 C19.1028857,12.5645166 19.2246868,12.2906162 19.2246868,12.0018708 C19.2246868,11.7131255 19.1183359,11.439225 18.9050349,11.2413743 L18.9050957,11.2414047 Z" id="Fill-1" fill="#000000" transform="translate(12.000000, 12.000000) rotate(-90.000000) translate(-12.000000, -12.000000) "></path>
            </g>
        </g>
    </g>
</svg>