<svg width="60" height="60" viewBox="0 0 60 60" fill="none" xmlns="http://www.w3.org/2000/svg"><circle cx="30" cy="30" r="28.5" fill="#DEF6FF" stroke="#128CC0" stroke-width="3"/><path d="M20.5714 27C24.0482 27 26.8571 29.809 26.8571 33.2857C26.8571 36.7625 24.0482 39.5715 20.5714 39.5715C17.0946 39.5715 14.2857 36.7625 14.2857 33.2857C14.2857 29.809 17.0946 27 20.5714 27ZM35.5 36.4286C36.5419 36.4286 37.5412 36.8425 38.2779 37.5793C39.0147 38.316 39.4286 39.3153 39.4286 40.3572C39.4286 41.3991 39.0147 42.3983 38.2779 43.1351C37.5412 43.8718 36.5419 44.2857 35.5 44.2857C34.4581 44.2857 33.4588 43.8718 32.7221 43.1351C31.9853 42.3983 31.5714 41.3991 31.5714 40.3572C31.5714 39.3153 31.9853 38.316 32.7221 37.5793C33.4588 36.8425 34.4581 36.4286 35.5 36.4286ZM36.2857 12.8572C37.5239 12.8572 38.7499 13.1011 39.8939 13.5749C41.0378 14.0487 42.0772 14.7432 42.9527 15.6187C43.8282 16.4943 44.5227 17.5337 44.9966 18.6776C45.4704 19.8215 45.7143 21.0476 45.7143 22.2857C45.7143 27.4911 41.4911 31.7143 36.2857 31.7143C33.7851 31.7143 31.3869 30.721 29.6187 28.9528C27.8505 27.1846 26.8571 24.7864 26.8571 22.2857C26.8571 17.0804 31.0803 12.8572 36.2857 12.8572Z" fill="#128CC0"/></svg>
