<svg width="29" height="35" xmlns="http://www.w3.org/2000/svg" xmlns:xlink="http://www.w3.org/1999/xlink"><defs><filter x="-35%" y="-19.9%" width="170%" height="155.7%" filterUnits="objectBoundingBox" id="prefix__a"><feOffset dy="2" in="SourceAlpha" result="shadowOffsetOuter1"/><feGaussianBlur stdDeviation="2" in="shadowOffsetOuter1" result="shadowBlurOuter1"/><feColorMatrix values="0 0 0 0 0 0 0 0 0 0 0 0 0 0 0 0 0 0 0.5 0" in="shadowBlurOuter1"/></filter><path d="M10.002 0c7.407 0 12.206 7.824 8.972 14.397-1.565 3.338-6.782 8.345-8.972 10.745-2.295-2.609-7.197-7.198-8.867-10.641C-2.307 8.033 2.49 0 10.002 0z" id="prefix__b"/></defs><g fill="none" fill-rule="evenodd"><g fill="#000" transform="translate(4.5 2.5)"><use filter="url(#prefix__a)" xlink:href="#prefix__b"/><use xlink:href="#prefix__b"/></g><path d="M9.232 12.222c3.757-3.757 9.085 1.56 5.322 5.322l-2.219-2.22v.362a1.298 1.298 0 01-1.294-1.297l.36.001-2.17-2.168zm-1.305 2.054c0 2.486 2.035 4.524 4.521 4.524v-.898c-1.988 0-3.625-1.634-3.625-3.623l-.896-.002zm1.494.037a3.003 3.003 0 002.992 2.991v-.898a2.102 2.102 0 01-2.093-2.093h-.899zm.854-7.033l1.068-1.068a1.416 1.416 0 011.996 0l1.965 1.965-2.067 2.067-2.962-2.963V7.28zm9.318 9.319l1.068-1.069a1.416 1.416 0 000-1.996l-1.965-1.965-2.066 2.067 2.962 2.963h.001zm-2.847-7.68l.766-.767c.22-.219.579-.219.799 0l.41.41c.22.22.22.58 0 .8l-.766.765a.836.836 0 00-.145-.194l-.868-.87a.846.846 0 00-.195-.144zm-2.78 1.923l1.402-1.403a.85.85 0 011.198 0l.869.869a.85.85 0 010 1.198l-1.442 1.442c-.356-.89-1.15-1.713-2.028-2.106z" fill="#FFF"/></g></svg>