<svg width="47" height="43" xmlns="http://www.w3.org/2000/svg"><path d="M21.772 20.23c.907-.89 2.359-.89 3.266 0l7.014 7.014a2.333 2.333 0 01-.014 3.3l-.013.013a2.333 2.333 0 01-3.3-.013l-3.01-3.034v13.044a2.333 2.333 0 11-4.667 0v-13.16l-3.056 2.963a2.333 2.333 0 11-3.22-3.36zm-2.97-18.66c7.307-2.53 15.28 1.344 17.81 8.65l.376.053a11.667 11.667 0 016.046 2.902c4.762 4.34 5.104 11.72.764 16.482l-.125.132a2.333 2.333 0 01-1.625.661l-.188-.008a2.333 2.333 0 01-1.352-.575l-.01-.01-.011-.009a2.333 2.333 0 01-.189-3.294l.199-.232a7 7 0 00-5.449-11.435h-.14a2.333 2.333 0 01-2.333-1.867l-.063-.288a9.333 9.333 0 00-18.23.288l-.04.163a2.333 2.333 0 01-2.294 1.704h-.233a7 7 0 00-5.25 11.667l.13.114a2.333 2.333 0 11-3.63 2.849l-.251-.293a11.667 11.667 0 01-2.577-5.892c-.855-6.386 3.628-12.256 10.015-13.112l.124-.345a14 14 0 018.527-8.306z" fill="#FFF" fill-rule="evenodd" opacity=".5"/></svg>