<svg width="60" height="60" viewBox="0 0 60 60" fill="none" xmlns="http://www.w3.org/2000/svg"><circle cx="30" cy="30" r="28.5" fill="#DEF6FF" stroke="#128CC0" stroke-width="3"/><path d="M39.0858 16.6286C41.4286 16.6286 43.3715 18.5715 43.3715 20.9144C43.3715 23.2715 41.4286 25.2001 39.0858 25.2001C36.7286 25.2001 34.8001 23.2715 34.8001 20.9144C34.8001 20.4858 34.8715 20.0858 35.0001 19.7144C33.4715 18.9858 31.7858 18.5715 30.0001 18.5715C26.969 18.5715 24.0621 19.7756 21.9188 21.9188C19.7756 24.0621 18.5715 26.969 18.5715 30.0001L18.6286 31.2001L15.7858 31.5001L15.7144 30.0001C15.7144 26.2113 17.2195 22.5776 19.8985 19.8985C22.5776 17.2195 26.2113 15.7144 30.0001 15.7144C32.4144 15.7144 34.6858 16.3144 36.6715 17.3715C37.3715 16.9001 38.2001 16.6286 39.0858 16.6286ZM39.0858 19.4858C38.7069 19.4858 38.3435 19.6363 38.0756 19.9042C37.8077 20.1721 37.6572 20.5355 37.6572 20.9144C37.6572 21.2932 37.8077 21.6566 38.0756 21.9245C38.3435 22.1924 38.7069 22.3429 39.0858 22.3429C39.8858 22.3429 40.5144 21.7001 40.5144 20.9144C40.5144 20.1144 39.8858 19.4858 39.0858 19.4858ZM20.9144 34.8001C23.2715 34.8001 25.2001 36.7286 25.2001 39.0858C25.2001 39.5144 25.1286 39.9144 25.0001 40.2858C26.5286 41.0144 28.2144 41.4286 30.0001 41.4286C33.0311 41.4286 35.938 40.2246 38.0813 38.0813C40.2246 35.938 41.4286 33.0311 41.4286 30.0001L41.3715 28.8001L44.2144 28.5001L44.2858 30.0001C44.2858 33.7889 42.7807 37.4225 40.1016 40.1016C37.4225 42.7807 33.7889 44.2858 30.0001 44.2858C27.5858 44.2858 25.3144 43.6858 23.3286 42.6286C22.6286 43.1001 21.8001 43.3715 20.9144 43.3715C18.5715 43.3715 16.6286 41.4286 16.6286 39.0858C16.6286 36.7286 18.5715 34.8001 20.9144 34.8001ZM20.9144 37.6572C20.1144 37.6572 19.4858 38.3001 19.4858 39.0858C19.4858 39.8858 20.1144 40.5144 20.9144 40.5144C21.2932 40.5144 21.6566 40.3638 21.9245 40.0959C22.1924 39.828 22.3429 39.4647 22.3429 39.0858C22.3429 38.7069 22.1924 38.3435 21.9245 38.0756C21.6566 37.8077 21.2932 37.6572 20.9144 37.6572ZM30.0001 24.2858C31.5156 24.2858 32.969 24.8878 34.0407 25.9595C35.1123 27.0311 35.7144 28.4845 35.7144 30.0001C35.7144 31.5156 35.1123 32.969 34.0407 34.0407C32.969 35.1123 31.5156 35.7144 30.0001 35.7144C28.4845 35.7144 27.0311 35.1123 25.9595 34.0407C24.8878 32.969 24.2858 31.5156 24.2858 30.0001C24.2858 28.4845 24.8878 27.0311 25.9595 25.9595C27.0311 24.8878 28.4845 24.2858 30.0001 24.2858Z" fill="#128CC0"/></svg>
