<svg width="43" height="43" xmlns="http://www.w3.org/2000/svg"><g fill="none" fill-rule="evenodd" opacity=".5"><path d="M16.036 5.783l-4.729 2.62 4.709 8.219 4.61-2.738-4.59-8.101zM28.547 26.4l-4.729 2.62 4.71 8.22 4.61-2.738-4.59-8.101z"/><path d="M35.678 31.994c.16-.149.168-.4.02-.56l-6.478-6.946a.397.397 0 00-.56-.02l-1.736 1.62-1.89-2.026 3.184-2.97a3.957 3.957 0 10-5.398-5.788.392.392 0 00-.129.276.393.393 0 00.384.412.392.392 0 00.285-.11 3.15 3.15 0 014.475.157 3.15 3.15 0 01-.157 4.475l-6.856 6.393c-.318-.963-.88-1.923-1.671-2.77a7.522 7.522 0 00-2.657-1.852l5.129-4.783a.398.398 0 10-.54-.579l-1.447 1.35-1.89-2.026 1.737-1.62c.16-.149.168-.4.02-.56l-6.478-6.946a.397.397 0 00-.56-.02l-4.052 3.78a.394.394 0 00-.045.531l.025.028 6.478 6.946c.149.16.4.169.56.02l1.736-1.62 1.89 2.027L15.637 22c-.072-.017-.143-.037-.216-.052-1.301-.264-2.594-.033-3.503.815a.397.397 0 00-.02.559l3.51 3.763-1.158 1.08a.392.392 0 00-.129.276.393.393 0 00.384.412.392.392 0 00.285-.11l1.158-1.08 3.509 3.764c.148.159.4.168.559.019.909-.848 1.238-2.112 1.065-3.428-.01-.075-.032-.154-.045-.23l3.42-3.187 1.889 2.026-1.737 1.62a.397.397 0 00-.02.559l6.478 6.946c.01.014.021.025.034.037.154.129.38.121.526-.017l4.052-3.779zm-.83-.309l-3.472 3.239-5.939-6.368 3.474-3.239 5.938 6.368zM19.69 30.517l-6.866-7.363c.661-.44 1.487-.625 2.439-.432 1.113.226 2.318.89 3.31 1.954.99 1.062 1.578 2.32 1.725 3.446.125.962-.125 1.764-.608 2.394h0zm-1.036-16.2l-3.473 3.24-5.938-6.368 3.473-3.24 5.938 6.369z" stroke="#FFF" stroke-width=".5" fill="#FFF"/></g></svg>
