<?xml version="1.0" encoding="UTF-8"?>
<svg width="43px" height="43px" viewBox="0 0 43 43" version="1.1" xmlns="http://www.w3.org/2000/svg" xmlns:xlink="http://www.w3.org/1999/xlink">
    <title>EDF11B96-81A3-4A2F-B128-40A4C90713D4</title>
    <g id="Page-1" stroke="none" stroke-width="1" fill="none" fill-rule="evenodd" opacity="0.5">
        <g id="Reef-Detail-full---no-live-feed-Copy-2" transform="translate(-290.000000, -864.000000)">
            <g id="iconsat" transform="translate(311.000000, 886.240894) rotate(-266.000000) translate(-311.000000, -886.240894) translate(292.000000, 866.740894)">
                <path d="M3.0840206,26.6235546 C3.0840206,26.6235546 4.33562511,27.9201216 6.83883414,30.5132554 L13.5590006,23.8375097 L9.72112391,20.0935305 C5.29638837,24.4468799 3.0840206,26.6235546 3.0840206,26.6235546 Z" id="Path-2-Copy" transform="translate(8.321511, 25.303393) rotate(-349.000000) translate(-8.321511, -25.303393) "></path>
                <path d="M22.7786724,12.7044003 C22.7786724,12.7044003 24.0302769,14.0009672 26.5334859,16.5941011 L33.2536524,9.91835539 L29.4157757,6.17437617 C24.9910402,10.5277256 22.7786724,12.7044003 22.7786724,12.7044003 Z" id="Path-2-Copy-2" transform="translate(28.016162, 11.384239) rotate(-349.000000) translate(-28.016162, -11.384239) "></path>
                <path d="M15.0881239,2.1715767 C14.8701393,2.1715767 14.6923496,2.34937839 14.6923496,2.56736293 L14.6923496,12.0659446 C14.6923496,12.2839291 14.8701393,12.4617188 15.0881239,12.4617188 L17.4627693,12.4617188 L17.4627693,15.2321385 L13.1092527,15.2321385 C10.9232333,15.2321385 9.15151031,17.0038614 9.15151031,19.1898808 C9.15151031,21.3759003 10.9232333,23.1476232 13.1092527,23.1476232 C13.2159257,23.1491707 13.3179603,23.1074284 13.3921679,23.0332207 C13.4679231,22.959013 13.5112089,22.858522 13.5112089,22.751849 C13.5112089,22.6451759 13.4679191,22.5446849 13.3921679,22.4704772 C13.3179603,22.3962696 13.2159257,22.3545273 13.1092527,22.3560747 C11.3483739,22.3560747 9.94305878,20.9507596 9.94305878,19.1898808 C9.94305878,17.4290021 11.3483739,16.023687 13.1092527,16.023687 L22.4843528,16.023687 C22.0592121,16.945089 21.8164838,18.0303811 21.8164838,19.1898808 C21.8164838,20.3540112 22.0684811,21.4346727 22.4967405,22.3560747 L15.4840168,22.3560747 C15.4592809,22.3529837 15.434545,22.3529837 15.4098092,22.3560747 C15.1918246,22.3761721 15.0310413,22.5709683 15.0511387,22.7889726 C15.0712362,23.0069769 15.2660323,23.1677404 15.4840366,23.147643 L17.4629078,23.147643 L17.4629078,25.9180626 L15.0882624,25.9180626 C14.8702778,25.9180626 14.6924881,26.0958523 14.6924881,26.3138369 L14.6924881,35.8124185 C14.6924881,36.0304031 14.8702778,36.2082042 15.0882624,36.2082042 L20.6291017,36.2082042 C20.8347183,36.2097387 21.006322,36.0535954 21.0248759,35.8495224 L21.0248759,35.8124185 L21.0248759,26.3138369 C21.0248759,26.0958523 20.8470862,25.9180626 20.6291017,25.9180626 L18.2544563,25.9180626 L18.2544563,23.147643 L22.9293415,23.147643 C22.9710838,23.2094827 23.0097312,23.2728699 23.053021,23.3331622 C23.8244641,24.4138237 24.9267745,25.1264944 26.1697431,25.1264944 C26.3877276,25.1264944 26.5655173,24.9487047 26.5655173,24.7307201 L26.5655173,19.5856551 L28.1486143,19.5856551 C28.2552873,19.5872026 28.3573219,19.5454602 28.4315295,19.4712526 C28.5072847,19.3970449 28.5505705,19.2965539 28.5505705,19.1898808 C28.5505705,19.0832078 28.5072807,18.9827168 28.4315295,18.9085091 C28.3573219,18.8343014 28.2552873,18.7925591 28.1486143,18.7941066 L26.5655173,18.7941066 L26.5655173,13.6490415 C26.5655173,13.431057 26.3877276,13.2532673 26.1697431,13.2532673 C24.9267745,13.2532673 23.8244641,13.9535898 23.053021,15.0342514 C23.0097312,15.0960911 22.9710838,15.1687513 22.9293415,15.2321385 L18.2544563,15.2321385 L18.2544563,12.4617188 L20.6291017,12.4617188 C20.8470862,12.4617188 21.0248759,12.2839291 21.0248759,12.0659446 L21.0248759,2.56736293 C21.0264234,2.55035651 21.0264234,2.53489756 21.0248759,2.51789115 C21.00014,2.31845655 20.8300798,2.17004121 20.6291017,2.1715767 L15.0881239,2.1715767 Z M15.4838981,2.96313716 L20.2331889,2.96313716 L20.2331889,11.6701704 L15.4838981,11.6701704 L15.4838981,2.96313716 Z M25.7737116,14.1562262 L25.7737116,24.2239312 C24.9898807,24.0940698 24.2601918,23.6658104 23.6958969,22.875845 C23.0357454,21.951356 22.6075177,20.6434409 22.6075177,19.1901975 C22.6075177,17.736954 23.0357454,16.4166908 23.6958969,15.4921622 C24.2601918,14.7037007 24.9898807,14.2878212 25.7737116,14.1564241 L25.7737116,14.1562262 Z M15.4835023,26.7095913 L20.2327931,26.7095913 L20.2327931,35.4166245 L15.4835023,35.4166245 L15.4835023,26.7095913 Z" id="Fill-1" stroke="#FFFFFF" stroke-width="0.5" fill="#FFFFFF" transform="translate(18.851040, 19.189890) rotate(-677.000000) translate(-18.851040, -19.189890) "></path>
            </g>
        </g>
    </g>
</svg>