<svg width="109" height="170" xmlns="http://www.w3.org/2000/svg" xmlns:xlink="http://www.w3.org/1999/xlink"><defs><path id="prefix__a" d="M.45.368h45.398v20.531H.45z"/><path id="prefix__c" d="M.47.442h6.261v16.426H.47z"/><linearGradient x1="50%" y1="24.681%" x2="50%" y2="74.209%" id="prefix__e"><stop stop-color="#6BC1E1" offset="0%"/><stop stop-color="#6BC1E1" stop-opacity="0" offset="37.09%"/><stop stop-color="#6BC1E1" stop-opacity="0" offset="63.126%"/><stop stop-color="#6BC1E1" offset="100%"/></linearGradient></defs><g fill="none" fill-rule="evenodd"><g transform="matrix(-1 0 0 1 107.572 146.601)"><mask id="prefix__b" fill="#fff"><use xlink:href="#prefix__a"/></mask><path d="M33.115 9.192l-4.405.095c-.556.013-1.09-.146-1.463-.433L22.704 5.35c-.311-.24-.738-.392-1.2-.427l-5.95.392c-.48-.037-.924-.2-1.237-.457L12.7 3.535c-.707-.58-1.968-.623-2.754-.096L6.168 5.974a1.545 1.545 0 00-.312.274L3.08 13.81a1.463 1.463 0 01-.2.192L.45 17.265H45.847c-3.73-.869-2.713-1.107-3.454-1.986-.213-.251-.54-.447-.928-.555l-2.8-.78c-.395-.11-.725-.31-.937-.566L34.813 9.85c-.348-.42-1-.674-1.698-.66" fill="#6BC1E1" mask="url(#prefix__b)"/></g><path d="M71.282 148.689l-.338-.606c-.14-.23-.28-.489-.32-.754-.065-.293-.003-.592.193-.78.172-.156.43-.14.665-.062.472.213.758.791.888 1.348.155.555.185 1.146.391 1.699.297.815.891 1.407 1.484 1.97.135.142.296.282.503.3.13-.48.08-.981-.047-1.478-.277.103-.538.027-.984-.158-.55-.21-.49-.568.14-.274.368.16.597.118.748.052a7.797 7.797 0 00-.242-.729c-.388-.07-.753-.17-.686-.38.044-.15.276-.133.535-.086-.089-.233-.178-.494-.267-.727-.438-.038-1.01-.157-.945-.427.067-.21.43-.11.797.02-.06-.175-.12-.35-.179-.495-.346-.25-1.119-.833-.926-1.08.12-.154.417.127.662.411-.091-.292-.18-.554-.247-.847-.392-.662-1.083-1.13-.755-1.266.226-.1.526.27.722.586.013-.238.054-.476.142-.747-.001-.03.023-.06.023-.06-.292-.193-.772-.555-.685-.885.088-.3.42.186.85.58.12-.154.294-.282.47-.35-.245-.284-.6-.71-.459-.984.14-.303.405.395.842.936l.026-.001c.051-.003.104.024.156.05.106.055.188.17.247.314.027.029.028.058.03.088.025-.001.027.028.052.027.111-.392.317-.905.526-.827.237.107-.164.838-.427 1.236.117.29.182.584.249.877.133-.422.364-.937.55-.827.263.134-.211.928-.474 1.327.078.559.082 1.151.084 1.714-.017 1.216-.085 2.464.206 3.664.065.293.237.64.518.626.04-.24-.099-.44-.161-.674-.064-.263-.052-.531-.038-.768.048-.595.12-1.22.193-1.817-.252-.432-.594-1.126-.368-1.226.176-.067.348.28.469.659.06-.33.148-.63.236-.93-.227-.434-.512-1.012-.284-1.082.15-.067.32.25.442.63.068-.182.16-.394.254-.576-.052-.531-.064-1.301.168-1.283.155.022.171.347.162.674.12-.184.264-.369.41-.524.22-.752.123-1.695.39-1.472.238.135.112.705.002 1.066.074-.063.147-.126.223-.16.124-.095.354-.107.387.04a.287.287 0 01-.067.21c-.334.52-.722.984-1.081 1.506-.335.52-.64 1.099-.66 1.752-.004.415.067.826.139 1.237.207 1.085.315 2.236.292 3.334.11-.392.113-.836.302-1.171.07-.152.19-.306.182-.483-.003-.059-.031-.117-.034-.176-.031-.117-.012-.237.008-.356-.274-.341-.69-1.506-.403-1.402.131.052.32.251.46.48.013-.267.078-.507.169-.748-.27-.254-.771-1.592-.457-1.46.21.08.46.481.63.8.042-.18.034-.358.025-.536-.033-.146-.092-.291-.099-.44-.04-.293-.002-.562.06-.861.127-.036.211.108.244.254.092.292.132.586.173.91.275-.162.65-.358.858-.31.287.075-.45.764-.851.961a1.889 1.889 0 01-.082.42c-.07.15-.14.302-.184.453-.112.331-.045.653.024 1.006.068-.181.188-.365.287-.43.175-.097-.04.773-.188.87.034.175.066.322.05.5-.016.712-.452 1.267-.838 1.76 1.032-.94 1.752-.916 2.135-2.535-1.096-.36-.633-1.923-.365-1.167.119.32.31.548.495.657.044-.15.113-.302.183-.453.12-.184-.551-.772-.377-.87.175-.098.325-.194.423-.288-.458-.422-.828-1.677-.97-1.967-.171-.346-.112-.705.25-.634.388.04.341.664.372 1.285.02.414.442.63.702.706.061-.33-.11-.676-.234-1.115-.028-.057-.006-.118-.009-.177-.31-.577-.698-1.15-.86-1.32-.27-.253-.196-.85.047-1.128.243-.279.132.082.345.753.15.437.38.929.576 1.275.12-.154.213-.366.179-.542-.043-.353.14-.807.473-.823.103-.005.207.019.262.105.03.087.036.206.04.294-.07 2.226-.872 5.761-1.057 6.185-.163.335-.46.557-.65.863-.191.306-.247.723-.988 1.323-.495.38-1.06 1.416-1.019 2.273.022.443.202.968-.064 1.307-.169.215-.476.231-.733.244-.36-.012-.634-.354-.627-.74.013-.267.025-.534.012-.8-.013-.266-.026-.532-.116-.793-.15-.437-.547-.684-.94-.842-.394-.158-.81-.286-1.133-.566a1.514 1.514 0 01-.327-.398c-1.03.466-1.662-.362-2.104-.488-.443-.126-.415-.601-.038-.768.377-.167.37.751 1.064.746.334.013.56-.087.658-.18-.14-.26-.28-.49-.422-.75-.891-.37-1.92-.407-1.576-.72.22-.219.767-.068 1.211.087-.14-.23-.252-.432-.392-.662-.794-.494-1.442-.61-1.356-.94.065-.27.429-.17.768-.069zm3.441-4.704l-.001-.03-.026.001.027.029z" fill="#6BC1E1"/><g transform="matrix(-1 0 0 1 89.706 134.547)"><mask id="prefix__d" fill="#fff"><use xlink:href="#prefix__c"/></mask><path d="M3.033 18.869s-.186-3.182 0-3.182c.187 0 1.236-.768 1.469-.96.233-.193.769-.522.583-.714-.187-.192-.676.467-.863.33-.186-.138.187-.961 1.049-1.098 0 0 1.072-.988.792-1.317-.28-.329-.535.192-.605.302-.07.11-.117.466-.187.219-.07-.247.14-.576.21-.823.07-.247.326-.594.093-.64-.234-.045-.234.009-.304.256-.07.247-.256.63-.326.823-.07.193-.745 1.234-.792 1.125-.047-.11.233-.714.163-.878-.07-.165-.378-.29-.606 1.427l-.093.63-.536.551s-.373.52.023-1.703c0 0 2.261-3.32 2.54-3.292 0 0 1.329-1.042 1.05-1.536 0 0-.094-.384-.583.467 0 0-.49.493-.234-.247 0 0 .49-1.07.28-1.207 0 0-.396-.302-.676 1.454 0 0-.186.796-.396.878 0 0-.373.823 0-.713 0 0 .233-.714 0-.741 0 0-.14-.605-.676 1.975 0 0 .088-.41-.165.678-.273.252-1.093 1.149-1.093 1.242 0 .11-.35-.631-.024-1.646 0 0 .466-1.427.676-1.976 0 0 .56-.41 1.468-1.59 0 0 1.119-1.537 1.143-1.784 0 0 .373-.713.046-.576 0 0-.56.85-.699.933 0 0-.42.548-.186-.192 0 0 .372-1.043.28-1.152 0 0-.257-.357-.466.493 0 0-.323.965-.304 1.729 0 0-.7 1.262-.862 1.206 0 0-.326.017.186-3.503 0 0 .765-.804.418-1.05 0 0-.138-.247-.395.191 0 0-.116.439-.21-.603 0 0-.349-.659-.325 1.015 0 0 .023 2.222-.164 2.414 0 0-.07.548-.28-.549 0 0 .164-1.262-.093-1.234 0 0-.232.055-.232.356 0 0 0 .357-.07.302 0 0-.793-1.235-.863-1.153 0 0-.419.192 0 .824 0 0 .7.74 1.189 1.783 0 0 .303.521.256 1.015 0 0-.77 2.387-.862 2.551 0 0 .116.823-.49-.274 0 0-.326-.165-.28-.714 0 0-.256-.274.56-1.426 0 0 .373-.274-.093-.274 0 0-.396.576-.28-.329 0 0 .064-.659-.224-.192 0 0-.242.988-.265 1.344 0 0-.07 1.015-.21.165 0 0-.582-.933-.535-1.647 0 0-.164-.467-.35-.52 0 0-.21.191-.116.823 0 0 .676 1.893.862 2.084 0 0 .366.814 1.003 1.679 0 0 .373.324.256 2.217 0 0 .116 1.043-.326.439 0 0-.746-.933-.816-1.729 0 0 .14-.896-.14-.928 0 0-.163-.297-.163.288 0 0-.257.86.21 1.737 0 0 .978 1.81 1.002 2.03 0 0-.047 2.525.07 2.69 0 0 .044 1.234.02 1.425-.023.194.561.002.561.002z" fill="#6BC1E1" mask="url(#prefix__d)"/></g><path d="M64.387 154.405s-.805-.255-1.598-.858c0 0-.934-.512-1.382-.512 0 0-.896-.286-2.394-.09 0 0-1.06.15-1.279.12 0 0-.767-.302-.933-.543 0 0 .025.211.14.331 0 0 .166.212.269.453 0 0 .077.798.269.933 0 0-.064.136-.256.166 0 0-.243.242-.614-.452 0 0-.37-.874-.806-.843 0 0-.448.016-.524.211 0 0 .103-.045.192.015 0 0 .128-.02.115.148 0 0-.077.333.461 1.236 0 0 .116.332.218.437 0 0 .14.06-.064.693 0 0-.18.255-.244.993 0 0-.09.467-.282.603l-.115.135s.5.015.768-.255c0 0 .398-.076.986-1.415 0 0 .37.195.396.135 0 0 .064.197.103.212 0 0-.064.165-.18.21 0 0-.037.076.128.135 0 0 .524.452 1.626-.014 0 0-.001.12.127.15 0 0 .28.076.32.105.039.03.435.15.589.03 0 0 .038-.166.486-.15 0 0 1.048-.075 1.318-.226 0 0 .575-.135 1.048-.633 0 0 .883-.873.883-1.038 0-.166-.32.045-.345.082-.026.038.321-.204.448-.355l.126-.149zM65.086 141.04s-.327-.105-.65-.349c0 0-.379-.209-.561-.209 0 0-.365-.116-.973-.036 0 0-.431.06-.52.049 0 0-.312-.123-.38-.221 0 0 .01.086.057.134 0 0 .068.087.11.184 0 0 .03.324.109.38 0 0-.026.055-.104.067 0 0-.099.099-.25-.183 0 0-.15-.356-.327-.343 0 0-.183.006-.213.085 0 0 .041-.018.078.006 0 0 .051-.007.047.061 0 0-.031.136.187.503 0 0 .047.135.09.178 0 0 .056.024-.028.281 0 0-.072.105-.099.404 0 0-.036.19-.114.245l-.047.055s.203.007.312-.104c0 0 .162-.03.4-.575 0 0 .151.08.162.055 0 0 .027.08.042.086 0 0-.027.067-.073.085 0 0-.015.03.052.055 0 0 .213.183.66-.005 0 0 0 .05.052.06 0 0 .114.031.13.043.016.012.177.062.24.012 0 0 .015-.068.197-.061 0 0 .426-.03.536-.092 0 0 .234-.055.426-.256 0 0 .36-.356.36-.423 0-.068-.13.018-.14.034a.76.76 0 00.182-.145l.05-.06zM62.25 149.092s-.52-.165-1.033-.555c0 0-.603-.331-.892-.331 0 0-.58-.186-1.546-.06 0 0-.686.098-.827.079 0 0-.495-.195-.603-.35 0 0 .017.136.09.214 0 0 .108.137.174.292 0 0 .05.515.174.603 0 0-.041.088-.165.108 0 0-.157.156-.398-.292 0 0-.239-.565-.521-.545 0 0-.289.01-.339.137 0 0 .066-.03.124.01 0 0 .082-.012.074.096 0 0-.05.216.298.8 0 0 .074.213.14.282 0 0 .09.038-.04.448 0 0-.116.165-.157.642 0 0-.059.301-.183.388l-.074.087s.323.01.496-.165c0 0 .256-.048.637-.914 0 0 .24.127.256.087 0 0 .041.127.066.137 0 0-.041.107-.116.136 0 0-.025.05.083.089 0 0 .338.291 1.05-.01 0 0 0 .078.083.097 0 0 .181.048.207.069.025.019.281.097.38.019 0 0 .025-.107.314-.097 0 0 .678-.049.852-.146 0 0 .371-.088.678-.408 0 0 .57-.565.57-.672 0-.107-.207.03-.224.053-.016.024.208-.132.29-.228l.082-.1zM67.637 146.986s-.226-.072-.448-.24c0 0-.26-.144-.387-.144 0 0-.25-.08-.67-.025 0 0-.298.042-.358.034 0 0-.215-.084-.261-.152 0 0 .007.06.039.093 0 0 .046.059.075.127 0 0 .021.222.075.26 0 0-.018.038-.071.047 0 0-.068.068-.172-.126 0 0-.104-.245-.226-.237 0 0-.125.005-.147.06 0 0 .03-.014.054.003 0 0 .036-.005.032.042 0 0-.021.094.128.347 0 0 .032.093.062.122 0 0 .04.017-.018.195 0 0-.05.072-.068.278 0 0-.025.131-.08.168l-.03.038s.138.004.214-.072c0 0 .112-.021.277-.396 0 0 .103.054.11.037 0 0 .018.055.03.059 0 0-.018.046-.051.059 0 0-.01.02.035.037 0 0 .147.126.456-.005 0 0 0 .034.035.042 0 0 .079.022.09.03.01.007.122.041.165.007 0 0 .01-.046.136-.041 0 0 .294-.022.369-.064 0 0 .161-.037.294-.177 0 0 .246-.246.246-.29 0-.047-.089.012-.096.023a.558.558 0 00.126-.1l.035-.039zM98.142 150.562s-1.355-1.228.447-2.443c0 0 .325-.232 1.3-.546.11-.041.231-.068.353-.082 1.26-.205 1.694.232 1.897.04.109-.094-.176-.531-1.355-.613-.19-.014-.365.068-.528-.028-.082-.054-.014-.177.15-.395.094-.123.541-.464.677-.532.365-.205.284-.123.623-.356.447-.314-.15-.9-.759-.218-.433.478-1.11.792-1.45 1.024-.162.109-.352.082-.406-.11-.04-.163.109-.314.325-.6.339-.478.556-.71.569-1.01.014-.164-.515-.164-.948.587-.068.11-.312.492-.556.928-.23.41-.556.902-.8 1.188-.216.26-1.015.355-.677-.45.204-.505.366-.656.65-.847a1.54 1.54 0 00.461-.478c.163-.273.325-.641.271-.941-.108-.532-.826.505-.826.505s-.38.778-.773.232c-.392-.546.854-1.884.854-1.884s2.126-1.898 1.937-3.072c-.15-.97-1.125.914-1.45 1.584a.734.734 0 01-.488.41c-.23.067-.474.013-.447-.52.04-.983-.122-1.392-.122-1.392s-.474-.478-.569.587c-.095 1.065.528 1.857-.406 2.744-.935.887-1.03-1.133-1.03-1.133s.081-.792.799-1.433c.718-.642.068-.805-.257-.546-.285.218-.718 1.065-.84 1.297a.975.975 0 01-.136.19c-.135.15-.406.315-.555-.286-.23-.86-.949-1.843-1.206-1.775-.257.068-.054.423.203.97.325.736 1.396 2.266 1.396 2.266s1.531 2.224 1.422 2.989c-.054.396-.365.587-.636.682a.46.46 0 01-.596-.314 16.48 16.48 0 01-.42-1.843c-.122-.75-.312-1.01-.46-1.078-.122-.054-.258.055-.218.178.109.464.434 1.87.285 2.375-.176.6-1.057-.464-1.057-.464s-1.152-1.242-1.829-1.42c-.488-.136-.23.26-.054.505.082.11.176.191.271.274.393.272 1.504 1.105 1.68 1.72.19.628-.637.177-.88.04a.347.347 0 00-.204-.054c-.136 0-.312.055-.04.478.392.628 2.343.546 2.343.546s1.843-.206 2.181.6c.339.791-.894 1.924-.894 1.924h2.778z" fill="#6BC1E1"/><path d="M42.644 152.11c1.025 0 1.876.748 2.036 1.728h2.267c.413 0 .774.268.899.654l.023.084 1.748 7.768a.945.945 0 01-.837 1.149l-.085.004H36.513a.945.945 0 01-.937-1.069l.015-.084 1.748-7.768a.945.945 0 01.834-.733l.088-.004h2.347a2.064 2.064 0 012.036-1.729zm4.303 2.398h-8.686a.275.275 0 00-.252.164l-.017.051-1.747 7.768a.275.275 0 00.217.331l.051.005h12.182c.158 0 .28-.133.275-.285l-.007-.05-1.747-7.769a.276.276 0 00-.215-.21l-.054-.005zm-4.303-1.728c-.636 0-1.172.426-1.34 1.008l-.013.05h2.704l-.012-.05a1.394 1.394 0 00-1.24-1.004z" fill="#FFF" fill-rule="nonzero"/><path d="M41.32 19.903c.026 84.598.04 128.547.04 131.847l-.04-131.847z" stroke="url(#prefix__e)" stroke-width="2" stroke-linecap="round" transform="translate(1.277 .36)"/><path d="M42.56 133.89a2.574 2.574 0 00-1.83.743 2.569 2.569 0 00-.77 1.813h0l.042 5.944c-.005.713.28 1.36.743 1.83.464.471 1.107.765 1.82.77.712.005 1.36-.28 1.83-.743.47-.464.764-1.107.77-1.812h0l-.042-5.945a2.574 2.574 0 00-.743-1.83 2.573 2.573 0 00-1.82-.77zM42.507 25.942a2.574 2.574 0 00-1.818.775 2.569 2.569 0 00-.737 1.826h0l.145 5.943c.007.712.303 1.355.775 1.817.472.462 1.12.745 1.833.737a2.574 2.574 0 001.817-.774c.462-.472.745-1.12.737-1.826h0l-.145-5.943a2.574 2.574 0 00-.775-1.817 2.573 2.573 0 00-1.832-.738z" stroke="#FFF" fill="#FFF"/><g><path fill="#FFF" d="M47.58 2.83h-3.134v.577h-3.848V2.83H37.27l-.81 1.25h11.93z"/><g stroke="#FFF"><path d="M44.109 18.51h-3.271a7.119 7.119 0 01-7.12-7.119h17.51a7.119 7.119 0 01-7.12 7.12z"/><path stroke-linejoin="round" d="M31.073 11.392H53.97v-1.54H31.073z"/><path d="M46.659 1.772h-8.466l-6.35 8.08h21.165z"/><path stroke-linejoin="round" d="M50.699 9.756h-5.195v-6.35zM34.537 9.756h5.002v-6.35z"/><path d="M45.69.933h-1.241a.245.245 0 00-.245.246v.332h1.731v-.332a.245.245 0 00-.245-.246z" stroke-width=".8"/></g></g><g fill="#6AC1E3"><path d="M80.944 16.235a10.521 10.521 0 007.712 3.357c2.941 0 5.703-1.212 7.712-3.357.408-.468 1.096-1.026.636-1.67-.368-.38-.957-.381-1.257 0-1.737 2.215-4.316 3.484-7.082 3.484-2.765 0-5.348-1.27-7.082-3.483-.3-.382-.957-.382-1.257 0-1.736 2.214-4.316 3.483-7.082 3.483-2.765 0-5.348-1.27-7.081-3.483a.806.806 0 00-1.11-.145.757.757 0 00-.148 1.08c2.024 2.599 5.064 4.09 8.327 4.09 2.941 0 5.703-1.211 7.712-3.356z"/></g><g fill="#6AC1E3"><path d="M11.616 19.592c2.941 0 5.703-1.212 7.712-3.357a10.521 10.521 0 007.712 3.357c2.941 0 5.703-1.212 7.712-3.357a10.521 10.521 0 007.712 3.357c2.941 0 5.703-1.212 7.712-3.357a10.521 10.521 0 007.712 3.357c3.263 0 6.303-1.492 8.342-4.09a.758.758 0 00-.148-1.08.806.806 0 00-1.11.144c-1.736 2.214-4.316 3.483-7.081 3.483-2.765 0-5.348-1.27-7.082-3.483-.3-.382-.958-.382-1.257 0-1.737 2.214-4.317 3.483-7.082 3.483-2.765 0-5.348-1.27-7.082-3.483-.3-.382-.957-.382-1.257 0-1.737 2.214-4.316 3.483-7.082 3.483-2.765 0-5.348-1.27-7.082-3.483-.3-.382-.957-.382-1.257 0-1.736 2.214-4.316 3.483-7.082 3.483-2.765 0-5.348-1.27-7.081-3.483a.806.806 0 00-1.11-.145.757.757 0 00-.148 1.08c2.024 2.599 5.064 4.09 8.327 4.09z"/></g><path stroke="#6BC1E1" stroke-width="2" stroke-linecap="round" d="M103.777 162.857h-102"/></g></svg>