<?xml version="1.0" encoding="UTF-8"?>
<svg width="109px" height="170px" viewBox="0 0 109 170" version="1.1" xmlns="http://www.w3.org/2000/svg" xmlns:xlink="http://www.w3.org/1999/xlink">
    <title>4CEF32D1-AFAB-4A91-836F-63A38BC2D4D1</title>
    <defs>
        <polygon id="path-1" points="0.450370452 0.368132164 45.8477949 0.368132164 45.8477949 20.8992475 0.450370452 20.8992475"></polygon>
        <polygon id="path-3" points="0.470183047 0.441616795 6.73082873 0.441616795 6.73082873 16.8679439 0.470183047 16.8679439"></polygon>
        <linearGradient x1="50%" y1="24.6806377%" x2="50.0004251%" y2="74.2093738%" id="linearGradient-5">
            <stop stop-color="#6BC1E1" offset="0%"></stop>
            <stop stop-color="#6BC1E1" stop-opacity="0" offset="37.0902535%"></stop>
            <stop stop-color="#6BC1E1" stop-opacity="0" offset="63.1255463%"></stop>
            <stop stop-color="#6BC1E1" offset="100%"></stop>
        </linearGradient>
    </defs>
    <g id="Page-1" stroke="none" stroke-width="1" fill="none" fill-rule="evenodd">
        <g id="Reef-Detail-full---no-live-feed-Copy-2" transform="translate(-562.000000, -933.000000)">
            <g id="sensors" transform="translate(563.277441, 933.360533)">
                <g id="Group-4-Copy-8" transform="translate(52.864246, 134.177994)">
                    <g id="Group-23" transform="translate(26.930601, 17.000000) scale(-1, 1) translate(-26.930601, -17.000000) translate(0.430601, 0.000000)">
                        <g id="Group-3" transform="translate(0.000000, 12.062858)">
                            <mask id="mask-2" fill="white">
                                <use xlink:href="#path-1"></use>
                            </mask>
                            <g id="Clip-2"></g>
                            <path d="M33.1148618,9.19180993 L28.7097586,9.28749814 C28.1544121,9.29955218 27.6195144,9.14091511 27.2471309,8.85385046 L22.7040521,5.35103677 C22.3925845,5.11099775 21.9655273,4.95920618 21.5038148,4.92438341 L15.5547192,5.31576755 C15.0734189,5.27945663 14.6304332,5.11605747 14.3168131,4.85905351 L12.7009269,3.53459765 C11.9944745,2.95570627 10.7333213,2.91180577 9.94744147,3.43890944 L6.16807171,5.97397747 C6.04710088,6.0552306 5.9420586,6.14734725 5.85574312,6.24794637 L3.08030209,13.8105893 C3.02196918,13.8787467 2.954811,13.9431837 2.87968854,14.0030074 L0.450370452,17.2647404 L8.03687728,17.2647404 L45.8477949,17.2647404 C42.1179327,16.3959569 43.134346,16.1577036 42.3928077,15.2792471 C42.1803554,15.0276005 41.8538203,14.8320573 41.4648625,14.7237198 L38.6646676,13.9436301 C38.269898,13.8335068 37.9401342,13.6342432 37.7278971,13.3776857 L34.8131889,9.85135918 C34.4649135,9.43021198 33.8122737,9.17663077 33.1148618,9.19180993" id="Fill-1" fill="#6BC1E1" mask="url(#mask-2)"></path>
                        </g>
                        <path d="M36.2905398,14.1502162 C36.4031158,13.9485264 36.5159071,13.7466213 36.6282679,13.5449315 C36.7679656,13.3148286 36.90917,13.0556669 36.9476998,12.7909087 C37.013136,12.4977374 36.9511438,12.1985391 36.7548353,12.0110559 C36.5828501,11.8543534 36.3254104,11.8709277 36.0901415,11.9484179 C35.6178817,12.161516 35.3324594,12.7396791 35.2024481,13.2963171 C35.0468219,13.8514483 35.0175478,14.4425265 34.8109073,14.9955052 C34.5140767,15.8104439 33.9202003,16.4028135 33.327185,16.9656938 C33.1917924,17.1071134 33.0310002,17.2472416 32.8243596,17.2663989 C32.694133,16.7859596 32.7442864,16.2844257 32.8714995,15.7874121 C33.1487423,15.8903019 33.4094107,15.8141032 33.8554099,15.6294182 C34.4049447,15.4193336 34.3457508,15.0611566 33.7148513,15.3556194 C33.3474185,15.5149049 33.1181767,15.473792 32.9675013,15.4074948 C33.0301392,15.1733022 33.1201139,14.9115575 33.2087972,14.6788716 C33.5975397,14.6091304 33.9621742,14.5092541 33.8952313,14.2980933 C33.8513202,14.1478484 33.61928,14.1657142 33.3601183,14.2124236 C33.4488016,13.9797377 33.5385611,13.717993 33.6270291,13.4850919 C34.0654945,13.4478535 34.6365543,13.3283894 34.5726249,13.0584652 C34.5056819,12.8479501 34.1416932,12.9478264 33.775552,13.0778377 C33.8353916,12.9030543 33.8956618,12.7284861 33.9539947,12.5831919 C34.3001176,12.3337165 35.0732977,11.7501721 34.8802179,11.5032797 C34.7594624,11.3491603 34.4630623,11.6307081 34.2181072,11.9146236 C34.3095887,11.6229591 34.3991329,11.3607838 34.4652148,11.0678278 C34.8574014,10.405717 35.5481405,9.93668598 35.2205291,9.80172386 C34.9943008,9.70141709 34.6938109,10.0718633 34.4985787,10.3878512 C34.4848026,10.1497841 34.444766,9.91128641 34.3558675,9.64007067 C34.3573743,9.61058134 34.3332662,9.57980051 34.3332662,9.57980051 C34.625146,9.38715124 35.1053701,9.02574551 35.0186241,8.69576636 C34.9305866,8.3950613 34.5986702,8.88174287 34.1685995,9.27543618 C34.0478439,9.12131677 33.874352,8.99388842 33.6978465,8.92608449 C33.9430169,8.64195372 34.2975346,8.21532706 34.156976,7.94152831 C34.0177089,7.63845549 33.7523049,8.33629789 33.3149157,8.87743785 L33.2895161,8.87614635 C33.2382865,8.87356334 33.1853349,8.90046967 33.133029,8.92737599 C33.0273409,8.98118864 32.9451152,9.09570195 32.8863518,9.24078084 C32.8592302,9.26897867 32.8579387,9.298468 32.856432,9.32860308 C32.8308171,9.32731157 32.8293104,9.35658565 32.8039108,9.3555094 C32.693272,8.96396859 32.4872772,8.4503807 32.2782689,8.52894716 C32.0417085,8.63571145 32.4427203,9.36691768 32.7055413,9.76470076 C32.588445,10.055289 32.5227936,10.3482451 32.4567116,10.6412011 C32.3234715,10.2195252 32.0920771,9.7048611 31.9065311,9.81399314 C31.6430644,9.94895526 32.117692,10.7427994 32.3805129,11.1412282 C32.3019465,11.7004493 32.2985024,12.2928189 32.2963499,12.8556991 C32.3137852,14.0712192 32.3809434,15.3194573 32.0905704,16.5194793 C32.0251342,16.8122201 31.8535795,17.1592041 31.5718165,17.1449975 C31.5324256,16.9058541 31.6708317,16.7054558 31.7334697,16.4714785 C31.7973991,16.2080117 31.7851298,15.9404553 31.7711385,15.7032491 C31.7231376,15.1080813 31.6514592,14.4825631 31.5780587,13.8863189 C31.8305477,13.4547415 32.1725809,12.7605584 31.9461372,12.6606821 C31.7700623,12.5930934 31.5985075,12.9396469 31.4775367,13.3191337 C31.4164056,12.9900155 31.3287986,12.6895257 31.2409763,12.3888206 C31.4678504,11.9559517 31.7530575,11.3775734 31.5251071,11.3071864 C31.3744317,11.2404588 31.2050295,11.5579534 31.0836282,11.9367944 C31.0151785,11.7555534 30.9232665,11.5433163 30.8294172,11.3609991 C30.8810774,10.8299759 30.8933466,10.0604551 30.6613065,10.0783209 C30.5061108,10.1002764 30.4901823,10.4250896 30.4996533,10.7520552 C30.3801892,10.5682312 30.2353256,10.3835462 30.0889552,10.2281353 C29.8691844,9.47648023 29.9666929,8.53346742 29.6989211,8.75668228 C29.460854,8.89185964 29.5869908,9.46119744 29.6976296,9.82217267 C29.6235834,9.7593195 29.5499677,9.69603582 29.4741995,9.66267198 C29.3506457,9.56753123 29.1198971,9.55590769 29.087179,9.70249334 C29.082874,9.79139183 29.1054753,9.85144675 29.1541219,9.91279316 C29.4879756,10.4328386 29.8760724,10.8969188 30.2357561,11.4189015 C30.569825,11.9389469 30.8748351,12.51711 30.8944229,13.1701802 C30.8995889,13.5853986 30.828341,13.9967425 30.7564473,14.4072254 C30.549161,15.4929493 30.4408899,16.6430332 30.464137,17.7410264 C30.3550049,17.3499161 30.3513457,16.9054236 30.1621404,16.5702785 C30.0923992,16.4185268 29.9714284,16.2644074 29.9802537,16.0872562 C29.9830519,16.0284928 30.011465,15.9701598 30.0144785,15.9113964 C30.0456898,15.7943001 30.0258868,15.6746208 30.006299,15.5555872 C30.2798825,15.2139845 30.6968229,14.0499094 30.4092481,14.1536602 C30.2781605,14.2059661 30.0889552,14.4044271 29.9492576,14.6338842 C29.936773,14.366543 29.8713369,14.1267538 29.7805011,13.8850274 C30.0495643,13.6316775 30.551744,12.2938951 30.2372629,12.4262742 C30.027824,12.5048407 29.7772724,12.9069288 29.6072244,13.2246386 C29.56482,13.0449044 29.5736453,12.8677532 29.5822553,12.6899562 C29.6151887,12.5433705 29.6739521,12.3980764 29.6810553,12.2504145 C29.721092,11.9563822 29.6832079,11.6875342 29.6207852,11.3881207 C29.4940026,11.3523891 29.4098396,11.4961765 29.3769063,11.6427621 C29.2854248,11.9344266 29.2453882,12.2286742 29.2038448,12.5524111 C28.9294003,12.3905426 28.553788,12.1942341 28.345856,12.2428807 C28.0597879,12.3175727 28.7963754,13.0061593 29.1973873,13.2037593 C29.2156836,13.3527127 29.2339799,13.5016661 29.279613,13.622637 C29.3493542,13.7741734 29.4188801,13.925925 29.4630065,14.07617 C29.5751521,14.4074406 29.5082091,14.729886 29.4391137,15.0824664 C29.3708793,14.9012254 29.2514152,14.7178319 29.1521847,14.6532568 C28.9776164,14.5553178 29.1915755,15.4253606 29.3407442,15.5217929 C29.3067346,15.6976526 29.2738012,15.8442383 29.2905908,16.022681 C29.3067346,16.7347299 29.7419713,17.2894307 30.1285613,17.7832155 C29.0964348,16.843001 28.3759911,16.8660328 27.9930603,15.2477789 C29.0891162,14.8874494 28.626758,13.3240844 28.3581253,14.0809055 C28.2397374,14.4005526 28.0490254,14.628503 27.8634794,14.737635 C27.8197835,14.5873901 27.7500424,14.4358537 27.6803012,14.284102 C27.5608371,14.1007085 28.2317732,13.5119982 28.0569897,13.4142744 C27.8822062,13.3163354 27.7323918,13.2205489 27.634668,13.1262691 C28.0918603,12.7048085 28.4620913,11.4490366 28.6045872,11.1597398 C28.7757114,10.8131864 28.7165175,10.4543636 28.3533897,10.5253963 C27.9663692,10.5650024 28.0128633,11.1898749 27.9822977,11.8104423 C27.9620642,12.2243692 27.5406035,12.4400503 27.2801503,12.5160337 C27.2188039,12.1873461 27.3905739,11.8401469 27.514343,11.4016815 C27.542756,11.3442095 27.5201547,11.2835089 27.5231682,11.2245302 C27.8337748,10.6476587 28.2216564,10.0742311 28.3839553,9.90482889 C28.6532338,9.6516942 28.5796181,9.05523484 28.3366002,8.77648533 C28.093367,8.49752057 28.2042211,8.8589263 27.9915535,9.52943187 C27.8417391,9.96639056 27.6118515,10.4582381 27.4153277,10.8043611 C27.2945721,10.6506722 27.2020144,10.4384351 27.2362392,10.2623601 C27.2792893,9.90934915 27.0963263,9.45560092 26.7631184,9.43902663 C26.6604439,9.43407586 26.5564779,9.45839918 26.5011585,9.54471466 C26.4712386,9.63189115 26.4654269,9.75006372 26.4611219,9.83853171 C26.5312936,12.0640075 27.3335325,15.5999288 27.5180022,16.0239725 C27.6811622,16.3580414 27.9786385,16.5806105 28.16892,16.8862663 C28.3594168,17.1921374 28.4155972,17.6097235 29.1564897,18.2096269 C29.651566,18.5897595 30.2170293,19.6255453 30.1748402,20.4824578 C30.1530999,20.925874 29.9733656,21.4504397 30.2392001,21.7892441 C30.4081718,22.0049252 30.7157649,22.0204233 30.9721283,22.033123 C31.3322426,22.0214995 31.6058261,21.6794663 31.5991533,21.2941678 C31.5866688,21.0268266 31.5741842,20.7594853 31.5873145,20.4940814 C31.6004448,20.2278164 31.6133598,19.9617667 31.7035498,19.700022 C31.8535795,19.2632785 32.2507168,19.0161709 32.6437644,18.8581769 C33.0368119,18.700183 33.4539676,18.5729699 33.7761977,18.2927136 C33.9100836,18.1807833 34.0198614,18.0380722 34.1035938,17.8942848 C35.1335679,18.3605176 35.7651131,17.5326638 36.2076683,17.406527 C36.6502235,17.2803901 36.6224562,16.8051169 36.2455524,16.6382977 C35.8684334,16.4712632 35.8744604,17.3899527 35.1815688,17.3847867 C34.8468541,17.3977017 34.6210562,17.2978254 34.522902,17.2039762 C34.6638911,16.9439535 34.8035887,16.7144964 34.9447931,16.4546889 C35.836361,16.0842427 36.8652588,16.0472196 36.5210732,15.7335995 C36.3006566,15.5155506 35.7539201,15.6660108 35.3100734,15.8214217 C35.449771,15.5911036 35.5625623,15.389629 35.7022599,15.1593109 C36.4967498,14.6655261 37.1446541,14.549506 37.0579081,14.2195268 C36.9935482,13.9489569 36.6295594,14.0488331 36.2905398,14.1506467 L36.2905398,14.1502162 Z M32.8491134,9.4461299 L32.8506202,9.41664057 L32.8760198,9.41793207 L32.8491134,9.4461299 Z" id="Fill-4" fill="#6BC1E1"></path>
                        <g id="Group-8" transform="translate(17.865798, 0.008825)">
                            <mask id="mask-4" fill="white">
                                <use xlink:href="#path-3"></use>
                            </mask>
                            <g id="Clip-7"></g>
                            <path d="M3.03316221,18.8688396 C3.03316221,18.8688396 2.84697045,15.6867903 3.03316221,15.6867903 C3.21956921,15.6867903 4.26870056,14.9189914 4.50181694,14.7265574 C4.73514858,14.5339081 5.27090728,14.2050052 5.08450027,14.0130017 C4.89830852,13.8212135 4.40925919,14.479665 4.22220643,14.3421199 C4.03601468,14.2050052 4.40925919,13.381887 5.27090728,13.2447724 C5.27090728,13.2447724 6.34328569,12.2569875 6.06345993,11.9280846 C5.78384942,11.5991817 5.52770123,12.1198728 5.45774479,12.2296506 C5.38778835,12.3392132 5.34086372,12.6963139 5.27090728,12.448991 C5.20095084,12.2020986 5.41060491,11.8725499 5.48056135,11.6258727 C5.55030254,11.3789803 5.80666598,11.0319964 5.57376485,10.9859328 C5.34021797,10.9405149 5.34021797,10.9945428 5.27026153,11.2418657 C5.20052034,11.4887581 5.01411333,11.8725499 4.94415689,12.0651992 C4.8744157,12.2576332 4.19895937,13.299446 4.15181949,13.1898835 C4.10511012,13.0801057 4.38536638,12.4763278 4.31540994,12.3118764 C4.2454535,12.1472097 3.93656891,12.0210728 3.70926429,13.7387725 L3.61606079,14.3694567 L3.07987159,14.9202829 C3.07987159,14.9202829 2.70705757,15.4392521 3.10311865,13.2172203 C3.10311865,13.2172203 5.36411078,9.89784106 5.64350604,9.92539313 C5.64350604,9.92539313 6.97160214,8.88293455 6.69220688,8.38871921 C6.69220688,8.38871921 6.59900338,8.00492742 6.10952355,8.85559773 C6.10952355,8.85559773 5.62025898,9.34895207 5.87640717,8.60892056 C5.87640717,8.60892056 6.36610225,7.53890991 6.15601768,7.40201054 C6.15601768,7.40201054 5.7595261,7.10044447 5.4799156,8.85624348 C5.4799156,8.85624348 5.29350859,9.65202489 5.08406977,9.73425061 C5.08406977,9.73425061 4.71082526,10.5573688 5.08406977,9.02069493 C5.08406977,9.02069493 5.3169709,8.30735449 5.08406977,8.28001767 C5.08406977,8.28001767 4.94415689,7.67473303 4.40796769,10.255157 C4.40796769,10.255157 4.49600518,9.84445891 4.24265524,10.9325506 C3.970148,11.1852548 3.14982803,12.0819887 3.14982803,12.1747617 C3.14982803,12.2845395 2.79983058,11.543647 3.12636571,10.5287405 C3.12636571,10.5287405 3.59216798,9.1022749 3.80182204,8.55338591 C3.80182204,8.55338591 4.36147356,8.1422573 5.27047678,6.9626841 C5.27047678,6.9626841 6.38891881,5.42601018 6.41281163,5.17911776 C6.41281163,5.17911776 6.78605614,4.46577732 6.45930575,4.60289194 C6.45930575,4.60289194 5.89986949,5.45356225 5.75995661,5.53578797 C5.75995661,5.53578797 5.34086372,6.08446171 5.57376485,5.34378445 C5.57376485,5.34378445 5.94636361,4.30132588 5.85337536,4.19154808 C5.85337536,4.19154808 5.59701191,3.83509311 5.3875731,4.68511767 C5.3875731,4.68511767 5.06534297,5.65008603 5.08406977,6.41379511 C5.08406977,6.41379511 4.38472063,7.67623978 4.22177593,7.62048988 C4.22177593,7.62048988 3.8956713,7.63663367 4.40818294,4.11685613 C4.40818294,4.11685613 5.17318351,3.31289519 4.82555382,3.06621803 C4.82555382,3.06621803 4.6880087,2.81954086 4.43143,3.25822155 C4.43143,3.25822155 4.31497944,3.69690224 4.22177593,2.65508941 C4.22177593,2.65508941 3.87242424,1.99642262 3.8956713,3.67021116 C3.8956713,3.67021116 3.91891836,5.89202769 3.73208085,6.08403121 C3.73208085,6.08403121 3.66212441,6.63227445 3.4526856,5.53514222 C3.4526856,5.53514222 3.61606079,4.2733433 3.35948209,4.30068012 C3.35948209,4.30068012 3.12658096,4.35556902 3.12658096,4.65713509 C3.12658096,4.65713509 3.12658096,5.01359006 3.05662452,4.95870116 C3.05662452,4.95870116 2.26407187,3.72445431 2.19433068,3.80646478 C2.19433068,3.80646478 1.77502255,3.9984683 2.19433068,4.62979827 C2.19433068,4.62979827 2.89367983,5.37069078 3.38272916,6.41314935 C3.38272916,6.41314935 3.68601723,6.93405577 3.63887735,7.42827111 C3.63887735,7.42827111 2.86978702,9.81453908 2.77658351,9.97899053 C2.77658351,9.97899053 2.89303408,10.8021088 2.28688843,9.70497653 C2.28688843,9.70497653 1.9607838,9.54030984 2.00727793,8.9912056 C2.00727793,8.9912056 1.75069923,8.7171916 2.56692944,7.56495523 C2.56692944,7.56495523 2.94017396,7.29094124 2.47372594,7.29094124 C2.47372594,7.29094124 2.07788012,7.8673823 2.19433068,6.96203834 C2.19433068,6.96203834 2.25782961,6.30337156 1.96982432,6.77003482 C1.96982432,6.77003482 1.72831317,7.7576045 1.70528136,8.11405947 C1.70528136,8.11405947 1.63532492,9.12918122 1.49541204,8.27872617 C1.49541204,8.27872617 0.912728707,7.34583013 0.959868585,6.63227445 C0.959868585,6.63227445 0.796278141,6.16539593 0.610516887,6.11136804 C0.610516887,6.11136804 0.400862818,6.30337156 0.494066321,6.93470152 C0.494066321,6.93470152 1.16995315,8.82761515 1.35636016,9.01940342 C1.35636016,9.01940342 1.72228615,9.83262013 2.35856688,10.6979275 C2.35856688,10.6979275 2.73181139,11.0220949 2.61471507,12.9152237 C2.61471507,12.9152237 2.73116564,13.9576823 2.28861044,13.3539044 C2.28861044,13.3539044 1.54276717,12.4210084 1.47281073,11.625227 C1.47281073,11.625227 1.61250835,10.7293541 1.3331131,10.6970665 C1.3331131,10.6970665 1.16995315,10.3995902 1.16995315,10.985287 C1.16995315,10.985287 0.913159208,11.8452131 1.37960722,12.7223592 C1.37960722,12.7223592 2.35835163,14.5324014 2.38181394,14.7523875 C2.38181394,14.7523875 2.33510457,17.2768463 2.45155513,17.4410825 C2.45155513,17.4410825 2.49589675,18.6755446 2.47264969,18.8673329 C2.44875687,19.0608432 3.03316221,18.8688396 3.03316221,18.8688396 Z" id="Fill-6" fill="#6BC1E1" mask="url(#mask-4)"></path>
                        </g>
                        <path d="M43.1848653,19.8665735 C43.1848653,19.8665735 43.9905482,19.611071 44.7835314,19.0087999 C44.7835314,19.0087999 45.7168579,18.496934 46.1654401,18.496934 C46.1654401,18.496934 47.0613131,18.210866 48.5592419,18.4063135 C48.5592419,18.4063135 49.620212,18.5565584 49.8382609,18.5259928 C49.8382609,18.5259928 50.6054139,18.2244268 50.7715874,17.9835614 C50.7715874,17.9835614 50.7464031,18.1949374 50.631244,18.314832 C50.631244,18.314832 50.4652858,18.5259928 50.362396,18.7670735 C50.362396,18.7670735 50.2855516,19.5650074 50.093548,19.7006153 C50.093548,19.7006153 50.157047,19.8360079 50.3490505,19.8665735 C50.3490505,19.8665735 50.5918531,20.1085151 50.9635909,19.4145472 C50.9635909,19.4145472 51.3340372,18.5408451 51.7690586,18.5711955 C51.7690586,18.5711955 52.2174256,18.5873393 52.293409,18.7827868 C52.293409,18.7827868 52.1907345,18.7375842 52.1014055,18.7974238 C52.1014055,18.7974238 51.9737619,18.7780513 51.9862464,18.9455162 C51.9862464,18.9455162 52.0628756,19.2789394 51.5251797,20.1819156 C51.5251797,20.1819156 51.4091596,20.5131862 51.3073461,20.6182285 C51.3073461,20.6182285 51.1670027,20.6782834 51.371706,21.3111201 C51.371706,21.3111201 51.551225,21.5664073 51.6155849,22.3045016 C51.6155849,22.3045016 51.7057749,22.7713801 51.8969174,22.906988 L52.0120765,23.0425958 C52.0120765,23.0425958 51.5126951,23.0572329 51.2438472,22.7870934 C51.2438472,22.7870934 50.8462793,22.7115404 50.2586452,21.3720361 C50.2586452,21.3720361 49.888199,21.5674836 49.8621537,21.5076439 C49.8621537,21.5076439 49.7977937,21.704383 49.7592639,21.71902 C49.7592639,21.71902 49.8236238,21.8841172 49.9389981,21.9293198 C49.9389981,21.9293198 49.9764517,22.005088 49.8113545,22.0649277 C49.8113545,22.0649277 49.2870041,22.5169539 48.1855669,22.0502906 C48.1855669,22.0502906 48.1866431,22.1712615 48.0579233,22.2005356 C48.0579233,22.2005356 47.7774518,22.2763038 47.7380609,22.3055778 C47.6997463,22.3363587 47.3032547,22.4558227 47.1495658,22.3363587 C47.1495658,22.3363587 47.111036,22.16997 46.6637452,22.1856833 C46.6637452,22.1856833 45.6152596,22.1101303 45.3453354,21.9598854 C45.3453354,21.9598854 44.7701859,21.8242775 44.2968498,21.3268334 C44.2968498,21.3268334 43.4143224,20.4533466 43.4143224,20.2882494 C43.4143224,20.1220759 43.7350458,20.333452 43.7589386,20.3706903 C43.7849839,20.4081439 43.4382152,20.1662023 43.3114326,20.0157421 L43.1848653,19.8665735 Z" id="Fill-9" fill="#6BC1E1"></path>
                        <path d="M42.4858606,6.50190149 C42.4858606,6.50190149 42.8132567,6.39685921 43.1359173,6.1525498 C43.1359173,6.1525498 43.5151888,5.94354148 43.6975061,5.94354148 C43.6975061,5.94354148 44.0625711,5.82709091 44.6702235,5.90737938 C44.6702235,5.90737938 45.1013704,5.9682953 45.1906994,5.95602601 C45.1906994,5.95602601 45.5019517,5.83376368 45.5701862,5.73539416 C45.5701862,5.73539416 45.5604999,5.8214944 45.51336,5.86992578 C45.51336,5.86992578 45.4453408,5.95602601 45.4040127,6.05310403 C45.4040127,6.05310403 45.3732319,6.37748666 45.2944502,6.43302131 C45.2944502,6.43302131 45.3202802,6.48834071 45.398201,6.50060999 C45.398201,6.50060999 45.497001,6.59897951 45.6478916,6.31764699 C45.6478916,6.31764699 45.798567,5.96162253 45.9752878,5.97410706 C45.9752878,5.97410706 46.1578203,5.98077983 46.1883859,6.05977679 C46.1883859,6.05977679 46.1470577,6.04169575 46.1106804,6.06558856 C46.1106804,6.06558856 46.058805,6.05870054 46.0635405,6.12671973 C46.0635405,6.12671973 46.0943213,6.26232759 45.8762725,6.62954509 C45.8762725,6.62954509 45.8293479,6.76407671 45.7869435,6.80712682 C45.7869435,6.80712682 45.7303326,6.83188064 45.8138498,7.08845933 C45.8138498,7.08845933 45.8859588,7.19350162 45.9128651,7.49291518 C45.9128651,7.49291518 45.9492425,7.68298145 46.0271632,7.73722459 L46.0740878,7.79254399 C46.0740878,7.79254399 45.871537,7.79921676 45.7621897,7.68857796 C45.7621897,7.68857796 45.6007518,7.65801238 45.3616084,7.1134284 C45.3616084,7.1134284 45.2109329,7.19350162 45.2003857,7.1687478 C45.2003857,7.1687478 45.1734793,7.24903627 45.1581966,7.25463279 C45.1581966,7.25463279 45.1851029,7.32136047 45.2311665,7.33944152 C45.2311665,7.33944152 45.2464493,7.36979185 45.1792911,7.39454567 C45.1792911,7.39454567 44.9659778,7.57793916 44.5195481,7.3891644 C44.5195481,7.3891644 44.5195481,7.43888729 44.4676727,7.45008032 C44.4676727,7.45008032 44.3533746,7.4806459 44.3380918,7.49291518 C44.3217328,7.50432346 44.1605101,7.5542616 44.0980874,7.50432346 C44.0980874,7.50432346 44.0825894,7.43651953 43.9002721,7.44340755 C43.9002721,7.44340755 43.4738607,7.41284196 43.3645134,7.3517108 C43.3645134,7.3517108 43.1301056,7.2963914 42.938102,7.09534735 C42.938102,7.09534735 42.5790641,6.73932289 42.5790641,6.67259521 C42.5790641,6.60479127 42.7086449,6.69067626 42.7191922,6.70638955 C42.7286632,6.72124184 42.5896113,6.62394857 42.5366597,6.56174116 L42.4858606,6.50190149 Z" id="Fill-11" fill="#6BC1E1"></path>
                        <path d="M45.322239,14.5531989 C45.322239,14.5531989 45.8424997,14.3881017 46.3554418,13.9980677 C46.3554418,13.9980677 46.9583587,13.6670123 47.2474402,13.6670123 C47.2474402,13.6670123 47.8264643,13.4814663 48.7933699,13.6082488 C48.7933699,13.6082488 49.4789431,13.7055421 49.6201474,13.6863848 C49.6201474,13.6863848 50.1156543,13.4917983 50.2232796,13.3359569 C50.2232796,13.3359569 50.2067053,13.4724257 50.1328743,13.5505617 C50.1328743,13.5505617 50.0254643,13.6874611 49.9591671,13.8422262 C49.9591671,13.8422262 49.909229,14.3575361 49.7852446,14.4457889 C49.7852446,14.4457889 49.8265727,14.5338264 49.9503418,14.5531989 C49.9503418,14.5531989 50.1070443,14.7092556 50.3479097,14.2615344 C50.3479097,14.2615344 50.5870531,13.6965016 50.8694618,13.7167351 C50.8694618,13.7167351 51.1583281,13.7268519 51.2082662,13.8534193 C51.2082662,13.8534193 51.1421843,13.8241452 51.0844972,13.8637513 C51.0844972,13.8637513 51.0018409,13.8512668 51.010451,13.959753 C51.010451,13.959753 51.0603891,14.1756494 50.7127594,14.7587632 C50.7127594,14.7587632 50.6378522,14.9722918 50.5717703,15.0413872 C50.5717703,15.0413872 50.481365,15.0797018 50.6130984,15.4891084 C50.6130984,15.4891084 50.7282574,15.6539904 50.7695856,16.1309857 C50.7695856,16.1309857 50.8281337,16.4325518 50.9519028,16.5197282 L51.025949,16.6066895 C51.025949,16.6066895 50.7032884,16.6170215 50.5304422,16.4415923 C50.5304422,16.4415923 50.2740787,16.3931609 49.8937309,15.5274231 C49.8937309,15.5274231 49.6537265,15.6539904 49.6373675,15.6145995 C49.6373675,15.6145995 49.5960394,15.7411669 49.5710703,15.7510684 C49.5710703,15.7510684 49.6123984,15.8584785 49.6873056,15.8879678 C49.6873056,15.8879678 49.7122747,15.9366144 49.6037884,15.9760053 C49.6037884,15.9760053 49.265845,16.2676698 48.5544418,15.9658885 C48.5544418,15.9658885 48.5544418,16.0440245 48.4717856,16.0631818 C48.4717856,16.0631818 48.2903293,16.1116131 48.264284,16.1320619 C48.2393149,16.1514345 47.9829515,16.2293552 47.8841515,16.1514345 C47.8841515,16.1514345 47.8591824,16.0440245 47.5701009,16.0541412 C47.5701009,16.0541412 46.8920615,16.0054946 46.7183543,15.9084166 C46.7183543,15.9084166 46.3468318,15.8201638 46.0405302,15.5000862 C46.0405302,15.5000862 45.4701162,14.9350534 45.4701162,14.8289349 C45.4701162,14.7215249 45.6776177,14.858209 45.6939768,14.8818866 C45.7101206,14.9057794 45.4864752,14.7497227 45.4048953,14.6537209 L45.322239,14.5531989 Z" id="Fill-17" fill="#6BC1E1"></path>
                        <path d="M39.9355716,12.4475746 C39.9355716,12.4475746 40.1611543,12.3752505 40.3830776,12.2069245 C40.3830776,12.2069245 40.6441766,12.0633524 40.7698829,12.0633524 C40.7698829,12.0633524 41.0206498,11.9830639 41.4401732,12.0385985 C41.4401732,12.0385985 41.7378648,12.0801419 41.7983502,12.0723929 C41.7983502,12.0723929 42.0133855,11.9886604 42.0596644,11.9208565 C42.0596644,11.9208565 42.0527764,11.9796199 42.0202735,12.0134142 C42.0202735,12.0134142 41.9742099,12.0723929 41.9451511,12.1399816 C41.9451511,12.1399816 41.9240565,12.3627659 41.8704591,12.4012958 C41.8704591,12.4012958 41.8885402,12.4385341 41.9414918,12.4475746 C41.9414918,12.4475746 42.0097263,12.5153786 42.1132618,12.3210073 C42.1132618,12.3210073 42.2170126,12.0766979 42.3390597,12.0846622 C42.3390597,12.0846622 42.463905,12.0893977 42.4858606,12.1436408 C42.4858606,12.1436408 42.457017,12.130941 42.4320479,12.1479458 C42.4320479,12.1479458 42.3965316,12.1423493 42.4004061,12.1899197 C42.4004061,12.1899197 42.4215006,12.2835537 42.2719015,12.5369036 C42.2719015,12.5369036 42.2400444,12.6296766 42.2103398,12.6587355 C42.2103398,12.6587355 42.170949,12.6759555 42.2286361,12.853322 C42.2286361,12.853322 42.2785742,12.9256462 42.2966553,13.1314258 C42.2966553,13.1314258 42.3216244,13.2625134 42.375437,13.2997517 L42.4070788,13.3372053 C42.4070788,13.3372053 42.2678117,13.3415103 42.1920435,13.2659574 C42.1920435,13.2659574 42.080759,13.2444323 41.9154465,12.8692505 C41.9154465,12.8692505 41.811911,12.9234937 41.8052382,12.9064889 C41.8052382,12.9064889 41.7869419,12.9618083 41.7761794,12.9652523 C41.7761794,12.9652523 41.7936147,13.0115312 41.8263328,13.0240157 C41.8263328,13.0240157 41.83688,13.0453255 41.7908164,13.0614693 C41.7908164,13.0614693 41.6438003,13.1878214 41.3355614,13.0567338 C41.3355614,13.0567338 41.3355614,13.0905281 41.3000451,13.0984924 C41.3000451,13.0984924 41.2212634,13.1200175 41.2107161,13.1279817 C41.2001688,13.1357308 41.088669,13.1697404 41.0456189,13.1357308 C41.0456189,13.1357308 41.0348564,13.0894519 40.90915,13.0941874 C40.90915,13.0941874 40.615333,13.0724471 40.5404258,13.0306885 C40.5404258,13.0306885 40.3792031,12.9934501 40.2466087,12.853322 C40.2466087,12.853322 39.9999316,12.6079363 39.9999316,12.5627337 C39.9999316,12.5164548 40.0892606,12.5754335 40.0959333,12.5866265 C40.1026061,12.5967433 40.0066043,12.5289394 39.970227,12.4871808 L39.9355716,12.4475746 Z" id="Fill-19" fill="#6BC1E1"></path>
                        <path d="M9.43066786,16.0237005 C9.43066786,16.0237005 10.785455,14.7950501 8.98337715,13.5803911 C8.98337715,13.5803911 8.65856402,13.3485662 7.68261787,13.0345156 C7.57413158,12.9934028 7.45229975,12.9662812 7.33003741,12.9522899 C6.0699605,12.7475866 5.63666107,13.18433 5.43324927,12.9934028 C5.32476298,12.8980467 5.6095395,12.4613033 6.7882517,12.3790776 C6.97767221,12.3653016 7.15374719,12.4475273 7.31626138,12.351956 C7.39784135,12.2974976 7.33003741,12.1743743 7.16709272,11.9563254 C7.07238247,11.8336326 6.62509175,11.4924604 6.48969914,11.424226 C6.12398839,11.2195227 6.20492261,11.3015332 5.86611819,11.0688473 C5.41904273,10.7547967 6.0155021,10.1678083 6.62509175,10.8503679 C7.05860643,11.3282242 7.73600002,11.6422748 8.07458918,11.874315 C8.23710338,11.983447 8.42716964,11.9563254 8.48119754,11.7649677 C8.5218799,11.601162 8.37249599,11.4509171 8.15616916,11.1646338 C7.81736474,10.6867775 7.6006074,10.4547374 7.58726186,10.1544628 C7.57348583,9.99087236 8.10214126,9.99087236 8.53565594,10.7416664 C8.60345987,10.8510137 8.84733878,11.2332987 9.09143294,11.6698269 C9.32153582,12.0794488 9.6469947,12.5710811 9.89044311,12.8573644 C10.1076309,13.1165261 10.9066411,13.2125278 10.5680519,12.4068449 C10.3646401,11.9020823 10.202126,11.7514069 9.91756468,11.5606949 C9.72792892,11.438002 9.57876026,11.2739811 9.45714369,11.0828386 C9.29462949,10.8099008 9.1321153,10.4413918 9.1861432,10.1413325 C9.29462949,9.60901782 10.0127054,10.6463104 10.0127054,10.6463104 C10.0127054,10.6463104 10.3921922,11.424226 10.7850245,10.8781353 C11.1776416,10.3322598 9.93134072,8.99426216 9.93134072,8.99426216 C9.93177122,8.99383166 7.8048802,7.09639776 7.99473122,5.92220582 C8.14389987,4.95293244 9.11941552,6.83680555 9.44422865,7.50623487 C9.53893891,7.71093818 9.71522914,7.86118308 9.93241697,7.91564148 C10.1625198,7.98366066 10.4063988,7.92941752 10.3794924,7.39688757 C10.3388101,6.41383816 10.5013243,6.00443155 10.5013243,6.00443155 C10.5013243,6.00443155 10.9755213,5.5267905 11.0702316,6.59163514 C11.1649418,7.65647978 10.5420066,8.44838668 11.4766247,9.33564958 C12.4112427,10.2229125 12.5065987,8.20257051 12.5065987,8.20257051 C12.5065987,8.20257051 12.4250187,7.41066361 11.7073733,6.76921687 C10.9892973,6.12777013 11.6395694,5.96417969 11.9645977,6.22334139 C12.2493743,6.44182073 12.6826737,7.28818603 12.8045055,7.52001091 C12.8451879,7.58846059 12.8860855,7.65647978 12.9398981,7.71093818 C13.075506,7.86118308 13.3462912,8.02498878 13.4956751,7.42400915 C13.7259933,6.56408306 14.4440692,5.5812489 14.7012937,5.64948333 C14.9585181,5.71771777 14.7553216,6.07288123 14.4980971,6.61897196 C14.1730687,7.35577471 13.1024123,8.88513011 13.1024123,8.88513011 C13.1024123,8.88469961 11.5713349,11.1097449 11.6798212,11.874315 C11.7338491,12.2701608 12.045532,12.4613033 12.3165324,12.5568746 C12.5737569,12.638885 12.8445421,12.5026314 12.9123461,12.242824 C13.0208324,11.874315 13.1833465,11.2599898 13.3325152,10.3998485 C13.454347,9.64926968 13.6444133,9.39010798 13.7931514,9.32165829 C13.914768,9.26741515 14.0501606,9.37611669 14.010124,9.49924003 C13.9016377,9.96332029 13.5766094,11.3693371 13.7253475,11.874315 C13.9016377,12.4746488 14.7822279,11.4102347 14.7822279,11.4102347 C14.7822279,11.4102347 15.9338185,10.1680236 16.6112121,9.99108761 C17.0991852,9.85440349 16.8415302,10.2502493 16.66524,10.4958502 C16.58366,10.6051975 16.4889498,10.6867775 16.3942395,10.7690032 C16.0016224,11.041941 14.8900684,11.8749607 14.7144239,12.4890706 C14.5250034,13.1173871 15.3511352,12.6666524 15.5952293,12.5303987 C15.6492572,12.4890706 15.730622,12.4759404 15.7984259,12.4759404 C15.9338185,12.4759404 16.1101087,12.5303987 15.8391082,12.9535814 C15.4464912,13.5816826 13.4950294,13.4994569 13.4950294,13.4994569 C13.4950294,13.4985959 11.6526996,13.2936773 11.3141105,14.099145 C10.9753061,14.8908367 12.2080461,16.0239157 12.2080461,16.0239157 L9.43066786,16.0237005 Z" id="Fill-21" fill="#6BC1E1"></path>
                    </g>
                </g>
                <g id="Group-4-Copy-9" transform="translate(33.676809, 151.100112)" fill="#FFFFFF" fill-rule="nonzero">
                    <path d="M7.68962117,0.649648287 C8.71504616,0.649648287 9.56575652,1.39769056 9.72582759,2.37785045 L11.9927435,2.37802881 C12.4052658,2.37802881 12.7663946,2.64493066 12.8916675,3.03114929 L12.9148344,3.11568292 L14.6624918,10.8835735 C14.7891177,11.4462631 14.387595,11.9825502 13.8259229,12.0323492 L13.7405169,12.0361129 L1.55890938,12.0361129 C0.982062425,12.0361129 0.547009498,11.5266458 0.621740487,10.9677351 L0.636819514,10.8835851 L2.38457743,3.11574723 C2.47505308,2.7132362 2.81473747,2.41944438 3.21901755,2.38206108 L3.30657042,2.37802881 L5.65341475,2.37785045 C5.81348581,1.39769056 6.66419617,0.649648287 7.68962117,0.649648287 Z M11.9927435,3.04782085 L3.30657042,3.04782085 C3.19623359,3.04782085 3.09851073,3.11339796 3.05505904,3.21124627 L3.03804865,3.26270549 L1.29027263,11.0306239 C1.25542066,11.1854962 1.35796176,11.3335129 1.50746112,11.3615675 L1.55890938,11.3663209 L13.7405169,11.3663209 C13.8992413,11.3663209 14.0211319,11.2337848 14.0156913,11.0818252 L14.0090377,11.0306077 L12.2613904,3.26276219 C12.237138,3.1550608 12.1516726,3.07407428 12.0466763,3.05313326 L11.9927435,3.04782085 Z M7.68962117,1.31944032 C7.05386444,1.31944032 6.51754717,1.74519121 6.35023097,2.32713136 L6.35023097,2.32713136 L6.33719049,2.37776672 L9.04114095,2.37776672 L9.02901136,2.32713136 C8.87050128,1.77581964 8.38081017,1.36468886 7.78913814,1.32293912 L7.78913814,1.32293912 Z" id="Combined-Shape"></path>
                </g>
                <path d="M41.3196793,19.9028471 C41.3461352,104.50147 41.3593631,148.450441 41.3593631,151.74976 L41.3196793,19.9028471 Z" id="Stroke-1-Copy-4" stroke="url(#linearGradient-5)" stroke-width="2" stroke-linecap="round"></path>
                <path d="M40.2278876,133.631144 C40.9266724,133.49011 41.616557,133.64563 42.1669905,134.01111 C42.7173232,134.376524 43.1282573,134.951832 43.2679125,135.643531 L43.2679125,135.643531 L44.3612821,141.486847 C44.5023058,142.185445 44.346794,142.87514 43.9813506,143.425468 C43.615915,143.975785 43.0405538,144.386746 42.3419299,144.527883 C41.6431787,144.668911 40.9533929,144.51341 40.4030469,144.147955 C39.8527605,143.78254 39.4418879,143.207212 39.3022283,142.515492 L39.3022283,142.515492 L38.2088634,136.672523 C38.0678391,135.973787 38.2233297,135.284018 38.5887245,134.733639 C38.9541138,134.183269 39.5294049,133.772281 40.2278876,133.631144 Z" id="Fill-3-Copy-7" stroke="#FFFFFF" fill="#FFFFFF" transform="translate(41.285071, 139.079514) scale(-1, 1) rotate(11.000000) translate(-41.285071, -139.079514) "></path>
                <path d="M40.2709702,25.6824591 C40.9697551,25.5414249 41.6596397,25.6969449 42.2100731,26.0624252 C42.7604059,26.4278386 43.17134,27.0031468 43.3109952,27.6948454 L43.3109952,27.6948454 L44.4043647,33.538162 C44.5453885,34.2367596 44.3898767,34.9264546 44.0244332,35.4767833 C43.6589976,36.0271002 43.0836364,36.4380605 42.3850125,36.579198 C41.6862614,36.7202254 40.9964756,36.5647252 40.4461296,36.1992703 C39.8958432,35.8338549 39.4849706,35.2585272 39.345311,34.5668068 L39.345311,34.5668068 L38.2519461,28.7238379 C38.1109218,28.0251017 38.2664124,27.3353324 38.6318071,26.7849538 C38.9971965,26.2345834 39.5724876,25.8235955 40.2709702,25.6824591 Z" id="Fill-3-Copy-8" stroke="#FFFFFF" fill="#FFFFFF" transform="translate(41.328153, 31.130829) scale(-1, 1) rotate(12.000000) translate(-41.328153, -31.130829) "></path>
                <g id="Group-17-Copy-3" transform="translate(29.603276, 0.000000)">
                    <polygon id="Fill-1" fill="#FFFFFF" points="16.7003916 2.46876336 13.5648977 2.46876336 13.5648977 3.04598978 9.71672164 3.04598978 9.71672164 2.46876336 6.38862653 2.46876336 5.57993232 3.71942059 17.5092783 3.71942059"></polygon>
                    <g id="Group-16" stroke="#FFFFFF">
                        <path d="M13.2281054,18.150081 L9.95715568,18.150081 C6.02528174,18.150081 2.83802988,14.9628291 2.83802988,11.0309552 L20.3472312,11.0309552 C20.3472312,14.9628291 17.1599793,18.150081 13.2281054,18.150081 Z" id="Stroke-4"></path>
                        <polygon id="Stroke-6" stroke-linejoin="round" points="0.192408805 11.0309552 23.0890567 11.0309552 23.0890567 9.49164628 0.192408805 9.49164628"></polygon>
                        <polygon id="Stroke-8" points="15.777522 1.41051493 7.31153461 1.41051493 0.962044027 9.49168476 22.1270126 9.49168476"></polygon>
                        <polygon id="Stroke-10" stroke-linejoin="round" points="19.818107 9.39548035 14.6230692 9.39548035 14.6230692 3.04598978"></polygon>
                        <polygon id="Stroke-13" stroke-linejoin="round" points="3.6557673 9.39548035 8.65839624 9.39548035 8.65839624 3.04598978"></polygon>
                        <path d="M14.8092541,0.572838191 L13.5682173,0.572838191 C13.4327615,0.572838191 13.3228961,0.68251121 13.3228961,0.817967009 L13.3228961,1.15006461 L15.0545753,1.15006461 L15.0545753,0.817967009 C15.0545753,0.68251121 14.9447099,0.572838191 14.8092541,0.572838191 Z" id="Stroke-15" stroke-width="0.8"></path>
                    </g>
                </g>
                <g id="Group-10-Copy-4" transform="translate(62.838533, 13.902847)" fill="#6AC1E3">
                    <g id="Group-9-Copy" transform="translate(0.528966, 0.000000)">
                        <path d="M16.2986222,1.97168697 C18.3069934,4.11623023 21.0691663,5.3283299 24.0106538,5.3283299 C26.9521413,5.3283299 29.7143141,4.11623023 31.7226854,1.97168697 C32.130974,1.50400519 32.8191497,0.94529269 32.3594223,0.30245125 C31.991321,-0.07793271 31.4016276,-0.079527231 31.1019261,0.30245125 C29.365493,2.51613855 26.7855614,3.7853706 24.0202246,3.7853706 C21.2548878,3.7853706 18.6718714,2.51613855 16.9385231,0.30245125 C16.6388138,-0.079527231 15.9807283,-0.079527231 15.6810269,0.30245125 C13.9445938,2.51613855 11.3646622,3.7853706 8.59932538,3.7853706 C5.8339886,3.7853706 3.25097216,2.51613855 1.51762385,0.30245125 C1.25190284,-0.0344142087 0.757541839,-0.100586135 0.408435966,0.158080339 C0.0623824765,0.416746813 -0.00559413823,0.897983183 0.260127667,1.23782076 C2.28392295,3.83649716 5.32420354,5.3283299 8.58674883,5.3283299 C11.5280781,5.3283299 14.290251,4.11623023 16.2986222,1.97168697 Z" id="Fill-5-Copy-2"></path>
                    </g>
                </g>
                <g id="Group-10-Copy-5" transform="translate(1.222559, 13.902847)" fill="#6AC1E3">
                    <g id="Group-9-Copy" transform="translate(0.528966, 0.000000)">
                        <path d="M8.58659064,5.3283299 C11.5280781,5.3283299 14.290251,4.11623023 16.2986222,1.97168697 C18.3069934,4.11623023 21.0691663,5.3283299 24.0106538,5.3283299 C26.9521413,5.3283299 29.7143141,4.11623023 31.7226854,1.97168697 C33.7310566,4.11623023 36.4932294,5.3283299 39.4347169,5.3283299 C42.3762044,5.3283299 45.1383773,4.11623023 47.1467485,1.97168697 C49.1551197,4.11623023 51.9172926,5.3283299 54.8587801,5.3283299 C58.1215627,5.3283299 61.1619224,3.83649716 63.2012208,1.23782076 C63.4669418,0.900955299 63.3989652,0.416716014 63.0529125,0.158080339 C62.7037671,-0.100586135 62.209414,-0.0344142087 61.9437246,0.30245125 C60.2072915,2.51613855 57.6273599,3.7853706 54.8620231,3.7853706 C52.0966863,3.7853706 49.5136699,2.51613855 47.7803216,0.30245125 C47.4806122,-0.079527231 46.8225268,-0.079527231 46.5228254,0.30245125 C44.7863923,2.51613855 42.2064606,3.7853706 39.4411239,3.7853706 C36.6757871,3.7853706 34.0927706,2.51613855 32.3594223,0.30245125 C32.059713,-0.079527231 31.4016276,-0.079527231 31.1019261,0.30245125 C29.365493,2.51613855 26.7855614,3.7853706 24.0202246,3.7853706 C21.2548878,3.7853706 18.6718714,2.51613855 16.9385231,0.30245125 C16.6388138,-0.079527231 15.9807283,-0.079527231 15.6810269,0.30245125 C13.9445938,2.51613855 11.3646622,3.7853706 8.59932538,3.7853706 C5.8339886,3.7853706 3.25097216,2.51613855 1.51762385,0.30245125 C1.25190284,-0.0344142087 0.757541839,-0.100586135 0.408435966,0.158080339 C0.0623824765,0.416746813 -0.00559413823,0.897983183 0.260127667,1.23782076 C2.28392295,3.83649716 5.32420354,5.3283299 8.58674883,5.3283299 L8.58659064,5.3283299 Z" id="Fill-5-Copy-2"></path>
                    </g>
                </g>
                <line x1="102.5" y1="162.495941" x2="0.5" y2="162.495941" id="Line-6" stroke="#6BC1E1" stroke-width="2" stroke-linecap="round"></line>
            </g>
        </g>
    </g>
</svg>