<svg xmlns="http://www.w3.org/2000/svg" viewBox="0 0 44 44"><defs><style>.cls-1{fill:current;}.cls-2{fill:none;}.cls-3{fill:#fff;}</style></defs><g id="Layer_2" data-name="Layer 2"><g id="Layer_1-2" data-name="Layer 1"><g id="Page-1"><g id="starIcon"><g id="Shadow"><g id="path-1"><circle id="path-1-2" data-name="path-1" cx="22" cy="22" r="22"/><circle id="path-1-3" data-name="path-1" class="cls-1" cx="22" cy="22" r="22"/></g></g><g id="Group-Clipped"><g id="Icon"><polygon id="_24pt-Bounding-Box" data-name="24pt-Bounding-Box" class="cls-2" points="10 10 34 10 34 34 10 34 10 10"/><path id="Fill" class="cls-3" d="M27.56,31h0a1,1,0,0,1-.46-.11L22,28.22l-5.1,2.67h0a1,1,0,0,1-1.35-.42,1,1,0,0,1-.1-.64l1-5.63-4.12-4h0a1,1,0,0,1-.25-1h0a1,1,0,0,1,.81-.68l5.7-.83,2.51-5.13h0a1,1,0,0,1,1.34-.46,1,1,0,0,1,.46.46l2.54,5.12,5.7.83h0a1,1,0,0,1,.81.68h0a1,1,0,0,1-.25,1l-4.12,4,1,5.63h0a1,1,0,0,1-.4,1h0a1,1,0,0,1-.62.18Z"/></g></g></g></g></g></g></svg>
