<?xml version="1.0" encoding="UTF-8"?>
<svg width="268px" height="14px" viewBox="0 0 268 14" version="1.1" xmlns="http://www.w3.org/2000/svg" xmlns:xlink="http://www.w3.org/1999/xlink">
    <title>3E950A9A-5D01-43EA-B950-57B64DE4B720</title>
    <g id="Page-1" stroke="none" stroke-width="1" fill="none" fill-rule="evenodd" stroke-linecap="round" stroke-linejoin="round">
        <g id="Reef-Detail-full---no-live-feed-Copy-2" transform="translate(-1126.000000, -1064.000000)" stroke="#FFFFFF" stroke-width="2.5">
            <path d="M1127.77995,1065.44005 C1132.94829,1072.18625 1139.74961,1076.5185 1148.75606,1076.5185 C1157.75616,1076.5185 1165.77247,1072.19236 1170.93881,1065.45432 C1176.10752,1072.19236 1184.12382,1076.5185 1193.12393,1076.5185 C1202.12297,1076.5185 1210.13844,1072.19338 1215.30849,1065.4567 C1220.47727,1072.19338 1228.49275,1076.5185 1237.49179,1076.5185 C1246.49189,1076.5185 1254.5082,1072.19236 1259.67453,1065.45432 C1264.84325,1072.19236 1272.85955,1076.5185 1281.85965,1076.5185 C1290.8587,1076.5185 1298.87417,1072.19338 1304.04422,1065.4567 C1309.213,1072.19338 1317.22848,1076.5185 1326.22752,1076.5185 C1335.22762,1076.5185 1343.24392,1072.19236 1348.41026,1065.45432 C1353.57898,1072.19236 1361.59528,1076.5185 1370.59538,1076.5185 C1379.59443,1076.5185 1387.6099,1072.19338 1392.77995,1065.4567" id="wavelines"></path>
        </g>
    </g>
</svg>