<svg width="268" height="14" xmlns="http://www.w3.org/2000/svg"><path d="M1.78 1.44c5.168 6.746 11.97 11.078 20.976 11.078 9 0 17.016-4.326 22.183-11.064 5.169 6.738 13.185 11.064 22.185 11.064 8.999 0 17.014-4.325 22.184-11.061 5.17 6.736 13.185 11.061 22.184 11.061 9 0 17.016-4.326 22.183-11.064 5.168 6.738 13.185 11.064 22.185 11.064 8.999 0 17.014-4.325 22.184-11.061 5.169 6.736 13.184 11.061 22.184 11.061 9 0 17.016-4.326 22.182-11.064 5.169 6.738 13.185 11.064 22.185 11.064 9 0 17.015-4.325 22.185-11.061" stroke="#FFF" stroke-width="2.5" fill="none" fill-rule="evenodd" stroke-linecap="round" stroke-linejoin="round"/></svg>