<?xml version="1.0" encoding="UTF-8"?>
<svg width="42px" height="23px" viewBox="0 0 42 23" version="1.1" xmlns="http://www.w3.org/2000/svg" xmlns:xlink="http://www.w3.org/1999/xlink">
    <title>E48897BD-E530-4418-8ADA-96AF85CE8051</title>
    <g id="Page-1" stroke="none" stroke-width="1" fill="none" fill-rule="evenodd" opacity="0.5">
        <g id="Reef-Detail-full---no-live-feed-Copy-2" transform="translate(-1361.000000, -874.000000)" fill="#6BC1E1">
            <g id="iconwaves" transform="translate(1361.008135, 874.240894)">
                <path d="M0.606697856,18.9770834 C2.20265678,20.7718991 4.39762671,21.7863322 6.73508961,21.7863322 C9.0725525,21.7863322 11.2675224,20.7718991 12.8634814,18.9770834 C14.4594403,20.7718991 16.6544102,21.7863322 18.9918731,21.7863322 C21.329336,21.7863322 23.5243059,20.7718991 25.1202649,18.9770834 C26.7162238,20.7718991 28.9111937,21.7863322 31.2486566,21.7863322 C33.8414377,21.7863322 36.2574698,20.5377843 37.8780051,18.3628945 C38.0891612,18.0809643 38.0351433,17.6756937 37.7601514,17.4592358 C37.4827018,17.2427521 37.0898625,17.2981329 36.8787315,17.580063 C35.4988691,19.432747 33.4487178,20.4949954 31.2512337,20.4949954 C29.0537495,20.4949954 27.0011469,19.432747 25.6237358,17.580063 C25.3855708,17.2603768 24.862621,17.2603768 24.6244623,17.580063 C23.2445999,19.432747 21.1944485,20.4949954 18.9969644,20.4949954 C16.7994802,20.4949954 14.7468776,19.432747 13.3694665,17.580063 C13.1313015,17.2603768 12.6083517,17.2603768 12.370193,17.580063 C10.9903306,19.432747 8.94017924,20.4949954 6.7426951,20.4949954 C4.54521095,20.4949954 2.49260828,19.432747 1.11519723,17.580063 C0.877032215,17.2603768 0.354023568,17.2603762 0.115923673,17.580063 C-0.193167862,17.9950674 0.165731503,18.4941184 0.606697856,18.9770834 Z" id="Combined-Shape-Copy-10"></path>
                <path d="M3.41999579,10.7535382 C5.01595471,12.5483539 7.21092464,13.562787 9.54838754,13.562787 C11.8858504,13.562787 14.0808204,12.5483539 15.6767793,10.7535382 C17.2727382,12.5483539 19.4677081,13.562787 21.805171,13.562787 C24.1426339,13.562787 26.3376039,12.5483539 27.9335628,10.7535382 C29.5295217,12.5483539 31.7244916,13.562787 34.0619545,13.562787 C36.6547357,13.562787 39.0707677,12.3142391 40.691303,10.1393493 C40.9024591,9.8574191 40.8484413,9.45214852 40.5734493,9.23569059 C40.2959998,9.01920689 39.9031604,9.07458764 39.6920295,9.35651781 C38.3121671,11.2092017 36.2620157,12.2714502 34.0645316,12.2714502 C31.8670475,12.2714502 29.8144448,11.2092017 28.4370337,9.35651781 C28.1988687,9.03683156 27.6759189,9.03683156 27.4377602,9.35651781 C26.0578978,11.2092017 24.0077465,12.2714502 21.8102623,12.2714502 C19.6127782,12.2714502 17.5601755,11.2092017 16.1827645,9.35651781 C15.9445994,9.03683156 15.4216496,9.03683156 15.1834909,9.35651781 C13.8036285,11.2092017 11.7534772,12.2714502 9.55599303,12.2714502 C7.35850889,12.2714502 5.30590621,11.2092017 3.92849516,9.35651781 C3.69033015,9.03683156 3.1673215,9.03683097 2.9292216,9.35651781 C2.62013007,9.77152217 2.97902943,10.2705732 3.41999579,10.7535382 Z" id="Combined-Shape-Copy-11"></path>
                <path d="M0.606697856,2.52999294 C2.20265678,4.3248087 4.39762671,5.33924176 6.73508961,5.33924176 C9.0725525,5.33924176 11.2675224,4.3248087 12.8634814,2.52999294 C14.4594403,4.3248087 16.6544102,5.33924176 18.9918731,5.33924176 C21.329336,5.33924176 23.5243059,4.3248087 25.1202649,2.52999294 C26.7162238,4.3248087 28.9111937,5.33924176 31.2486566,5.33924176 C33.8414377,5.33924176 36.2574698,4.09069389 37.8780051,1.91580405 C38.0891612,1.63387389 38.0351433,1.22860331 37.7601514,1.01214538 C37.4827018,0.795661681 37.0898625,0.851042431 36.8787315,1.13297259 C35.4988691,2.98565653 33.4487178,4.04790494 31.2512337,4.04790494 C29.0537495,4.04790494 27.0011469,2.98565653 25.6237358,1.13297259 C25.3855708,0.813286343 24.862621,0.813286343 24.6244623,1.13297259 C23.2445999,2.98565653 21.1944485,4.04790494 18.9969644,4.04790494 C16.7994802,4.04790494 14.7468776,2.98565653 13.3694665,1.13297259 C13.1313015,0.813286343 12.6083517,0.813286343 12.370193,1.13297259 C10.9903306,2.98565653 8.94017924,4.04790494 6.7426951,4.04790494 C4.54521095,4.04790494 2.49260828,2.98565653 1.11519723,1.13297259 C0.877032215,0.813286343 0.354023568,0.813285755 0.115923673,1.13297259 C-0.193167862,1.54797696 0.165731503,2.04702797 0.606697856,2.52999294 Z" id="Combined-Shape-Copy-12"></path>
            </g>
        </g>
    </g>
</svg>