<svg width="42" height="23" xmlns="http://www.w3.org/2000/svg"><g fill="#6BC1E1" fill-rule="evenodd" opacity=".5"><path d="M.615 19.218c1.596 1.795 3.79 2.81 6.128 2.81s4.533-1.015 6.129-2.81c1.596 1.795 3.79 2.81 6.128 2.81 2.337 0 4.532-1.015 6.128-2.81 1.596 1.795 3.791 2.81 6.129 2.81 2.593 0 5.009-1.25 6.63-3.424a.656.656 0 00-.119-.904.619.619 0 00-.881.121c-1.38 1.853-3.43 2.915-5.628 2.915-2.197 0-4.25-1.062-5.627-2.915-.238-.32-.761-.32-1 0-1.38 1.853-3.43 2.915-5.627 2.915-2.197 0-4.25-1.062-5.627-2.915-.239-.32-.762-.32-1 0-1.38 1.853-3.43 2.915-5.627 2.915-2.198 0-4.25-1.062-5.628-2.915-.238-.32-.76-.32-.999 0-.309.415.05.914.49 1.397zM3.428 10.994c1.596 1.795 3.791 2.81 6.129 2.81 2.337 0 4.532-1.015 6.128-2.81 1.596 1.795 3.79 2.81 6.128 2.81s4.533-1.015 6.129-2.81c1.596 1.795 3.79 2.81 6.128 2.81 2.593 0 5.009-1.249 6.63-3.424a.656.656 0 00-.118-.903.619.619 0 00-.882.12c-1.38 1.853-3.43 2.915-5.627 2.915-2.198 0-4.25-1.062-5.628-2.915-.238-.32-.76-.32-1 0-1.379 1.853-3.43 2.915-5.627 2.915-2.197 0-4.25-1.062-5.627-2.915-.238-.32-.761-.32-1 0-1.38 1.853-3.43 2.915-5.627 2.915-2.197 0-4.25-1.062-5.627-2.915-.239-.32-.762-.32-1 0-.309.415.05.914.491 1.397zM.615 2.77c1.596 1.796 3.79 2.81 6.128 2.81s4.533-1.014 6.129-2.81c1.596 1.796 3.79 2.81 6.128 2.81 2.337 0 4.532-1.014 6.128-2.81 1.596 1.796 3.791 2.81 6.129 2.81 2.593 0 5.009-1.248 6.63-3.423a.656.656 0 00-.119-.904.619.619 0 00-.881.12c-1.38 1.854-3.43 2.916-5.628 2.916-2.197 0-4.25-1.062-5.627-2.915-.238-.32-.761-.32-1 0-1.38 1.853-3.43 2.915-5.627 2.915-2.197 0-4.25-1.062-5.627-2.915-.239-.32-.762-.32-1 0-1.38 1.853-3.43 2.915-5.627 2.915-2.198 0-4.25-1.062-5.628-2.915-.238-.32-.76-.32-.999 0-.309.415.05.914.49 1.397z"/></g></svg>