<svg width="40" height="32" xmlns="http://www.w3.org/2000/svg"><g fill="#6BC1E1" fill-rule="evenodd" opacity=".5"><path d="M25.034 2.516a8.027 8.027 0 00-2.354 5.68.766.766 0 101.53 0 6.503 6.503 0 116.503 6.503H1.076a.763.763 0 100 1.529h29.637a8.03 8.03 0 006.957-12.05 8.03 8.03 0 00-12.636-1.662z"/><path d="M2.607 10.109a.765.765 0 100 1.529h14.335a4.206 4.206 0 002.977-7.182 4.208 4.208 0 00-7.184 2.975.764.764 0 101.53 0 2.677 2.677 0 112.678 2.678H2.607zM26.123 18.906H2.607a.766.766 0 100 1.53h23.36a4.363 4.363 0 11-1.67 8.397 4.365 4.365 0 01-2.695-4.032.764.764 0 10-1.53 0 5.892 5.892 0 005.796 5.885A5.892 5.892 0 0031.858 25a5.891 5.891 0 00-1.544-4.186 5.888 5.888 0 00-4.033-1.906.711.711 0 00-.158 0z"/></g></svg>