<?xml version="1.0" encoding="UTF-8"?>
<svg width="40px" height="32px" viewBox="0 0 40 32" version="1.1" xmlns="http://www.w3.org/2000/svg" xmlns:xlink="http://www.w3.org/1999/xlink">
    <title>97A4E4A0-A383-4E62-B675-C64835514BFA</title>
    <g id="Page-1" stroke="none" stroke-width="1" fill="none" fill-rule="evenodd" opacity="0.5">
        <g id="Reef-Detail-full---no-live-feed-Copy-2" transform="translate(-1009.000000, -874.000000)" fill="#6BC1E1">
            <g id="iconwind" transform="translate(1009.250000, 874.040243)">
                <path d="M24.7841983,2.47588813 C23.276566,3.9820883 22.4302281,6.02476395 22.4302281,8.15498546 C22.4302281,8.57813605 22.7730634,8.92097506 23.1962177,8.92097506 C23.6179361,8.92097506 23.9607751,8.57813972 23.9607751,8.15498546 C23.9607751,6.43076524 24.6464531,4.77683143 25.8657423,3.55735866 C27.0850314,2.33788589 28.7389652,1.65239148 30.4633691,1.65239148 C32.1890215,1.65239148 33.8429553,2.3380695 35.0620975,3.55735866 C36.2813867,4.77664782 36.9670647,6.43058163 36.9670647,8.15498546 C36.9670647,9.88063785 36.2813867,11.5345717 35.0620975,12.7537139 C33.8428084,13.9730031 32.1888746,14.6586811 30.4633691,14.6586811 L0.826324268,14.6586811 C0.40317368,14.6586811 0.0617668393,15.0000843 0.0617668393,15.4232385 C0.0617668393,15.8463928 0.403170007,16.187796 0.826324268,16.187796 L30.4633691,16.187796 C33.3337277,16.187796 35.9860296,14.6572122 37.420401,12.1711153 C38.8548459,9.68663415 38.8548459,6.6242181 37.420401,4.13812118 C35.9859561,1.65364004 33.3335808,0.12144051 30.4633691,0.12144051 C28.3331108,0.121917899 26.2905454,0.968255798 24.7841983,2.47588813 Z" id="Fill-1"></path>
                <path d="M2.35683457,10.0685089 C1.93368435,10.0685089 1.59084534,10.4099121 1.59084534,10.8330664 C1.59084534,11.2562206 1.93368068,11.5976238 2.35683457,11.5976238 L16.6924486,11.5976238 C18.3951496,11.5976238 19.9285976,10.5734033 20.5798669,9.00124991 C21.2310994,7.42762768 20.8710634,5.61879938 19.6689713,4.41537423 C18.4654727,3.21187565 16.6551755,2.8518139 15.0830956,3.50304644 C13.5109422,4.15427897 12.4852896,5.68915923 12.4852896,7.39046475 C12.4852896,7.81361534 12.8281249,8.15502218 13.249847,8.15502218 C13.6729976,8.15502218 14.0158366,7.81361901 14.0158366,7.39046475 C14.0158366,6.3074519 14.6670691,5.33056637 15.6683382,4.91600879 C16.6696073,4.50288338 17.8200423,4.73096165 18.5860319,5.49695492 C19.3520214,6.26294452 19.5815356,7.41484833 19.166978,8.41464855 C18.7524204,9.41591766 17.7755349,10.0685824 16.692522,10.0685824 L2.35683457,10.0685089 Z" id="Fill-2"></path>
                <path d="M25.8731271,18.8660605 L2.35694841,18.8660605 C1.93379782,18.8660605 1.59095881,19.2088958 1.59095881,19.6306179 C1.59095881,20.0537685 1.93379378,20.3966075 2.35694841,20.3966075 L25.7166903,20.3966075 C27.4825168,20.3966075 29.0733251,21.4595333 29.7487943,23.0905157 C30.4244104,24.7214981 30.0514665,26.5992173 28.8020578,27.8471499 C27.5540885,29.0951191 25.6778014,29.4681071 24.0468925,28.7924542 C22.4159835,28.1168014 21.3515521,26.5259932 21.3515521,24.7603502 C21.3515521,24.3386318 21.0101489,23.9957928 20.5869947,23.9957928 C20.1638404,23.9957928 19.8224373,24.3386281 19.8224373,24.7603502 C19.8238694,26.3052557 20.4321002,27.7870722 21.5165452,28.8886666 C22.6009902,29.9889022 24.0727449,30.6200476 25.6176871,30.6459001 C27.1626292,30.6717526 28.6558664,30.0907697 29.7746468,29.0278439 C30.8949695,27.963486 31.5533996,26.5031886 31.6078954,24.9582832 C31.6624059,23.4148099 31.1072608,21.9114741 30.0644221,20.7726801 C29.0215834,19.6322704 27.5727434,18.9480245 26.0308492,18.8662808 C25.9778443,18.8603245 25.9262018,18.8603245 25.8731271,18.8660605 Z" id="Fill-3"></path>
            </g>
        </g>
    </g>
</svg>